<?xml version="1.0" standalone="no"?>
<!DOCTYPE svg PUBLIC "-//W3C//DTD SVG 1.1//EN" "http://www.w3.org/Graphics/SVG/1.1/DTD/svg11.dtd" >
<svg>
<metadata>
Created by FontForge 20110222 at Thu May  8 18:36:25 2014
 By deploy user
Copyright (c) 2009 by Fontsmith Ltd. All rights reserved.
</metadata>
<defs>
<font id="FSRufus-Bold" horiz-adv-x="500" >
  <font-face 
    font-family="FS Rufus"
    font-weight="700"
    font-stretch="normal"
    units-per-em="1000"
    panose-1="2 0 8 5 5 0 0 2 0 3"
    ascent="750"
    descent="-250"
    x-height="490"
    cap-height="720"
    bbox="-80 -344 3448 1227"
    underline-thickness="50"
    underline-position="-50"
    unicode-range="U+0020-FB06"
  />
<missing-glyph horiz-adv-x="535" 
d="M20 693h495v-693h-495v693zM99 644l169 -253l168 253h-337zM466 599l-169 -252l169 -253v505zM268 302l-169 -252h337zM70 599v-505l168 253z" />
    <glyph glyph-name="f_f" unicode="ff" horiz-adv-x="840" 
d="M53 490h60v22q0 215 252 215q113 0 212 -40q53 45 162 45q86 0 141 -26q16 -8 18.5 -19t-5.5 -39q-11 -35 -20 -43.5t-32 -1.5q-52 15 -97 15q-43 0 -62.5 -19.5t-19.5 -66.5v-42h117q22 0 28.5 -10.5t6.5 -44.5q0 -35 -6.5 -45t-28.5 -10h-117v-268h70q20 0 26.5 -11
t6.5 -45t-6.5 -45t-26.5 -11h-262q-20 0 -26.5 11t-6.5 45t6.5 45t26.5 11h49v268h-263v-268h70q20 0 26.5 -11t6.5 -45t-6.5 -45t-26.5 -11h-262q-20 0 -26.5 11t-6.5 45t6.5 45t26.5 11h49v268h-60q-22 0 -28.5 10t-6.5 45q0 34 6.5 44.5t28.5 10.5zM256 490h263v32
q0 33 5 66q-72 25 -150 25q-59 0 -88.5 -24.5t-29.5 -78.5v-20z" />
    <glyph glyph-name="fi" unicode="fi" horiz-adv-x="781" 
d="M53 490h60v25q0 112 67.5 164.5t216.5 52.5q125 0 205 -27q34 -11 50 -31.5t16 -60.5v-36q0 -23 -15.5 -32t-58.5 -9t-58.5 9t-15.5 32v26q-42 16 -106 16q-85 0 -121.5 -21.5t-36.5 -71.5v-36h96q22 0 28.5 -10.5t6.5 -44.5q0 -35 -6.5 -45t-28.5 -10h-96v-268h70
q20 0 26.5 -11t6.5 -45t-6.5 -45t-26.5 -11h-262q-20 0 -26.5 11t-6.5 45t6.5 45t26.5 11h49v268h-60q-22 0 -28.5 10t-6.5 45q0 34 6.5 44.5t28.5 10.5zM516 490h89q42 0 57 -12.5t15 -46.5v-319h45q20 0 26.5 -11t6.5 -45t-6.5 -45t-26.5 -11h-227q-20 0 -26.5 11t-6.5 45
t6.5 45t26.5 11h39v247q0 11 -4.5 15t-14.5 4h-19q-20 0 -27 10t-7 35q0 37 11.5 52t42.5 15z" />
    <glyph glyph-name="fl" unicode="fl" horiz-adv-x="780" 
d="M53 490h60v25q0 112 67.5 164.5t216.5 52.5q116 0 204 -27q40 -13 57.5 -34.5t17.5 -57.5v-501h45q20 0 26.5 -11t6.5 -45t-6.5 -45t-26.5 -11h-227q-20 0 -26.5 11t-6.5 45t6.5 45t26.5 11h39v490q-15 5 -56 11t-63 6q-88 0 -123 -22.5t-35 -70.5v-36h105
q22 0 28.5 -10.5t6.5 -44.5q0 -35 -6.5 -45t-28.5 -10h-105v-268h70q20 0 26.5 -11t6.5 -45t-6.5 -45t-26.5 -11h-262q-20 0 -26.5 11t-6.5 45t6.5 45t26.5 11h49v268h-60q-22 0 -28.5 10t-6.5 45q0 34 6.5 44.5t28.5 10.5z" />
    <glyph glyph-name="f_f_i" unicode="ffi" horiz-adv-x="1178" 
d="M104 490v22q0 215 260 215q121 0 216 -45q68 50 214 50q125 0 205 -27q34 -11 50 -31.5t16 -60.5v-36q0 -23 -15.5 -32t-58.5 -9t-58.5 9t-15.5 32v26q-42 16 -106 16q-85 0 -121.5 -21.5t-36.5 -71.5v-36h96q22 0 28.5 -10.5t6.5 -44.5q0 -35 -6.5 -45t-28.5 -10h-96
v-268h70q20 0 26.5 -11t6.5 -45t-6.5 -45t-26.5 -11h-262q-20 0 -26.5 11t-6.5 45t6.5 45t26.5 11h49v268h-263v-268h70q20 0 26.5 -11t6.5 -45t-6.5 -45t-26.5 -11h-262q-20 0 -26.5 11t-6.5 45t6.5 45t26.5 11h49v268h-60q-6 0 -10 0.5t-7 1t-4.5 3.5t-2.5 4.5t-1 7.5v9.5
v13v15.5v15v12.5v9.5t1 7.5l3 4.5t4.5 4t6.5 1.5t10 0.5h60zM913 490h89q42 0 57 -12.5t15 -46.5v-319h45q20 0 26.5 -11t6.5 -45t-6.5 -45t-26.5 -11h-227q-20 0 -26.5 11t-6.5 45t6.5 45t26.5 11h39v247q0 11 -4.5 15t-14.5 4h-19q-20 0 -27 10t-7 35q0 37 11.5 52
t42.5 15zM373 613q-66 0 -96 -24t-30 -79v-20h263v26q0 39 7 67q-66 30 -144 30z" />
    <glyph glyph-name="f_f_l" unicode="ffl" horiz-adv-x="1186" 
d="M662 490h117q22 0 28.5 -10.5t6.5 -44.5q0 -35 -6.5 -45t-28.5 -10h-117v-268h70q20 0 26.5 -11t6.5 -45t-6.5 -45t-26.5 -11h-262q-20 0 -26.5 11t-6.5 45t6.5 45t26.5 11h49v268h-263v-268h70q20 0 26.5 -11t6.5 -45t-6.5 -45t-26.5 -11h-262q-20 0 -26.5 11t-6.5 45
t6.5 45t26.5 11h49v268h-60q-22 0 -28.5 10t-6.5 45q0 34 6.5 44.5t28.5 10.5h60v22q0 215 254 215q123 0 223 -45q70 50 213 50q116 0 204 -27q40 -13 57.5 -34.5t17.5 -57.5v-501h45q20 0 26.5 -11t6.5 -45t-6.5 -45t-26.5 -11h-227q-20 0 -26.5 11t-6.5 45t6.5 45
t26.5 11h39v490q-15 5 -56 11t-63 6q-88 0 -123 -22.5t-35 -70.5v-36zM256 510v-20h263v25q0 43 8 72q-76 26 -153 26q-59 0 -88.5 -24.5t-29.5 -78.5z" />
    <glyph glyph-name="f_j" unicode="fj" horiz-adv-x="737" 
d="M53 490h60v22q0 113 66 166.5t212 53.5q123 0 203 -27q34 -11 50 -31.5t16 -60.5v-36q0 -23 -15.5 -32t-58.5 -9t-58.5 9t-15.5 32v26q-42 16 -104 16q-83 0 -117.5 -23t-34.5 -73v-33h96q22 0 28.5 -10.5t6.5 -44.5q0 -35 -6.5 -45t-28.5 -10h-96v-268h70q20 0 26.5 -11
t6.5 -45t-6.5 -45t-26.5 -11h-262q-20 0 -26.5 11t-6.5 45t6.5 45t26.5 11h49v268h-60q-22 0 -28.5 10t-6.5 45q0 34 6.5 44.5t28.5 10.5zM511 490h86q42 0 57 -12.5t15 -46.5v-441q0 -125 -41.5 -175.5t-149.5 -50.5q-62 0 -105 17q-19 8 -22 22.5t7 42.5q9 29 19 37.5
t29 3.5q32 -8 59 -8q35 0 48 18t13 67v395q0 11 -4.5 15t-14.5 4h-16q-20 0 -27 10t-7 35q0 37 11.5 52t42.5 15z" />
    <glyph glyph-name="f_f_j" unicode="ffj" horiz-adv-x="1134" 
d="M517 583q-66 30 -144 30q-66 0 -96 -24t-30 -79v-20h263v26q0 39 7 67zM247 380v-268h70q20 0 26.5 -11t6.5 -45t-6.5 -45t-26.5 -11h-262q-20 0 -26.5 11t-6.5 45t6.5 45t26.5 11h49v268h-60q-6 0 -10 0.5t-7 1t-4.5 3.5t-2.5 4.5t-1 7.5v9.5v13v15.5v15v12.5v9.5t1 7.5
l3 4.5t4.5 4t6.5 1.5t10 0.5h60v22q0 215 260 215q121 0 216 -45q68 50 208 50q123 0 203 -27q34 -11 50 -31.5t16 -60.5v-36q0 -23 -15.5 -32t-58.5 -9t-58.5 9t-15.5 32v26q-42 16 -104 16q-82 0 -117 -21.5t-35 -71.5v-36h96q22 0 28.5 -10.5t6.5 -44.5q0 -35 -6.5 -45
t-28.5 -10h-96v-268h70q20 0 26.5 -11t6.5 -45t-6.5 -45t-26.5 -11h-262q-20 0 -26.5 11t-6.5 45t6.5 45t26.5 11h49v268h-263zM908 490h86q42 0 57 -12.5t15 -46.5v-441q0 -125 -41.5 -175.5t-149.5 -50.5q-62 0 -105 17q-19 8 -22 22.5t7 42.5q9 29 19 37.5t29 3.5
q32 -8 59 -8q35 0 48 18t13 67v395q0 11 -4.5 15t-14.5 4h-16q-20 0 -27 10t-7 35q0 37 11.5 52t42.5 15z" />
    <glyph glyph-name="f_b" unicode="fb" horiz-adv-x="1082" 
d="M654 269v-51q0 -61 26.5 -90t89.5 -29q59 0 92.5 38t33.5 106v8q0 67 -30.5 103t-84.5 36q-127 0 -127 -121zM516 28v574q-61 17 -119 17q-79 0 -110 -22t-31 -71v-36h117q22 0 28.5 -10.5t6.5 -44.5q0 -35 -6.5 -45t-28.5 -10h-117v-268h70q20 0 26.5 -11t6.5 -45
t-6.5 -45t-26.5 -11h-262q-20 0 -26.5 11t-6.5 45t6.5 45t26.5 11h49v268h-60q-22 0 -28.5 10t-6.5 45q0 34 6.5 44.5t28.5 10.5h60v25q0 112 63 164.5t204 52.5q116 0 204 -27q40 -13 57.5 -34.5t17.5 -57.5v-56q0 -66 -21 -137h17q43 82 161 82q106 0 166 -65.5t60 -177.5
v-24q0 -108 -60 -177.5t-177 -69.5q-103 0 -144 59h-18q-1 -33 -14 -43.5t-52 -10.5q-35 0 -48 7t-13 28z" />
    <glyph glyph-name="f_f_b" unicode="ffb" horiz-adv-x="1488" 
d="M662 380v-268h70q20 0 26.5 -11t6.5 -45t-6.5 -45t-26.5 -11h-262q-20 0 -26.5 11t-6.5 45t6.5 45t26.5 11h49v268h-263v-268h70q20 0 26.5 -11t6.5 -45t-6.5 -45t-26.5 -11h-262q-20 0 -26.5 11t-6.5 45t6.5 45t26.5 11h49v268h-60q-22 0 -28.5 10t-6.5 45
q0 34 6.5 44.5t28.5 10.5h60v22q0 113 65.5 164t195.5 51q121 0 217 -41q64 46 195 46q116 0 204 -27q40 -13 57.5 -34.5t17.5 -57.5v-56q0 -66 -21 -137h17q43 82 161 82q106 0 166 -65.5t60 -177.5v-24q0 -108 -60 -177.5t-177 -69.5q-103 0 -144 59h-18q-1 -33 -14 -43.5
t-52 -10.5q-35 0 -48 7t-13 28v574q-61 17 -119 17q-79 0 -110 -22t-31 -71v-36h117q22 0 28.5 -10.5t6.5 -44.5q0 -35 -6.5 -45t-28.5 -10h-117zM1060 269v-51q0 -61 26.5 -90t89.5 -29q59 0 92.5 38t33.5 106v8q0 67 -30.5 103t-84.5 36q-127 0 -127 -121zM256 490h263v25
q0 39 8 74q-64 24 -142 24q-69 0 -99 -24t-30 -79v-20z" />
    <glyph glyph-name="f_h" unicode="fh" horiz-adv-x="1128" 
d="M533 112v490q-15 5 -56 11t-63 6q-88 0 -123 -22.5t-35 -70.5v-36h105q22 0 28.5 -10.5t6.5 -44.5q0 -35 -6.5 -45t-28.5 -10h-105v-268h70q20 0 26.5 -11t6.5 -45t-6.5 -45t-26.5 -11h-262q-20 0 -26.5 11t-6.5 45t6.5 45t26.5 11h49v268h-60q-22 0 -28.5 10t-6.5 45
q0 34 6.5 44.5t28.5 10.5h60v25q0 112 67.5 164.5t216.5 52.5q116 0 204 -27q40 -13 57.5 -34.5t17.5 -57.5v-56q0 -66 -21 -137h18q38 82 158 82q207 0 207 -246v-144h45q20 0 26.5 -11t6.5 -45t-6.5 -45t-26.5 -11h-227q-20 0 -26.5 11t-6.5 45t6.5 45t26.5 11h39v124
q0 81 -19 117.5t-78 36.5q-122 0 -122 -116v-162h40q20 0 26.5 -11t6.5 -45t-6.5 -45t-26.5 -11h-222q-20 0 -26.5 11t-6.5 45t6.5 45t26.5 11h39z" />
    <glyph glyph-name="f_f_h" unicode="ffh" horiz-adv-x="1530" 
d="M803 732q112 0 200 -27q41 -13 58 -34t17 -58v-56q0 -66 -21 -137h18q38 82 158 82q207 0 207 -246v-144h45q20 0 26.5 -11t6.5 -45t-6.5 -45t-26.5 -11h-227q-20 0 -26.5 11t-6.5 45t6.5 45t26.5 11h39v124q0 81 -19 117.5t-78 36.5q-122 0 -122 -116v-162h40
q20 0 26.5 -11t6.5 -45t-6.5 -45t-26.5 -11h-222q-20 0 -26.5 11t-6.5 45t6.5 45t26.5 11h39v490q-45 17 -117 17q-88 0 -122 -22.5t-34 -70.5v-36h105q22 0 28.5 -10.5t6.5 -44.5q0 -35 -6.5 -45t-28.5 -10h-105v-268h70q20 0 26.5 -11t6.5 -45t-6.5 -45t-26.5 -11h-262
q-20 0 -26.5 11t-6.5 45t6.5 45t26.5 11h49v268h-263v-268h70q20 0 26.5 -11t6.5 -45t-6.5 -45t-26.5 -11h-262q-20 0 -26.5 11t-6.5 45t6.5 45t26.5 11h49v268h-60q-22 0 -28.5 10t-6.5 45q0 34 6.5 44.5t28.5 10.5h60v22q0 215 254 215q123 0 223 -45q70 50 213 50z
M256 510v-20h263v25q0 43 8 72q-76 26 -153 26q-59 0 -88.5 -24.5t-29.5 -78.5z" />
    <glyph glyph-name="f_k" unicode="fk" horiz-adv-x="1089" 
d="M533 112v490q-59 17 -119 17q-88 0 -123 -22.5t-35 -70.5v-36h105q22 0 28.5 -10.5t6.5 -44.5q0 -35 -6.5 -45t-28.5 -10h-105v-268h70q20 0 26.5 -11t6.5 -45t-6.5 -45t-26.5 -11h-262q-20 0 -26.5 11t-6.5 45t6.5 45t26.5 11h49v268h-60q-22 0 -28.5 10t-6.5 45
q0 34 6.5 44.5t28.5 10.5h60v25q0 112 67.5 164.5t216.5 52.5q116 0 204 -27q40 -13 57.5 -34.5t17.5 -57.5v-313h88l57 78h-20q-20 0 -26.5 11t-6.5 45t6.5 45t26.5 11h202q20 0 26.5 -11t6.5 -45t-6.5 -45t-26.5 -11h-36l-81 -110l108 -161h34q20 0 26.5 -11t6.5 -45
t-6.5 -45t-26.5 -11h-65q-37 0 -58.5 11.5t-39.5 40.5l-97 153h-92v-88h25q20 0 26.5 -11t6.5 -45t-6.5 -45t-26.5 -11h-207q-20 0 -26.5 11t-6.5 45t6.5 45t26.5 11h39z" />
    <glyph glyph-name="f_f_k" unicode="ffk" horiz-adv-x="1493" 
d="M937 602q-59 17 -119 17q-88 0 -122 -22.5t-34 -70.5v-36h105q22 0 28.5 -10.5t6.5 -44.5q0 -35 -6.5 -45t-28.5 -10h-105v-268h70q20 0 26.5 -11t6.5 -45t-6.5 -45t-26.5 -11h-262q-20 0 -26.5 11t-6.5 45t6.5 45t26.5 11h49v268h-263v-268h70q20 0 26.5 -11t6.5 -45
t-6.5 -45t-26.5 -11h-262q-20 0 -26.5 11t-6.5 45t6.5 45t26.5 11h49v268h-60q-22 0 -28.5 10t-6.5 45q0 34 6.5 44.5t28.5 10.5h60v22q0 215 254 215q123 0 223 -45q70 50 213 50q114 0 202 -27q41 -13 58 -34t17 -58v-313h88l57 78h-20q-20 0 -26.5 11t-6.5 45t6.5 45
t26.5 11h202q20 0 26.5 -11t6.5 -45t-6.5 -45t-26.5 -11h-36l-81 -110l108 -161h34q20 0 26.5 -11t6.5 -45t-6.5 -45t-26.5 -11h-65q-37 0 -58.5 11.5t-39.5 40.5l-97 153h-92v-88h25q20 0 26.5 -11t6.5 -45t-6.5 -45t-26.5 -11h-207q-20 0 -26.5 11t-6.5 45t6.5 45t26.5 11
h39v490zM256 510v-20h263v25q0 43 8 72q-76 26 -153 26q-59 0 -88.5 -24.5t-29.5 -78.5z" />
    <glyph glyph-name="f_t" unicode="ft" horiz-adv-x="857" 
d="M256 490h238v75q0 26 13.5 34t57.5 8q43 0 57.5 -8t14.5 -34v-75h137q22 0 28.5 -10t6.5 -45q0 -34 -6.5 -44.5t-28.5 -10.5h-137v-207q0 -41 13.5 -55t50.5 -14q43 0 80 10q18 5 28 -4.5t17 -40.5q7 -33 3 -43t-23 -17q-59 -21 -135 -21q-103 0 -140 39.5t-37 123.5v229
h-238v-268h70q20 0 26.5 -11t6.5 -45t-6.5 -45t-26.5 -11h-262q-20 0 -26.5 11t-6.5 45t6.5 45t26.5 11h49v268h-60q-22 0 -28.5 10t-6.5 45q0 34 6.5 44.5t28.5 10.5h60v34q0 108 49 158t161 50q69 0 121 -16q15 -5 18.5 -17t-2.5 -44q-5 -29 -13.5 -37.5t-26.5 -6.5
q-61 7 -84 7q-44 0 -62 -18.5t-18 -65.5v-44z" />
    <glyph glyph-name="f_f_t" unicode="fft" horiz-adv-x="1233" 
d="M699 732q69 0 121 -16q15 -5 18.5 -17t-2.5 -44q-5 -29 -13.5 -37.5t-26.5 -6.5q-61 7 -84 7q-44 0 -62 -18.5t-18 -65.5v-44h238v75q0 26 13.5 34t57.5 8q43 0 57.5 -8t14.5 -34v-75h137q22 0 28.5 -10t6.5 -45q0 -34 -6.5 -44.5t-28.5 -10.5h-137v-207q0 -41 13.5 -55
t50.5 -14q43 0 80 10q18 5 28 -4.5t17 -40.5q7 -33 3 -43t-23 -17q-59 -21 -135 -21q-103 0 -140 39.5t-37 123.5v229h-238v-268h70q20 0 26.5 -11t6.5 -45t-6.5 -45t-26.5 -11h-262q-20 0 -26.5 11t-6.5 45t6.5 45t26.5 11h49v268h-263v-268h70q20 0 26.5 -11t6.5 -45
t-6.5 -45t-26.5 -11h-262q-20 0 -26.5 11t-6.5 45t6.5 45t26.5 11h49v268h-60q-22 0 -28.5 10t-6.5 45q0 34 6.5 44.5t28.5 10.5h60v22q0 215 252 215q113 0 210 -39q52 44 154 44zM489 522q0 41 5 66q-73 25 -150 25q-59 0 -88.5 -24.5t-29.5 -78.5v-20h263v32z" />
    <glyph glyph-name="t_t" unicode="tt" horiz-adv-x="878" 
d="M41 490h65v112q0 26 13.5 33.5t57.5 7.5t58 -7.5t14 -33.5v-112h266v112q0 26 13.5 33.5t57.5 7.5t58 -7.5t14 -33.5v-112h137q22 0 28.5 -10t6.5 -45q0 -34 -6.5 -44.5t-28.5 -10.5h-137v-207q0 -41 13.5 -55t50.5 -14q43 0 80 10q18 5 28 -4.5t17 -40.5q7 -33 3 -43
t-23 -17q-59 -21 -135 -21q-104 0 -140.5 38.5t-36.5 124.5v229h-266v-207q0 -41 13.5 -55t50.5 -14q43 0 80 10q18 5 28 -4.5t17 -40.5q7 -33 3 -43t-23 -17q-59 -21 -135 -21q-104 0 -140.5 38.5t-36.5 124.5v229h-65q-22 0 -28.5 10.5t-6.5 44.5q0 35 6.5 45t28.5 10z
" />
    <glyph glyph-name="T_h" unicode="Th" horiz-adv-x="1399" 
d="M786 606h-327v-494h78q21 0 27 -10.5t6 -45.5t-6 -45.5t-27 -10.5h-303q-20 0 -26.5 11t-6.5 45t6.5 45t26.5 11h77v494h-151v-51q0 -24 -14 -32t-55 -8q-40 0 -54.5 8t-14.5 32v107q0 35 13.5 46.5t53.5 11.5h787q42 0 56.5 -12.5t14.5 -45.5v-105q0 -66 -21 -137h18
q38 82 158 82q207 0 207 -246v-144h45q20 0 26.5 -11t6.5 -45t-6.5 -45t-26.5 -11h-227q-20 0 -26.5 11t-6.5 45t6.5 45t26.5 11h39v124q0 81 -19 117.5t-78 36.5q-122 0 -122 -116v-162h40q20 0 26.5 -11t6.5 -45t-6.5 -45t-26.5 -11h-222q-20 0 -26.5 11t-6.5 45t6.5 45
t26.5 11h39v477q0 11 -3.5 14t-14.5 3z" />
    <glyph glyph-name="Tcaron_h" unicode="&#x164;h" horiz-adv-x="1399" 
d="M786 606h-327v-494h78q21 0 27 -10.5t6 -45.5t-6 -45.5t-27 -10.5h-303q-20 0 -26.5 11t-6.5 45t6.5 45t26.5 11h77v494h-151v-51q0 -24 -14 -32t-55 -8q-40 0 -54.5 8t-14.5 32v107q0 35 13.5 46.5t53.5 11.5h787q42 0 56.5 -12.5t14.5 -45.5v-105q0 -66 -21 -137h18
q38 82 158 82q207 0 207 -246v-144h45q20 0 26.5 -11t6.5 -45t-6.5 -45t-26.5 -11h-227q-20 0 -26.5 11t-6.5 45t6.5 45t26.5 11h39v124q0 81 -19 117.5t-78 36.5q-122 0 -122 -116v-162h40q20 0 26.5 -11t6.5 -45t-6.5 -45t-26.5 -11h-222q-20 0 -26.5 11t-6.5 45t6.5 45
t26.5 11h39v477q0 11 -3.5 14t-14.5 3zM321 918l69 -55l74 56q16 12 35 16t71 4q60 0 57 -18q-1 -5 -8 -11l-128 -104q-28 -24 -87 -25h-28q-57 0 -90 25l-132 103q-26 20 15 27q15 3 36 3q57 0 79 -4.5t37 -16.5z" />
    <glyph glyph-name="Tcommaaccent_h" unicode="&#x162;h" horiz-adv-x="1399" 
d="M786 606h-327v-494h78q21 0 27 -10.5t6 -45.5t-6 -45.5t-27 -10.5h-303q-20 0 -26.5 11t-6.5 45t6.5 45t26.5 11h77v494h-151v-51q0 -24 -14 -32t-55 -8q-40 0 -54.5 8t-14.5 32v107q0 35 13.5 46.5t53.5 11.5h787q42 0 56.5 -12.5t14.5 -45.5v-105q0 -66 -21 -137h18
q38 82 158 82q207 0 207 -246v-144h45q20 0 26.5 -11t6.5 -45t-6.5 -45t-26.5 -11h-227q-20 0 -26.5 11t-6.5 45t6.5 45t26.5 11h39v124q0 81 -19 117.5t-78 36.5q-122 0 -122 -116v-162h40q20 0 26.5 -11t6.5 -45t-6.5 -45t-26.5 -11h-222q-20 0 -26.5 11t-6.5 45t6.5 45
t26.5 11h39v477q0 11 -3.5 14t-14.5 3zM378 -72h17q35 0 49 -17.5t14 -62.5q0 -88 -34 -169q-6 -15 -15 -19t-28 -4h-26q-30 0 -20 27q19 54 27 106q-28 6 -39 19.5t-11 46.5q0 40 15.5 56.5t50.5 16.5z" />
    <glyph glyph-name="uni021A_h" unicode="&#x21a;h" horiz-adv-x="1399" 
d="M786 606h-327v-494h78q21 0 27 -10.5t6 -45.5t-6 -45.5t-27 -10.5h-303q-20 0 -26.5 11t-6.5 45t6.5 45t26.5 11h77v494h-151v-51q0 -24 -14 -32t-55 -8q-40 0 -54.5 8t-14.5 32v107q0 35 13.5 46.5t53.5 11.5h787q42 0 56.5 -12.5t14.5 -45.5v-105q0 -66 -21 -137h18
q38 82 158 82q207 0 207 -246v-144h45q20 0 26.5 -11t6.5 -45t-6.5 -45t-26.5 -11h-227q-20 0 -26.5 11t-6.5 45t6.5 45t26.5 11h39v124q0 81 -19 117.5t-78 36.5q-122 0 -122 -116v-162h40q20 0 26.5 -11t6.5 -45t-6.5 -45t-26.5 -11h-222q-20 0 -26.5 11t-6.5 45t6.5 45
t26.5 11h39v477q0 11 -3.5 14t-14.5 3zM378 -72h17q35 0 49 -17.5t14 -62.5q0 -88 -34 -169q-6 -15 -15 -19t-28 -4h-26q-30 0 -20 27q19 54 27 106q-28 6 -39 19.5t-11 46.5q0 40 15.5 56.5t50.5 16.5z" />
    <glyph glyph-name=".notdef" horiz-adv-x="535" 
d="M20 693h495v-693h-495v693zM99 644l169 -253l168 253h-337zM466 599l-169 -252l169 -253v505zM268 302l-169 -252h337zM70 599v-505l168 253z" />
    <glyph glyph-name=".null" horiz-adv-x="0" 
 />
    <glyph glyph-name="nonmarkingreturn" horiz-adv-x="333" 
 />
    <glyph glyph-name="space" unicode=" " horiz-adv-x="200" 
 />
    <glyph glyph-name="exclam" unicode="!" horiz-adv-x="407" 
d="M286 687l-14 -429q-1 -22 -13.5 -28.5t-54.5 -6.5t-55.5 6.5t-14.5 28.5l-14 429q-1 22 16 30.5t68 8.5t67 -8.5t15 -30.5zM193 156h21q37 0 56 -17.5t19 -63.5q0 -47 -12.5 -64t-47.5 -17h-52q-34 0 -46.5 17t-12.5 64q0 46 19 63.5t56 17.5z" />
    <glyph glyph-name="quotedbl" unicode="&#x22;" horiz-adv-x="550" 
d="M218 693l-8 -239q-1 -19 -13 -25t-47 -6q-36 0 -48.5 6t-12.5 25l-8 239q-1 21 13.5 28t54.5 7q41 0 55 -7t14 -28zM470 693l-8 -239q-1 -19 -13 -25t-47 -6q-36 0 -48.5 6t-12.5 25l-8 239q-1 21 13.5 28t54.5 7q41 0 55 -7t14 -28z" />
    <glyph glyph-name="numbersign" unicode="#" horiz-adv-x="823" 
d="M145 549h95l42 151q6 25 68 25q33 0 44.5 -7.5t6.5 -23.5l-40 -145h197l42 151q8 25 69 25q32 0 44 -7.5t7 -23.5l-40 -145h69q18 0 23 -9.5t5 -40.5q0 -28 -5 -39t-23 -11h-97l-49 -185h80q18 0 23 -10t5 -39q0 -28 -5.5 -39t-22.5 -11h-108l-40 -148q-6 -24 -69 -24
q-34 0 -45.5 6t-6.5 24l38 142h-196l-40 -148q-8 -24 -69 -24q-34 0 -45.5 6t-6.5 24l38 142h-58q-17 0 -23 11t-6 39q0 29 6 39t23 10h86l51 185h-67q-17 0 -23 11.5t-6 38.5q0 30 6 40t23 10zM331 451l-51 -188h202l52 188h-203z" />
    <glyph glyph-name="dollar" unicode="$" horiz-adv-x="706" 
d="M77 507v4q0 101 55.5 151t170.5 58v59q0 19 11 24t47 5t48.5 -5t12.5 -24v-59q77 -6 126 -26q35 -14 50 -33.5t15 -55.5v-53q0 -24 -13.5 -31t-57.5 -7q-43 0 -58 7t-15 30v45q-57 18 -118 18q-74 0 -101.5 -21.5t-27.5 -69.5q0 -37 24.5 -53.5t116.5 -31.5l49 -8
q121 -20 171.5 -68t50.5 -138v-8q0 -48 -8.5 -82t-32.5 -65.5t-72.5 -50t-122.5 -23.5v-65q0 -18 -11 -23t-47 -5t-48 5t-12 23v65q-88 5 -144 25q-33 13 -48.5 34.5t-15.5 64.5v63q0 24 14 31.5t58 7.5t58 -8t14 -30v-63q64 -16 139 -16t104 24.5t29 73.5q0 45 -28.5 67
t-122.5 35l-62 9q-198 29 -198 194z" />
    <glyph glyph-name="percent" unicode="%" horiz-adv-x="992" 
d="M826 699l-528 -683q-17 -22 -79 -22q-35 0 -45 6t3 25l528 679q17 22 81 22q46 0 46 -15q-1 -5 -6 -12zM147 534v-9q0 -56 18 -83t58 -27t58 27t18 83v9q0 56 -18 82.5t-58 26.5t-58 -26.5t-18 -82.5zM36 519v19q0 89 50 138.5t137 49.5q88 0 137.5 -48.5t49.5 -139.5
v-19q0 -91 -49.5 -139t-137.5 -48q-89 0 -138 47t-49 140zM693 196v-9q0 -56 18 -83t58 -27t58 27t18 83v9q0 56 -18 82.5t-58 26.5t-58 -26.5t-18 -82.5zM582 181v19q0 89 50 138.5t137 49.5q88 0 137.5 -48.5t49.5 -139.5v-19q0 -91 -49.5 -139t-137.5 -48q-89 0 -138 47
t-49 140z" />
    <glyph glyph-name="ampersand" unicode="&#x26;" horiz-adv-x="731" 
d="M65 541v5q0 101 74 143.5t213 42.5q88 0 168 -25q37 -12 52.5 -32.5t15.5 -56.5v-51q0 -24 -12 -31t-54 -7q-40 0 -53 7t-13 30v46q-53 13 -113 13q-131 0 -131 -98v-5q0 -46 23.5 -71.5t61.5 -25.5q18 0 23.5 -9t5.5 -44q0 -30 -5.5 -40t-22.5 -10q-49 0 -79.5 -30
t-30.5 -77v-5q0 -56 36.5 -84t119.5 -28q150 0 150 107v5q0 80 -61 105q-21 9 -26 18.5t-5 36.5q0 34 6 44.5t24 10.5h249q24 0 30 -10.5t6 -46.5q0 -34 -7 -44.5t-29 -10.5h-93v-15q52 -32 52 -109v-5q0 -196 -298 -196q-162 0 -231 54.5t-69 154.5v6q0 121 114 168v15
q-49 22 -70 57.5t-21 97.5z" />
    <glyph glyph-name="quotesingle" unicode="'" horiz-adv-x="298" 
d="M218 693l-8 -239q-1 -19 -13 -25t-47 -6q-36 0 -48.5 6t-12.5 25l-8 239q-1 21 13.5 28t54.5 7q41 0 55 -7t14 -28z" />
    <glyph glyph-name="parenleft" unicode="(" horiz-adv-x="415" 
d="M357 845h14q19 0 25 -9.5t6 -40.5q0 -30 -6 -40t-25 -10h-19q-75 0 -107 -97t-32 -310v-33q0 -212 36 -308t116 -96h7q20 0 25.5 -9.5t5.5 -40.5q0 -30 -6 -40t-25 -10h-19q-137 0 -202 122t-65 375v45q0 253 62 377.5t209 124.5z" />
    <glyph glyph-name="parenright" unicode=")" horiz-adv-x="415" 
d="M46 845h22q146 0 203.5 -119.5t57.5 -375.5v-45q0 -263 -64 -383.5t-210 -120.5h-12q-19 0 -25 10t-6 40q0 31 5.5 40.5t25.5 9.5h14q78 0 111 96t33 306v33q0 216 -32 312.5t-109 96.5h-14q-19 0 -25 10t-6 40q0 31 5.5 40.5t25.5 9.5z" />
    <glyph glyph-name="asterisk" unicode="*" horiz-adv-x="468" 
d="M110 656l41 -23q24 -15 48 -50l7 5q-18 34 -18 65v49q0 15 8 19t37 4q27 0 36.5 -4t9.5 -19v-49q0 -27 -18 -65l7 -5q29 39 49 50l40 23q14 7 21.5 2t21.5 -29q13 -24 14 -33t-11 -18l-43 -25q-23 -13 -66 -17v-9q46 -4 66 -16l43 -25q13 -8 12.5 -17t-14.5 -33
q-14 -23 -22.5 -29t-21.5 1l-41 24q-21 13 -47 50l-8 -5q18 -38 18 -65v-48q0 -16 -8.5 -20t-36.5 -4t-37 4t-9 20v49q0 25 18 65l-7 4q-25 -36 -48 -49l-42 -24q-14 -7 -21 -2t-21 29q-13 23 -14 33.5t11 18.5l42 24q22 12 66 16v8q-48 6 -66 18l-41 24q-13 8 -12.5 17
t14.5 33t21.5 29.5t21.5 -1.5z" />
    <glyph glyph-name="plus" unicode="+" horiz-adv-x="704" 
d="M111 413h170v171q0 24 12.5 30t56.5 6q45 0 59 -6.5t14 -29.5v-171h170q21 0 27 -11t6 -45q0 -33 -6.5 -44.5t-26.5 -11.5h-170v-170q0 -24 -13 -30t-57 -6t-58 6.5t-14 29.5v170h-170q-20 0 -26.5 11.5t-6.5 44.5q0 34 6 45t27 11z" />
    <glyph glyph-name="comma" unicode="," horiz-adv-x="298" 
d="M144 156h17q39 0 57 -19.5t18 -71.5q0 -48 -14 -108.5t-34 -103.5q-7 -17 -16.5 -22.5t-28.5 -5.5h-33q-18 0 -23.5 6.5t0.5 26.5q26 72 32 142q-29 9 -41 23.5t-12 49.5q0 47 19.5 65t58.5 18z" />
    <glyph glyph-name="hyphen" unicode="-" horiz-adv-x="362" 
d="M68 316h226q21 0 27.5 -10.5t6.5 -44.5q0 -33 -6.5 -44.5t-27.5 -11.5h-226q-21 0 -27.5 11.5t-6.5 44.5q0 34 6.5 44.5t27.5 10.5z" />
    <glyph glyph-name="period" unicode="." horiz-adv-x="295" 
d="M137 156h21q38 0 56.5 -17t18.5 -64t-12.5 -64t-46.5 -17h-52q-35 0 -47.5 17t-12.5 64q0 46 19 63.5t56 17.5z" />
    <glyph glyph-name="slash" unicode="/" horiz-adv-x="646" 
d="M599 732l-467 -879q-13 -24 -75 -24q-19 0 -30.5 2t-16 6t-4 9t4.5 13l468 879q14 25 75 25q33 0 43 -7.5t2 -23.5z" />
    <glyph glyph-name="zero" unicode="0" horiz-adv-x="714" 
d="M207 369v-19q0 -126 36 -186.5t114 -60.5t114 61t36 186v19q0 124 -36 186t-114 62t-114 -62t-36 -186zM54 342v34q0 175 79 265.5t224 90.5q146 0 224.5 -89.5t78.5 -266.5v-34q0 -177 -78.5 -265.5t-224.5 -88.5q-303 0 -303 354z" />
    <glyph glyph-name="one" unicode="1" horiz-adv-x="685" 
d="M81 561l139 124q39 35 121 35h53q39 0 55 -12t16 -40v-556h123q21 0 27 -10.5t6 -45.5t-6 -45.5t-27 -10.5h-421q-20 0 -26.5 11t-6.5 45t6.5 45t26.5 11h149v360q0 61 14 126h-18l-142 -134q-25 -25 -73 25q-43 48 -16 72z" />
    <glyph glyph-name="two" unicode="2" horiz-adv-x="700" 
d="M79 534v78q0 75 65 94q84 26 197 26q277 0 277 -209v-11q0 -109 -124 -211l-110 -91q-61 -50 -143 -74v-15h350q22 0 28.5 -11.5t6.5 -48.5q0 -36 -6.5 -48.5t-28.5 -12.5h-456q-38 0 -50.5 8t-12.5 33v49q0 48 41 79l271 210q50 39 68.5 67.5t18.5 62.5v7q0 51 -34.5 76
t-119.5 25q-51 0 -97 -13v-71q0 -23 -14.5 -30t-56.5 -7q-44 0 -57 7t-13 31z" />
    <glyph glyph-name="three" unicode="3" horiz-adv-x="694" 
d="M77 569v50q0 76 72 93q82 20 180 20q276 0 276 -188v-7q0 -62 -26.5 -99.5t-89.5 -51.5v-15q139 -34 139 -163v-9q0 -105 -75.5 -158t-236.5 -53q-95 0 -174 16q-82 17 -82 97v70q0 24 14 31.5t58 7.5q42 0 57 -7.5t15 -30.5v-60q49 -10 123 -10q78 0 114 25.5t36 78.5v6
q0 53 -34.5 79.5t-122.5 26.5h-67q-22 0 -28 9.5t-6 42.5q0 34 6 43.5t28 9.5h56q83 0 114.5 26t31.5 78v5q0 89 -143 89q-50 0 -96 -6v-47q0 -23 -14 -30t-55 -7q-43 0 -56.5 7t-13.5 31z" />
    <glyph glyph-name="four" unicode="4" horiz-adv-x="687" 
d="M66 386l215 310q12 17 31.5 23.5t69.5 6.5q33 0 51 -6t19 -15t-5 -19l-180 -267q-38 -54 -86 -83v-14h212v104q0 23 14 29.5t60 6.5q43 0 56 -6.5t13 -29.5v-104h78q22 0 28.5 -11t6.5 -47t-6.5 -47.5t-28.5 -11.5h-78v-93h64q21 0 27 -10.5t6 -45.5t-6 -45.5t-27 -10.5
h-279q-20 0 -26.5 11t-6.5 45t6.5 45t26.5 11h72v93h-304q-36 0 -47.5 8t-11.5 33v44q0 45 36 96z" />
    <glyph glyph-name="five" unicode="5" horiz-adv-x="682" 
d="M159 720h389q41 0 56.5 -12t15.5 -46v-101q0 -23 -16.5 -30.5t-57.5 -7.5q-42 0 -58 7.5t-16 30.5v47h-243v-169q59 7 110 7q289 0 289 -218v-10q0 -116 -76 -173t-246 -57q-95 0 -154 14q-43 9 -62.5 32.5t-19.5 68.5v59q0 24 14.5 31t60.5 7q44 0 59.5 -7t15.5 -30v-54
q36 -7 106 -7q78 0 113.5 28t35.5 85v6q0 56 -36.5 85t-123.5 29q-50 0 -103.5 -5.5t-63.5 -5.5q-39 0 -52 9.5t-13 35.5v299q0 30 16 41t60 11z" />
    <glyph glyph-name="six" unicode="6" horiz-adv-x="710" 
d="M72 303v24q0 197 89.5 301t252.5 104q76 0 136 -20q38 -13 55 -36t17 -63v-47q0 -24 -13.5 -31t-59.5 -7q-45 0 -60 7t-15 30v42q-34 9 -70 9q-167 0 -180 -232h18q53 59 155 59q126 0 185.5 -57.5t59.5 -159.5v-14q0 -104 -72.5 -164t-209.5 -60q-151 0 -219.5 75.5
t-68.5 239.5zM222 298v-9q0 -103 33.5 -146t108.5 -43q61 0 94 29.5t33 79.5v8q0 54 -29 81.5t-100 27.5q-75 0 -140 -28z" />
    <glyph glyph-name="seven" unicode="7" horiz-adv-x="653" 
d="M99 720h458q37 0 48.5 -8t11.5 -33v-41q0 -47 -35 -103l-217 -353q-35 -57 -35 -108v-42q0 -24 -13.5 -30.5t-58.5 -6.5q-44 0 -59 6.5t-15 30.5v44q0 42 12.5 76t45.5 89l146 244q34 58 103 107v16h-316v-84q0 -23 -14 -30t-53 -7q-40 0 -54 7t-14 30v152q0 26 11.5 35
t47.5 9z" />
    <glyph glyph-name="eight" unicode="8" horiz-adv-x="708" 
d="M86 542v5q0 185 268 185q132 0 200 -43.5t68 -141.5v-5q0 -127 -110 -156v-15q134 -37 134 -167v-7q0 -104 -70.5 -156.5t-221.5 -52.5t-221.5 52.5t-70.5 156.5v6q0 131 134 168v15q-59 16 -84.5 55t-25.5 101zM213 212v-6q0 -56 33.5 -81t107.5 -25q75 0 108 25t33 81
v6q0 55 -30.5 81t-110.5 26q-79 0 -110 -27t-31 -80zM236 532v-6q0 -51 26.5 -78t91.5 -27q66 0 92 27t26 78v6q0 43 -30 67t-88 24q-118 0 -118 -91z" />
    <glyph glyph-name="nine" unicode="9" horiz-adv-x="705" 
d="M68 496v14q0 104 71 163t209 59q147 0 216 -75.5t69 -233.5v-25q0 -203 -85 -306.5t-250 -103.5q-91 0 -148 19q-38 13 -55.5 37t-17.5 67v51q0 24 13.5 31t59.5 7q44 0 59 -7t15 -30v-50q40 -9 83 -9q86 0 128 57t46 182h-19q-51 -59 -153 -59q-122 0 -181.5 55
t-59.5 157zM219 514v-7q0 -55 29.5 -80.5t96.5 -25.5q76 0 137 27v9q0 98 -33.5 140.5t-105.5 42.5q-60 0 -92 -28.5t-32 -77.5z" />
    <glyph glyph-name="colon" unicode=":" horiz-adv-x="294" 
d="M136 492h21q36 0 54.5 -16.5t18.5 -62.5q0 -45 -12.5 -61.5t-45.5 -16.5h-50q-33 0 -45.5 16.5t-12.5 61.5t18.5 62t53.5 17zM136 155h21q37 0 56 -17t19 -63q0 -47 -12.5 -64t-46.5 -17h-52q-34 0 -46.5 17t-12.5 64q0 45 18.5 62.5t55.5 17.5z" />
    <glyph glyph-name="semicolon" unicode=";" horiz-adv-x="298" 
d="M139 492h21q36 0 54.5 -17t18.5 -62t-12.5 -61.5t-45.5 -16.5h-50q-33 0 -45.5 16.5t-12.5 61.5q0 44 18.5 61.5t53.5 17.5zM145 156h16q39 0 57 -19.5t18 -71.5q0 -49 -13.5 -108.5t-33.5 -103.5q-9 -17 -18 -22.5t-27 -5.5h-34q-18 0 -23.5 6.5t0.5 26.5q26 72 32 142
q-29 9 -41 23.5t-12 49.5q0 47 19.5 65t59.5 18z" />
    <glyph glyph-name="less" unicode="&#x3c;" horiz-adv-x="637" 
d="M122 457l343 225q20 12 32 6t33 -36q20 -30 21.5 -44.5t-18.5 -28.5l-329 -207v-14l339 -213q17 -14 15 -28t-22 -45q-21 -30 -33.5 -36.5t-32.5 4.5l-350 220q-24 15 -33 28.5t-9 37.5v56q0 46 44 75z" />
    <glyph glyph-name="equal" unicode="=" horiz-adv-x="704" 
d="M110 283h485q19 0 25 -11t6 -43q0 -31 -6 -42.5t-25 -11.5h-485q-19 0 -25.5 11.5t-6.5 42.5q0 32 6 43t26 11zM110 542h485q19 0 25 -11.5t6 -42.5t-6 -43t-25 -12h-485q-20 0 -26 12t-6 43t6 42.5t26 11.5z" />
    <glyph glyph-name="greater" unicode="&#x3e;" horiz-adv-x="636" 
d="M172 677l344 -215q23 -15 32.5 -29t9.5 -37v-56q0 -46 -45 -75l-348 -229q-20 -12 -32 -6t-33 36q-20 29 -21.5 44.5t16.5 27.5l337 212v14l-332 208q-18 14 -16 28.5t23 44.5q20 30 33 36.5t32 -4.5z" />
    <glyph glyph-name="question" unicode="?" horiz-adv-x="655" 
d="M53 539v72q0 71 65 93q84 28 211 28q284 0 284 -171v-10q0 -119 -104 -172l-63 -33q-40 -22 -51.5 -36t-11.5 -40v-7q0 -26 -13 -33t-59 -7t-59 7t-13 33v13q0 50 20 83t70 59l65 34q46 23 59.5 40t13.5 47v6q0 38 -35 56t-119 18q-62 0 -122 -17v-63q0 -23 -13 -31
t-56 -8t-56 8t-13 31zM299 156h21q38 0 56.5 -17t18.5 -64t-12.5 -64t-46.5 -17h-52q-35 0 -47.5 17t-12.5 64q0 46 19 63.5t56 17.5z" />
    <glyph glyph-name="at" unicode="@" horiz-adv-x="1039" 
d="M432 196v-4q0 -55 92 -55q101 0 101 56t-101 56q-92 0 -92 -53zM42 247v42q0 233 123.5 338t373.5 105q246 0 353 -95t107 -294v-14q0 -153 -51 -219t-157 -66q-104 0 -144 57h-16q-42 -57 -142 -57q-85 0 -136 39.5t-51 101.5v12q0 64 47.5 103t138.5 39q77 0 117 -37
h17v28q0 45 -23.5 61.5t-92.5 16.5q-59 0 -128 -20q-17 -5 -26.5 3t-17.5 36q-7 30 -3.5 41t19.5 17q65 26 176 26q119 0 173 -42t54 -128v-134q0 -38 13 -51t45 -13q37 0 52 36t15 139v23q0 75 -15.5 128t-53.5 93.5t-106 60t-169 19.5q-200 0 -285.5 -84t-85.5 -280v-23
q0 -177 82 -252.5t268 -75.5q87 0 157 18q16 4 23.5 -2.5t14.5 -32.5q7 -29 4 -37t-18 -13q-78 -25 -198 -25q-228 0 -341 100.5t-113 311.5z" />
    <glyph glyph-name="A" unicode="A" horiz-adv-x="894" 
d="M406 726h76q38 0 54 -13t33 -52l236 -549h34q20 0 26.5 -11t6.5 -45t-6.5 -45t-26.5 -11h-264q-21 0 -27 10.5t-6 45.5t6 45.5t27 10.5h64l-44 111h-311l-44 -111h67q21 0 27 -10.5t6 -45.5t-6 -45.5t-27 -10.5h-250q-20 0 -26.5 11t-6.5 45t6.5 45t26.5 11h30l232 549
q16 38 32 51.5t55 13.5zM449 621h-19q-16 -69 -55 -169l-47 -118h224l-68 179q-11 28 -35 108z" />
    <glyph glyph-name="B" unicode="B" horiz-adv-x="761" 
d="M80 720h306q310 0 310 -185v-7q0 -123 -119 -145v-15q75 -16 108.5 -56t33.5 -111v-9q0 -204 -278 -204q-109 0 -154 52h-19q-3 -23 -16 -31.5t-48 -8.5h-127q-20 0 -26.5 11t-6.5 45t6.5 45t26.5 11h43v496h-40q-20 0 -26.5 11t-6.5 45t6.5 45t26.5 11zM268 314v-190
q63 -21 145 -21q85 0 119 24t34 80v5q0 51 -36.5 76.5t-128.5 25.5h-133zM268 608v-187h107q96 0 132 22t36 69v5q0 47 -36 69t-131 22h-108z" />
    <glyph glyph-name="C" unicode="C" horiz-adv-x="740" 
d="M50 346v33q0 169 94 261t282 92q104 0 188 -27q43 -14 57.5 -32.5t14.5 -57.5v-88q0 -25 -13.5 -32t-58.5 -7q-44 0 -59 7.5t-15 30.5v70q-62 16 -126 16q-114 0 -162.5 -59t-48.5 -175v-21q0 -130 59.5 -187t196.5 -57q80 0 159 17q23 5 33.5 -3.5t18.5 -43.5
q8 -39 4.5 -51.5t-23.5 -17.5q-99 -26 -213 -26q-198 0 -293 88t-95 270z" />
    <glyph glyph-name="D" unicode="D" horiz-adv-x="811" 
d="M80 720h294q387 0 387 -338v-33q0 -174 -101 -261.5t-280 -87.5h-303q-20 0 -26.5 11t-6.5 45t6.5 45t26.5 11h43v496h-40q-20 0 -26.5 11t-6.5 45t6.5 45t26.5 11zM268 608v-496h121q113 0 166 58.5t53 180.5v17q0 240 -247 240h-93z" />
    <glyph glyph-name="E" unicode="E" horiz-adv-x="756" 
d="M80 720h560q40 0 53.5 -11.5t13.5 -46.5v-109q0 -25 -13.5 -33t-52.5 -8q-41 0 -53.5 8t-12.5 33v55h-307v-188h176v19q0 25 12.5 32t51.5 7q40 0 52 -7t12 -32v-152q0 -24 -12.5 -31t-51.5 -7q-40 0 -52 7t-12 31v23h-176v-198h312v60q0 24 13.5 32t53.5 8t52.5 -7.5
t12.5 -32.5v-114q0 -35 -13 -46.5t-53 -11.5h-569q-20 0 -26.5 11t-6.5 45t6.5 45t26.5 11h43v496h-40q-20 0 -26.5 11t-6.5 45t6.5 45t26.5 11z" />
    <glyph glyph-name="F" unicode="F" horiz-adv-x="737" 
d="M79 720h560q40 0 53.5 -11.5t13.5 -46.5v-114q0 -25 -13.5 -33t-52.5 -8q-41 0 -53.5 8t-12.5 33v60h-306v-203h180v18q0 24 13 31t52 7q40 0 52 -7t12 -31v-152q0 -25 -13 -32t-52 -7q-40 0 -52 7t-12 32v21h-180v-180h81q21 0 27 -10.5t6 -45.5t-6 -45.5t-27 -10.5
h-272q-20 0 -26.5 11t-6.5 45t6.5 45t26.5 11h43v496h-41q-20 0 -26.5 11t-6.5 45t6.5 45t26.5 11z" />
    <glyph glyph-name="G" unicode="G" horiz-adv-x="817" 
d="M50 338v32q0 171 100 266.5t300 95.5q109 0 201 -28q47 -15 63.5 -34.5t16.5 -55.5v-65q0 -25 -14 -32t-59 -7q-44 0 -58.5 7t-14.5 31v48q-70 17 -146 17q-236 0 -236 -244v-18q0 -127 55 -184t187 -57q81 0 146 17v157h-155q-23 0 -30 11t-7 46q0 34 7 45.5t30 11.5
h240q37 0 49 -10.5t12 -42.5v-312q0 -22 -14 -29.5t-53 -7.5q-36 0 -50.5 8.5t-18.5 34.5h-18q-57 -51 -177 -51q-173 0 -264.5 91t-91.5 259z" />
    <glyph glyph-name="H" unicode="H" horiz-adv-x="885" 
d="M80 720h224q21 0 27 -10.5t6 -45.5t-6 -45.5t-27 -10.5h-37v-181h353v181h-39q-20 0 -26.5 11t-6.5 45t6.5 45t26.5 11h224q21 0 27 -10.5t6 -45.5t-6 -45.5t-27 -10.5h-37v-496h40q21 0 27 -10.5t6 -45.5t-6 -45.5t-27 -10.5h-230q-20 0 -26.5 11t-6.5 45t6.5 45
t26.5 11h42v201h-353v-201h40q21 0 27 -10.5t6 -45.5t-6 -45.5t-27 -10.5h-230q-20 0 -26.5 11t-6.5 45t6.5 45t26.5 11h42v496h-39q-20 0 -26.5 11t-6.5 45t6.5 45t26.5 11z" />
    <glyph glyph-name="I" unicode="I" horiz-adv-x="388" 
d="M80 720h228q21 0 27 -10.5t6 -45.5t-6 -45.5t-27 -10.5h-40v-496h43q21 0 27 -10.5t6 -45.5t-6 -45.5t-27 -10.5h-234q-20 0 -26.5 11t-6.5 45t6.5 45t26.5 11h43v496h-40q-20 0 -26.5 11t-6.5 45t6.5 45t26.5 11z" />
    <glyph glyph-name="J" unicode="J" horiz-adv-x="546" 
d="M216 720h267q21 0 27 -10.5t6 -45.5t-6 -45.5t-27 -10.5h-30v-366q0 -136 -53.5 -195t-193.5 -59q-85 0 -152 26q-18 7 -19 23.5t8 40.5q10 32 21 42t32 3q51 -17 106 -17q58 0 80.5 25t22.5 89v388h-89q-20 0 -26.5 11t-6.5 45t6.5 45t26.5 11z" />
    <glyph glyph-name="K" unicode="K" horiz-adv-x="800" 
d="M80 720h224q21 0 27 -10.5t6 -45.5t-6 -45.5t-27 -10.5h-36v-190h123l138 190h-44q-20 0 -26.5 11t-6.5 45t6.5 45t26.5 11h247q21 0 27 -10.5t6 -45.5t-6 -45.5t-27 -10.5h-49l-172 -229l190 -267h36q21 0 27 -10.5t6 -45.5t-6 -45.5t-27 -10.5h-82q-38 0 -57 11.5
t-41 42.5l-170 250h-119v-192h47q21 0 27 -10.5t6 -45.5t-6 -45.5t-27 -10.5h-238q-20 0 -26.5 11t-6.5 45t6.5 45t26.5 11h43v496h-40q-20 0 -26.5 11t-6.5 45t6.5 45t26.5 11z" />
    <glyph glyph-name="L" unicode="L" horiz-adv-x="696" 
d="M80 720h248q21 0 27 -10.5t6 -45.5t-6 -45.5t-27 -10.5h-60v-496h276v68q0 25 13 32.5t54 7.5q40 0 52.5 -7.5t12.5 -32.5v-122q0 -35 -13 -46.5t-53 -11.5h-533q-20 0 -26.5 11t-6.5 45t6.5 45t26.5 11h43v496h-40q-20 0 -26.5 11t-6.5 45t6.5 45t26.5 11z" />
    <glyph glyph-name="M" unicode="M" horiz-adv-x="1088" 
d="M120 720h211q42 0 60 -10t24 -36l102 -386q11 -45 24 -116h18q9 75 20 115l94 387q5 26 23.5 36t60.5 10h214q20 0 26.5 -11t6.5 -45t-6.5 -45t-26.5 -11h-39l42 -496h43q21 0 27 -10.5t6 -45.5t-6 -45.5t-27 -10.5h-236q-20 0 -26.5 11t-6.5 45t6.5 45t26.5 11h43
l-30 505h-18q-4 -50 -18 -107l-98 -387q-7 -31 -24.5 -42t-55.5 -11h-75q-38 0 -55 10.5t-25 41.5l-109 393q-14 50 -17 102h-19l-32 -505h51q21 0 27 -10.5t6 -45.5t-6 -45.5t-27 -10.5h-228q-20 0 -26.5 11t-6.5 45t6.5 45t26.5 11h42l45 496h-39q-20 0 -26.5 11t-6.5 45
t7 45t27 11z" />
    <glyph glyph-name="N" unicode="N" horiz-adv-x="886" 
d="M80 720h209q35 0 53.5 -10.5t31.5 -36.5l206 -398q38 -74 65 -173h18v506h-49q-21 0 -27 10.5t-6 45.5t6 45.5t27 10.5h217q20 0 26.5 -11t6.5 -45t-6.5 -45t-26.5 -11h-40v-572q0 -22 -13 -32t-45 -10h-107q-34 0 -54.5 11t-33.5 37l-214 411q-34 63 -58 163h-18v-504
h52q21 0 27 -10.5t6 -45.5t-6 -45.5t-27 -10.5h-223q-20 0 -26.5 11t-6.5 45t6.5 45t26.5 11h43v496h-40q-20 0 -26.5 11t-6.5 45t6.5 45t26.5 11z" />
    <glyph glyph-name="O" unicode="O" horiz-adv-x="816" 
d="M203 370v-21q0 -247 205 -247t205 247v21q0 248 -205 248t-205 -248zM50 340v38q0 173 93.5 263.5t265.5 90.5q170 0 263.5 -90.5t93.5 -263.5v-38q0 -173 -93.5 -262.5t-264.5 -89.5t-264.5 89.5t-93.5 262.5z" />
    <glyph glyph-name="P" unicode="P" horiz-adv-x="724" 
d="M268 608v-234q51 -10 127 -10q81 0 116.5 29t35.5 92v5q0 59 -46.5 88.5t-150.5 29.5h-82zM80 720h284q336 0 336 -222v-20q0 -227 -289 -227q-68 0 -124 32h-19v-171h75q21 0 27 -10.5t6 -45.5t-6 -45.5t-27 -10.5h-266q-20 0 -26.5 11t-6.5 45t6.5 45t26.5 11h43v496
h-40q-20 0 -26.5 11t-6.5 45t6.5 45t26.5 11z" />
    <glyph glyph-name="Q" unicode="Q" horiz-adv-x="840" 
d="M50 340v38q0 173 93.5 263.5t265.5 90.5q170 0 263.5 -90.5t93.5 -263.5v-38q0 -211 -138 -298l46 -57q22 -28 43.5 -38.5t55.5 -10.5q33 0 63 8q21 5 30.5 -3t18.5 -38q9 -29 6 -39.5t-22 -18.5q-51 -19 -121 -19q-64 0 -108.5 21t-82.5 69l-62 79q-38 -7 -87 -7
q-171 0 -264.5 89.5t-93.5 262.5zM203 370v-21q0 -247 205 -247t205 247v21q0 248 -205 248t-205 -248z" />
    <glyph glyph-name="R" unicode="R" horiz-adv-x="766" 
d="M268 604v-222h120q86 0 120 26t34 83v4q0 57 -40 83t-141 26h-93zM120 608h-40q-20 0 -26.5 11t-6.5 45t6.5 45t26.5 11q297 0 313 -1q155 -8 227 -62t72 -155v-14q0 -143 -133 -190l107 -186h37q21 0 27 -10.5t6 -45.5t-6 -45.5t-27 -10.5h-45q-66 0 -91.5 11t-46.5 52
l-109 209h-143v-160h57q21 0 27 -10.5t6 -45.5t-6 -45.5t-27 -10.5h-248q-20 0 -26.5 11t-6.5 45t6.5 45t26.5 11h43v496z" />
    <glyph glyph-name="S" unicode="S" horiz-adv-x="742" 
d="M65 510v6q0 115 76 165.5t238 50.5q123 0 209 -31q40 -15 55.5 -34t15.5 -55v-55q0 -24 -13.5 -31t-57.5 -7q-43 0 -58 7t-15 30v46q-62 18 -144 18q-91 0 -125 -22t-34 -70q0 -27 9.5 -41t44 -26t102.5 -20l69 -8q131 -15 188 -66.5t57 -143.5v-8q0 -60 -15.5 -100.5
t-53 -70t-103 -43t-164.5 -13.5q-136 0 -217 27q-38 14 -53.5 37t-15.5 67v63q0 24 14 31.5t58 7.5t58 -8t14 -30v-65q81 -17 169 -17q89 0 124.5 24.5t35.5 74.5q0 47 -33 69.5t-134 34.5l-83 10q-218 27 -218 196z" />
    <glyph glyph-name="T" unicode="T" horiz-adv-x="770" 
d="M89 720h593q40 0 53 -11.5t13 -46.5v-107q0 -24 -14.5 -32t-54.5 -8q-41 0 -55 8t-14 32v51h-151v-494h78q21 0 27 -10.5t6 -45.5t-6 -45.5t-27 -10.5h-303q-20 0 -26.5 11t-6.5 45t6.5 45t26.5 11h77v494h-151v-51q0 -24 -14 -32t-55 -8q-40 0 -54.5 8t-14.5 32v107
q0 35 13.5 46.5t53.5 11.5z" />
    <glyph glyph-name="U" unicode="U" horiz-adv-x="821" 
d="M61 720h240q21 0 27 -10.5t6 -45.5t-6 -45.5t-27 -10.5h-58v-319q0 -98 43 -142.5t133 -44.5q88 0 130 43t42 135v328h-54q-20 0 -26.5 11t-6.5 45t6.5 45t26.5 11h225q21 0 27 -10.5t6 -45.5t-6 -45.5t-27 -10.5h-32v-319q0 -156 -81 -228.5t-240 -72.5
q-149 0 -231.5 70t-82.5 218v332h-32q-20 0 -27.5 11t-7.5 45t6.5 45t26.5 11z" />
    <glyph glyph-name="V" unicode="V" horiz-adv-x="856" 
d="M41 720h280q21 0 27 -10.5t6 -45.5t-6 -45.5t-27 -10.5h-77l137 -350q32 -83 50 -158h19q19 78 49 158l135 350h-82q-21 0 -27 10.5t-6 45.5t6 45.5t27 10.5h263q20 0 26.5 -11t6.5 -45t-6.5 -45t-26.5 -11h-39l-216 -560q-12 -32 -28 -43t-53 -11h-93q-36 0 -51.5 10.5
t-28.5 42.5l-225 561h-40q-20 0 -26.5 11t-6.5 45t6.5 45t26.5 11z" />
    <glyph glyph-name="W" unicode="W" horiz-adv-x="1196" 
d="M41 720h254q21 0 27 -10.5t6 -45.5t-6 -45.5t-27 -10.5h-64l92 -350q20 -71 33 -161h19q8 78 27 161l79 340q7 33 24.5 44t57.5 11h85q40 0 58.5 -11t25.5 -44l76 -340q18 -79 28 -161h19q11 89 30 161l91 350h-71q-21 0 -27 10.5t-6 45.5t6 45.5t27 10.5h250
q20 0 26.5 -11t6.5 -45t-6.5 -45t-26.5 -11h-44l-143 -559q-8 -32 -26.5 -43.5t-56.5 -11.5h-94q-39 0 -57.5 11t-24.5 43l-71 352q-19 104 -24 148h-19q-11 -90 -24 -149l-77 -350q-7 -32 -25.5 -43.5t-56.5 -11.5h-101q-38 0 -55.5 11t-26.5 43l-147 560h-41
q-20 0 -26.5 11t-6.5 45t6.5 45t26.5 11z" />
    <glyph glyph-name="X" unicode="X" horiz-adv-x="897" 
d="M109 720h270q21 0 27 -10.5t6 -45.5t-6 -45.5t-27 -10.5h-53l127 -177h19l125 177h-47q-21 0 -27 10.5t-6 45.5t6 45.5t27 10.5h250q20 0 26.5 -11t6.5 -45t-6.5 -45t-26.5 -11h-52l-174 -235l202 -261h50q20 0 26.5 -11t6.5 -45t-6.5 -45t-26.5 -11h-300q-21 0 -27 10.5
t-6 45.5t6 45.5t27 10.5h69l-149 202h-19l-150 -202h63q21 0 27 -10.5t6 -45.5t-6 -45.5t-27 -10.5h-271q-20 0 -26.5 11t-6.5 45t6.5 45t26.5 11h55l197 260l-169 236h-43q-20 0 -26.5 11t-6.5 45t6.5 45t26.5 11z" />
    <glyph glyph-name="Y" unicode="Y" horiz-adv-x="794" 
d="M45 720h263q21 0 27 -10.5t6 -45.5t-6 -45.5t-27 -10.5h-62l106 -163q31 -48 44 -93h19q16 51 43 93l111 163h-61q-21 0 -27 10.5t-6 45.5t6 45.5t27 10.5h239q20 0 26.5 -11t6.5 -45t-6.5 -45t-26.5 -11h-31l-248 -355v-141h78q21 0 27 -10.5t6 -45.5t-6 -45.5
t-27 -10.5h-304q-20 0 -26.5 11t-6.5 45t6.5 45t26.5 11h78v137l-241 359h-34q-20 0 -26.5 11t-6.5 45t6.5 45t26.5 11z" />
    <glyph glyph-name="Z" unicode="Z" horiz-adv-x="700" 
d="M100 720h491q37 0 48.5 -8t11.5 -33v-45q0 -37 -36 -78l-308 -348q-47 -52 -100 -83v-15h325v62q0 23 14 30t54 7t54 -7t14 -30v-128q0 -26 -12 -35t-48 -9h-516q-37 0 -48.5 8t-11.5 33v43q0 23 7.5 38.5t28.5 39.5l323 356q41 45 101 79v13h-315v-50q0 -23 -14 -30
t-54 -7t-54 7t-14 30v116q0 26 11.5 35t47.5 9z" />
    <glyph glyph-name="bracketleft" unicode="[" horiz-adv-x="417" 
d="M165 845h184q19 0 24.5 -9.5t5.5 -40.5q0 -30 -5.5 -40t-24.5 -10h-136v-844h130q19 0 24.5 -10t5.5 -40t-5.5 -40t-24.5 -10h-178q-46 0 -62.5 11.5t-16.5 46.5v928q0 34 16.5 46t62.5 12z" />
    <glyph glyph-name="backslash" unicode="\" horiz-adv-x="652" 
d="M172 738l469 -879q9 -17 -2 -23.5t-48 -6.5q-64 0 -77 23l-468 879q-9 16 2.5 23.5t46.5 7.5q38 0 54 -5.5t23 -18.5z" />
    <glyph glyph-name="bracketright" unicode="]" horiz-adv-x="414" 
d="M68 845h182q46 0 62 -12t16 -46v-928q0 -35 -16 -46.5t-62 -11.5h-180q-19 0 -24.5 9.5t-5.5 40.5t5.5 40.5t24.5 9.5h131v844h-133q-19 0 -24.5 10t-5.5 40q0 31 5.5 40.5t24.5 9.5z" />
    <glyph glyph-name="asciicircum" unicode="^" horiz-adv-x="736" 
d="M345 726h53q24 0 38.5 -8.5t30.5 -30.5l182 -252q12 -18 6.5 -30.5t-34.5 -33.5t-42.5 -22.5t-27.5 15.5l-176 238h-13l-177 -243q-11 -15 -25 -12.5t-43 25.5q-30 24 -36 36.5t6 29.5l186 247q29 41 72 41z" />
    <glyph glyph-name="underscore" unicode="_" horiz-adv-x="582" 
d="M39 -120h504q19 0 25 -10t6 -42q0 -31 -6 -41.5t-25 -10.5h-504q-19 0 -25 10.5t-6 41.5q0 32 6 42t25 10z" />
    <glyph glyph-name="grave" unicode="`" 
d="M283 684l109 -116q14 -15 -15 -22q-15 -4 -39 -4q-65 0 -93 26l-127 116q-21 18 15 26q16 4 43 4q80 0 107 -30z" />
    <glyph glyph-name="a" unicode="a" horiz-adv-x="617" 
d="M34 141v13q0 71 53 113.5t155 42.5q88 0 129 -40h18v32q0 50 -27.5 69.5t-103.5 19.5q-74 0 -140 -22q-36 -12 -48 41q-8 28 -5 41.5t22 20.5q77 30 195 30q134 0 191.5 -47.5t57.5 -139.5v-183q0 -13 5 -18t19 -5h9q20 0 26.5 -10t6.5 -44t-6.5 -44.5t-26.5 -10.5h-46
q-78 0 -106 46h-18q-41 -58 -154 -58q-93 0 -149.5 42t-56.5 111zM175 153v-4q0 -62 104 -62q56 0 85 17t29 47q0 63 -114 63q-104 0 -104 -61z" />
    <glyph glyph-name="b" unicode="b" horiz-adv-x="660" 
d="M232 269v-51q0 -61 26.5 -90t89.5 -29q59 0 92.5 38t33.5 106v8q0 67 -30.5 103t-84.5 36q-127 0 -127 -121zM76 720h90q42 0 56.5 -12.5t14.5 -45.5v-105q0 -66 -21 -137h17q43 82 161 82q106 0 166 -65.5t60 -177.5v-24q0 -108 -60 -177.5t-177 -69.5q-103 0 -144 59
h-18q-1 -33 -14 -43.5t-52 -10.5q-35 0 -48 7t-13 28v561q0 12 -4 15.5t-14 3.5h-20q-20 0 -27 10t-7 35q0 37 11.5 52t42.5 15z" />
    <glyph glyph-name="c" unicode="c" horiz-adv-x="561" 
d="M40 235v25q0 118 74 180t214 62q72 0 132 -19q33 -10 48 -28.5t15 -47.5v-45q0 -31 -12 -40t-53 -9q-40 0 -52.5 7t-12.5 30v34q-31 9 -70 9q-137 0 -137 -140v-11q0 -73 37.5 -108t117.5 -35q75 0 123 12q24 6 34.5 -1t18.5 -40q7 -29 3 -43t-22 -19q-67 -20 -170 -20
q-147 0 -217.5 61t-70.5 186z" />
    <glyph glyph-name="d" unicode="d" horiz-adv-x="669" 
d="M186 244v-8q0 -60 29 -98.5t92 -38.5q58 0 89.5 29.5t31.5 84.5v51q0 65 -26.5 96t-89.5 31q-62 0 -94 -40t-32 -107zM405 720h90q42 0 56.5 -12.5t14.5 -45.5v-530q0 -14 5 -18.5t18 -4.5h9q20 0 26.5 -10t6.5 -44t-6.5 -44.5t-26.5 -10.5h-25q-61 0 -89 13.5t-39 45.5
h-19q-16 -32 -55 -51.5t-93 -19.5q-109 0 -173.5 64.5t-64.5 175.5v24q0 115 62 182.5t181 67.5q92 0 133 -67h18q-11 42 -11 86v68q0 12 -4 15.5t-14 3.5h-20q-20 0 -27 10t-7 35q0 37 11.5 52t42.5 15z" />
    <glyph glyph-name="e" unicode="e" horiz-adv-x="590" 
d="M40 233v26q0 117 70.5 180t193.5 63q125 0 182.5 -57t57.5 -171v-19q0 -30 -16.5 -41t-57.5 -11h-284q2 -55 38 -79.5t117 -24.5q67 0 129 15q23 6 33.5 -1t19.5 -39q9 -33 5 -44.5t-25 -18.5q-75 -23 -176 -23q-146 0 -216.5 60t-70.5 185zM186 297h222q0 99 -107 99
q-115 0 -115 -99z" />
    <glyph glyph-name="f" unicode="f" horiz-adv-x="434" 
d="M53 490h60v32q0 108 51.5 159t168.5 51q78 0 131 -25q16 -8 18.5 -19.5t-5.5 -39.5q-11 -35 -20 -43.5t-32 -1.5q-45 15 -90 15q-42 0 -60.5 -19t-18.5 -67v-42h117q22 0 28.5 -10.5t6.5 -44.5q0 -35 -6.5 -45t-28.5 -10h-117v-268h70q20 0 26.5 -11t6.5 -45t-6.5 -45
t-26.5 -11h-262q-20 0 -26.5 11t-6.5 45t6.5 45t26.5 11h49v268h-60q-22 0 -28.5 10t-6.5 45q0 34 6.5 44.5t28.5 10.5z" />
    <glyph glyph-name="g" unicode="g" horiz-adv-x="628" 
d="M165 -74v-3q0 -36 36.5 -51.5t115.5 -15.5t115.5 15.5t36.5 51.5v3q0 34 -36 50t-116 16t-116 -16t-36 -50zM213 329v-5q0 -73 97 -73q98 0 98 73v5q0 74 -98 74q-97 0 -97 -74zM81 322v10q0 83 62 126.5t169 43.5q72 0 125 -21q37 52 120 52q33 0 52 -8q15 -6 18.5 -17
t-0.5 -33q-5 -26 -11 -33.5t-19 -7.5q-6 0 -17.5 1t-16.5 1q-32 0 -46 -17q23 -37 23 -87v-10q0 -170 -230 -170q-65 0 -110 15q-14 -17 -14 -41q0 -30 21 -44q57 9 117 9q280 0 282 -168v-6q0 -80 -68.5 -120t-219.5 -40t-220.5 40t-69.5 120v6q0 82 67 118v13
q-41 25 -41 78q0 59 53 96q-26 36 -26 94z" />
    <glyph glyph-name="h" unicode="h" horiz-adv-x="701" 
d="M88 720h90q42 0 56.5 -12.5t14.5 -45.5v-105q0 -66 -21 -137h18q38 82 158 82q207 0 207 -246v-144h45q20 0 26.5 -11t6.5 -45t-6.5 -45t-26.5 -11h-227q-20 0 -26.5 11t-6.5 45t6.5 45t26.5 11h39v124q0 81 -19 117.5t-78 36.5q-122 0 -122 -116v-162h40q20 0 26.5 -11
t6.5 -45t-6.5 -45t-26.5 -11h-222q-20 0 -26.5 11t-6.5 45t6.5 45t26.5 11h39v477q0 12 -4 15.5t-14 3.5h-20q-20 0 -27 10t-7 35q0 37 11.5 52t42.5 15z" />
    <glyph glyph-name="i" unicode="i" horiz-adv-x="353" 
d="M88 490h89q42 0 57 -12.5t15 -46.5v-319h45q20 0 26.5 -11t6.5 -45t-6.5 -45t-26.5 -11h-227q-20 0 -26.5 11t-6.5 45t6.5 45t26.5 11h39v247q0 11 -4.5 15t-14.5 4h-19q-20 0 -27 10t-7 35q0 37 11.5 52t42.5 15zM157 738h20q37 0 56.5 -18t19.5 -64q0 -48 -12.5 -65
t-46.5 -17h-53q-35 0 -47.5 17t-12.5 65q0 46 19.5 64t56.5 18z" />
    <glyph glyph-name="j" unicode="j" horiz-adv-x="345" 
d="M185 738h20q37 0 56.5 -18t19.5 -64q0 -48 -12.5 -65t-46.5 -17h-53q-35 0 -47.5 17t-12.5 65q0 46 19.5 64t56.5 18zM119 490h86q42 0 57 -12.5t15 -46.5v-441q0 -125 -41.5 -175.5t-149.5 -50.5q-62 0 -105 17q-19 8 -22 22.5t7 42.5q9 29 19 37.5t29 3.5q32 -8 59 -8
q35 0 48 18t13 67v395q0 11 -4.5 15t-14.5 4h-16q-20 0 -27 10t-7 35q0 37 11.5 52t42.5 15z" />
    <glyph glyph-name="k" unicode="k" horiz-adv-x="662" 
d="M88 720h89q42 0 57 -12.5t15 -46.5v-361h88l57 78h-20q-20 0 -26.5 11t-6.5 45t6.5 45t26.5 11h202q20 0 26.5 -11t6.5 -45t-6.5 -45t-26.5 -11h-36l-81 -110l108 -161h34q20 0 26.5 -11t6.5 -45t-6.5 -45t-26.5 -11h-65q-37 0 -58.5 11.5t-39.5 40.5l-97 153h-92v-88h25
q20 0 26.5 -11t6.5 -45t-6.5 -45t-26.5 -11h-207q-20 0 -26.5 11t-6.5 45t6.5 45t26.5 11h39v477q0 11 -4.5 15t-14.5 4h-19q-20 0 -27 10t-7 35q0 37 11.5 52t42.5 15z" />
    <glyph glyph-name="l" unicode="l" horiz-adv-x="353" 
d="M88 720h89q42 0 57 -12.5t15 -46.5v-549h45q20 0 26.5 -11t6.5 -45t-6.5 -45t-26.5 -11h-227q-20 0 -26.5 11t-6.5 45t6.5 45t26.5 11h39v477q0 11 -4.5 15t-14.5 4h-19q-20 0 -27 10t-7 35q0 37 11.5 52t42.5 15z" />
    <glyph glyph-name="m" unicode="m" horiz-adv-x="1039" 
d="M91 490h67q31 0 44.5 -10.5t18.5 -37.5l3 -22h17q33 82 155 82q118 0 163 -86h17q42 86 167 86q104 0 155.5 -59t51.5 -183v-148h44q20 0 26.5 -11t6.5 -45t-6.5 -45t-26.5 -11h-225q-20 0 -26.5 11t-6.5 45t6.5 45t26.5 11h38v127q0 87 -20.5 119t-74.5 32
q-112 0 -112 -119v-159h37q20 0 26.5 -11t6.5 -45t-6.5 -45t-26.5 -11h-217q-20 0 -26.5 11t-6.5 45t6.5 45t26.5 11h39v127q0 85 -21 118t-75 33q-56 0 -83.5 -28t-27.5 -89v-161h38q20 0 26.5 -11t6.5 -45t-6.5 -45t-26.5 -11h-220q-20 0 -26.5 11t-6.5 45t6.5 45t26.5 11
h39v247q0 11 -4.5 15t-14.5 4h-19q-20 0 -27 10t-7 35q0 37 11.5 52t42.5 15z" />
    <glyph glyph-name="n" unicode="n" horiz-adv-x="703" 
d="M96 490h67q31 0 44.5 -10.5t18.5 -37.5l3 -22h17q22 44 60 63t100 19q212 0 212 -246v-144h45q20 0 26.5 -11t6.5 -45t-6.5 -45t-26.5 -11h-227q-20 0 -26.5 11t-6.5 45t6.5 45t26.5 11h39v130q0 83 -22 115.5t-79 32.5q-117 0 -117 -116v-162h39q20 0 26.5 -11t6.5 -45
t-6.5 -45t-26.5 -11h-221q-20 0 -26.5 11t-6.5 45t6.5 45t26.5 11h39v247q0 11 -4.5 15t-14.5 4h-19q-20 0 -27 10t-7 35q0 37 11.5 52t42.5 15z" />
    <glyph glyph-name="o" unicode="o" horiz-adv-x="616" 
d="M186 250v-11q0 -142 122 -142t122 142v11q0 143 -122 143t-122 -143zM40 232v24q0 120 69.5 183t198.5 63t198.5 -63t69.5 -183v-24q0 -120 -69.5 -182t-198.5 -62t-198.5 62t-69.5 182z" />
    <glyph glyph-name="p" unicode="p" horiz-adv-x="675" 
d="M249 273v-67q0 -52 31 -78.5t87 -26.5q59 0 90.5 37.5t31.5 101.5v8q0 69 -30.5 106.5t-92.5 37.5q-55 0 -86 -31.5t-31 -87.5zM93 490h67q33 0 46 -10.5t17 -37.5l3 -22h18q37 82 159 82q107 0 169.5 -69.5t62.5 -176.5v-23q0 -111 -61 -178t-175 -67q-98 0 -140 63h-18
q13 -48 13 -112v-51h73q20 0 26.5 -11t6.5 -45t-6.5 -45t-26.5 -11h-255q-20 0 -26.5 11t-6.5 45t6.5 45t26.5 11h39v471q0 11 -4.5 15t-14.5 4h-19q-20 0 -27 10t-7 35q0 37 11.5 52t42.5 15z" />
    <glyph glyph-name="q" unicode="q" horiz-adv-x="656" 
d="M40 225v24q0 111 62.5 181.5t172.5 70.5q104 0 148 -65h18l3 25q3 22 15.5 28.5t48.5 6.5q34 0 47 -7t13 -27v-574h39q20 0 26.5 -11t6.5 -45t-6.5 -45t-26.5 -11h-247q-20 0 -26.5 11t-6.5 45t6.5 45t26.5 11h65v65q0 54 15 102h-18q-47 -66 -149 -66q-108 0 -170.5 61
t-62.5 175zM186 241v-8q0 -68 33 -101t91 -33q120 0 120 122v63q0 49 -29 78t-83 29q-64 0 -98 -38.5t-34 -111.5z" />
    <glyph glyph-name="r" unicode="r" horiz-adv-x="497" 
d="M91 490h67q33 0 47 -10t16 -38l3 -38h17q28 98 148 98q40 0 74 -13q17 -6 20 -19.5t-7 -51.5q-9 -33 -22 -42.5t-35 -4.5q-29 8 -53 8q-114 0 -114 -155v-112h56q20 0 26.5 -11t6.5 -45t-6.5 -45t-26.5 -11h-238q-20 0 -26.5 11t-6.5 45t6.5 45t26.5 11h39v247
q0 11 -4.5 15t-14.5 4h-19q-20 0 -27 10t-7 35q0 37 11.5 52t42.5 15z" />
    <glyph glyph-name="s" unicode="s" horiz-adv-x="571" 
d="M54 346v4q0 152 239 152q91 0 163 -22q54 -15 54 -66v-26q0 -26 -12.5 -34.5t-53.5 -8.5q-40 0 -53 7t-13 24v21q-47 10 -91 10q-49 0 -69 -11t-20 -35q0 -21 21.5 -31.5t90.5 -19.5l22 -3q105 -14 152 -47t47 -113v-6q0 -153 -260 -153q-103 0 -174 19q-55 14 -55 66v41
q0 26 12.5 34.5t53.5 8.5q40 0 53 -7t13 -24v-28q58 -13 119 -13q55 0 76 11.5t21 35.5t-22.5 36.5t-97.5 23.5l-28 4q-104 15 -146 49t-42 101z" />
    <glyph glyph-name="t" unicode="t" horiz-adv-x="469" 
d="M41 490h65v112q0 26 13.5 33.5t57.5 7.5t58 -7.5t14 -33.5v-112h137q22 0 28.5 -10t6.5 -45q0 -34 -6.5 -44.5t-28.5 -10.5h-137v-207q0 -41 13.5 -55t50.5 -14q43 0 80 10q18 5 28 -4.5t17 -40.5q7 -33 3 -43t-23 -17q-59 -21 -135 -21q-104 0 -140.5 38.5t-36.5 124.5
v229h-65q-22 0 -28.5 10.5t-6.5 44.5q0 35 6.5 45t28.5 10z" />
    <glyph glyph-name="u" unicode="u" horiz-adv-x="681" 
d="M66 490h89q42 0 57 -12.5t15 -46.5v-200q0 -75 20.5 -103t72.5 -28q118 0 118 118v141q0 11 -4.5 15t-14.5 4h-19q-20 0 -27 10t-7 35q0 37 11.5 52t42.5 15h89q42 0 57 -12.5t15 -46.5v-299q0 -13 5 -18t19 -5h9q20 0 26.5 -10t6.5 -44t-6.5 -44.5t-26.5 -10.5h-42
q-49 0 -75 13.5t-37 46.5h-18q-32 -72 -154 -72q-204 0 -204 223v148q0 11 -4.5 15t-14.5 4h-19q-20 0 -27 10t-7 35q0 37 11.5 52t42.5 15z" />
    <glyph glyph-name="v" unicode="v" horiz-adv-x="640" 
d="M43 490h216q20 0 26.5 -11t6.5 -45t-6.5 -45t-26.5 -11h-39l81 -205q15 -39 20 -77h17q6 40 20 77l79 205h-39q-20 0 -26.5 11t-6.5 45t6.5 45t26.5 11h199q20 0 26.5 -11t6.5 -45t-6.5 -45t-26.5 -11h-25l-128 -333q-11 -30 -26.5 -40.5t-51.5 -10.5h-84q-36 0 -51.5 10
t-27.5 40l-133 334h-27q-20 0 -26.5 11t-6.5 45t6.5 45t26.5 11z" />
    <glyph glyph-name="w" unicode="w" horiz-adv-x="939" 
d="M43 490h206q20 0 26.5 -11t6.5 -45t-6.5 -45t-26.5 -11h-39l57 -204q7 -26 15 -76h17q4 40 13 77l47 206q6 30 23.5 40.5t56.5 10.5h68q39 0 56 -10.5t24 -40.5l50 -208q8 -35 13 -75h17q5 43 14 75l58 205h-50q-20 0 -26.5 11t-6.5 45t6.5 45t26.5 11h207q20 0 26.5 -11
t6.5 -45t-6.5 -45t-26.5 -11h-31l-94 -334q-8 -29 -25.5 -39.5t-54.5 -10.5h-77q-39 0 -56.5 10t-23.5 40l-45 212q-9 41 -11 72h-17q-1 -30 -10 -72l-45 -211q-7 -30 -25 -40.5t-56 -10.5h-80q-37 0 -54 10.5t-26 39.5l-96 334h-26q-20 0 -26.5 11t-6.5 45t6.5 45t26.5 11z
" />
    <glyph glyph-name="x" unicode="x" horiz-adv-x="688" 
d="M71 490h213q20 0 26.5 -10t6.5 -44t-6.5 -44t-26.5 -10h-18l75 -77h17l74 77h-17q-20 0 -26.5 10t-6.5 44t6.5 44t26.5 10h187q20 0 26.5 -10t6.5 -44t-6.5 -44t-26.5 -10h-37l-119 -123l152 -151h39q20 0 26.5 -10t6.5 -44t-6.5 -44t-26.5 -10h-233q-20 0 -26.5 10
t-6.5 44t6.5 44t26.5 10h33l-94 97h-17l-95 -97h34q20 0 26.5 -10t6.5 -44t-6.5 -44t-26.5 -10h-214q-20 0 -26.5 10t-6.5 44t6.5 44t26.5 10h42l139 141l-127 133h-34q-20 0 -26.5 10t-6.5 44t6.5 44t26.5 10z" />
    <glyph glyph-name="y" unicode="y" horiz-adv-x="636" 
d="M43 490h212q20 0 26.5 -11t6.5 -45t-6.5 -45t-26.5 -11h-43l92 -207q16 -36 20 -75h17q6 44 22 87l77 195h-45q-20 0 -26.5 11t-6.5 45t6.5 45t26.5 11h198q20 0 26.5 -11t6.5 -45t-6.5 -45t-26.5 -11h-21l-164 -438q-37 -100 -88 -138t-151 -38q-78 0 -135 22
q-17 7 -20 21t6 43q17 53 53 42q47 -15 96 -15q43 0 65.5 16.5t38.5 59.5l15 41q-35 0 -50.5 8t-27.5 35l-146 341h-21q-20 0 -26.5 11t-6.5 45t6.5 45t26.5 11z" />
    <glyph glyph-name="z" unicode="z" horiz-adv-x="599" 
d="M116 490h366q36 0 47.5 -8.5t11.5 -34.5v-46q0 -38 -34 -67l-213 -177q-38 -30 -80 -44v-15h205v36q0 26 12.5 34.5t53.5 8.5q40 0 53 -7t13 -24v-103q0 -26 -12 -34.5t-48 -8.5h-383q-36 0 -48 8.5t-12 33.5v41q0 23 7.5 37.5t28.5 31.5l220 176q41 31 85 49v15h-201
v-26q0 -26 -12.5 -34.5t-53.5 -8.5q-40 0 -53 7t-13 24v93q0 26 12 34.5t48 8.5z" />
    <glyph glyph-name="braceleft" unicode="{" horiz-adv-x="427" 
d="M357 845h14q19 0 25 -9.5t6 -40.5q0 -30 -6 -40t-25 -10h-17q-62 0 -82.5 -26t-20.5 -107v-104q0 -72 -16 -112t-53 -58v-15q37 -18 53 -56t16 -112v-111q0 -86 22.5 -114.5t88.5 -28.5h13q19 0 24.5 -10t5.5 -40q0 -31 -5.5 -40.5t-24.5 -9.5h-23q-125 0 -176.5 55
t-51.5 181v124q0 63 -13 88t-40 25h-4q-20 0 -26.5 11.5t-6.5 44.5q0 34 6 45t27 11h5q27 0 39.5 22t12.5 77v116q0 130 53 187t180 57z" />
    <glyph glyph-name="bar" unicode="|" horiz-adv-x="415" 
d="M267 820v-993q0 -19 -11 -24t-48 -5q-36 0 -48 5t-12 24v993q0 19 11 24t49 5q36 0 47.5 -5t11.5 -24z" />
    <glyph glyph-name="braceright" unicode="}" horiz-adv-x="429" 
d="M59 845h14q127 0 179 -56.5t52 -186.5v-116q0 -55 13 -77.5t40 -22.5h5q20 0 26.5 -11t6.5 -45q0 -33 -6.5 -44.5t-26.5 -11.5h-4q-28 0 -41 -26.5t-13 -86.5v-124q0 -127 -52 -181.5t-178 -54.5h-22q-19 0 -24.5 9.5t-5.5 40.5q0 30 5.5 40t24.5 10h13q67 0 89.5 28.5
t22.5 114.5v111q0 74 16.5 112t53.5 56v15q-70 34 -70 169v105q0 82 -19 107.5t-82 25.5h-17q-19 0 -25 10t-6 40q0 31 6 40.5t25 9.5z" />
    <glyph glyph-name="asciitilde" unicode="~" horiz-adv-x="728" 
d="M89 361q59 89 170 89q41 0 77 -19.5t66 -39t57 -19.5q58 0 94 56q12 18 26 18.5t39 -16.5q24 -17 29 -28.5t-3 -24.5q-63 -111 -182 -111q-50 0 -111 38.5t-94 38.5q-28 0 -46 -10t-39 -37q-12 -15 -27 -14t-40 21q-24 20 -26.5 31.5t10.5 26.5z" />
    <glyph glyph-name="nbspace" unicode="&#xa0;" horiz-adv-x="200" 
 />
    <glyph glyph-name="exclamdown" unicode="&#xa1;" horiz-adv-x="407" 
d="M272 234l14 -429q1 -22 -15 -30.5t-67 -8.5t-68 8.5t-16 30.5l14 429q1 22 14.5 28.5t55.5 6.5t54.5 -6.5t13.5 -28.5zM193 502h21q37 0 56 -17.5t19 -63.5q0 -47 -12.5 -64t-47.5 -17h-52q-34 0 -46.5 17t-12.5 64q0 46 19 63.5t56 17.5z" />
    <glyph glyph-name="cent" unicode="&#xa2;" horiz-adv-x="703" 
d="M328 497v59q0 19 11 24t47 5t48.5 -5t12.5 -24v-56q46 -4 87 -17q33 -10 48 -28.5t15 -47.5v-45q0 -31 -12 -40t-53 -9q-40 0 -52.5 7t-12.5 30v34q-31 9 -70 9q-137 0 -137 -140v-11q0 -73 37.5 -108t117.5 -35q75 0 123 12q24 6 34.5 -1t18.5 -40q7 -29 3 -43t-22 -19
q-50 -14 -125 -19v-57q0 -19 -10.5 -23.5t-48.5 -4.5q-36 0 -48 5t-12 23v61q-109 13 -161.5 73t-52.5 169v25q0 101 54.5 161t159.5 76z" />
    <glyph glyph-name="sterling" unicode="&#xa3;" horiz-adv-x="706" 
d="M97 406h45v48q0 142 67.5 210t214.5 68q103 0 175 -32q32 -15 44.5 -35.5t12.5 -60.5v-72q0 -23 -13 -29.5t-55 -6.5t-56 7t-14 29v68q-47 15 -104 15q-66 0 -94 -34t-28 -117v-58h191q17 0 22 -9.5t5 -37.5q0 -26 -5.5 -36t-21.5 -10h-191v-97q0 -72 -56 -87v-15h285v58
q0 24 16 32t56 8q42 0 57 -8t15 -32v-114q0 -35 -13.5 -46.5t-53.5 -11.5h-512q-21 0 -27.5 12t-6.5 45q0 34 6.5 45.5t27.5 11.5q30 0 43 15.5t13 53.5v130h-45q-16 0 -22 10.5t-6 35.5q0 27 6 37t22 10z" />
    <glyph glyph-name="currency" unicode="&#xa4;" horiz-adv-x="716" 
d="M138 645l78 -73q58 31 147 31q83 0 140 -28l75 70q16 14 28 10t35 -29q22 -24 25 -36.5t-11 -26.5l-69 -63q30 -51 30 -128v-22q0 -76 -30 -127l69 -62q14 -14 11 -26.5t-25 -37.5q-23 -25 -35 -29t-28 10l-76 70q-56 -29 -139 -29q-90 0 -148 31l-78 -72
q-15 -14 -27 -10t-35 29q-22 25 -25 37.5t11 26.5l73 67q-26 50 -26 122v22q0 72 27 122l-74 69q-14 14 -11 26.5t25 37.5q23 24 35 28t28 -10zM239 365v-9q0 -131 124 -131q122 0 122 131v9q0 132 -122 132q-124 0 -124 -132z" />
    <glyph glyph-name="yen" unicode="&#xa5;" horiz-adv-x="706" 
d="M35 720h250q21 0 27 -10.5t6 -45.5t-6 -45.5t-27 -10.5h-49l79 -150q26 -49 38 -103h19q13 52 40 103l81 150h-48q-21 0 -27 10.5t-6 45.5t6 45.5t27 10.5h226q20 0 26.5 -11t6.5 -45t-6.5 -45t-26.5 -11h-31l-96 -162h60q13 0 17.5 -8.5t4.5 -31.5q0 -22 -4.5 -31
t-17.5 -9h-108l-47 -79h155q13 0 17.5 -8t4.5 -32q0 -21 -4.5 -30t-17.5 -9h-178v-96h74q21 0 27 -10.5t6 -45.5t-6 -45.5t-27 -10.5h-297q-20 0 -26.5 11t-6.5 45t6.5 45t26.5 11h74v96h-174q-23 0 -23 39q0 23 5 31.5t18 8.5h150l-46 79h-104q-13 0 -18 9t-5 31
q0 23 5 31.5t18 8.5h59l-93 162h-34q-20 0 -26.5 11t-6.5 45t6.5 45t26.5 11z" />
    <glyph glyph-name="brokenbar" unicode="&#xa6;" horiz-adv-x="415" 
d="M267 827v-352q0 -19 -11 -24t-48 -5q-36 0 -48 5t-12 24v352q0 19 11.5 24t48.5 5q36 0 47.5 -5t11.5 -24zM267 172v-351q0 -19 -11 -24t-48 -5q-36 0 -48 5t-12 24v351q0 19 11.5 24t48.5 5q36 0 47.5 -5t11.5 -24z" />
    <glyph glyph-name="section" unicode="&#xa7;" horiz-adv-x="684" 
d="M141 555v4q0 173 239 173q90 0 163 -22q53 -16 53 -66v-39q0 -24 -12.5 -32t-52.5 -8q-39 0 -52 5t-13 26v30q-52 11 -92 11q-90 0 -90 -54q0 -30 21 -45t87 -30l36 -8q108 -24 147 -64.5t39 -115.5v-7q0 -47 -25 -84.5t-69 -51.5v-14q38 -36 38 -106v-7
q0 -174 -259 -174q-103 0 -174 20q-27 8 -41 22.5t-14 44.5v48q0 26 13.5 35t54.5 9q36 0 50 -6t14 -25v-38q57 -13 119 -13q96 0 96 60q0 30 -23.5 48t-90.5 35l-53 13q-89 22 -127 61t-38 110v4q0 47 26.5 85t71.5 52v12q-42 31 -42 102zM363 384l-20 4l-78 18
q-38 -28 -38 -75q0 -36 20 -54t88 -37l18 -5l76 -21q45 29 45 82q0 36 -22.5 55.5t-88.5 32.5z" />
    <glyph glyph-name="dieresis" unicode="&#xa8;" 
d="M105 722h20q32 0 48.5 -15.5t16.5 -56.5q0 -42 -11 -56.5t-41 -14.5h-46q-30 0 -41 14.5t-11 56.5q0 40 16.5 56t48.5 16zM374 722h19q33 0 49.5 -15.5t16.5 -56.5q0 -42 -11 -56.5t-41 -14.5h-47q-30 0 -41 14.5t-11 56.5q0 40 16.5 56t49.5 16z" />
    <glyph glyph-name="copyright" unicode="&#xa9;" horiz-adv-x="872" 
d="M155 372v-26q0 -280 282 -280q140 0 210 68t70 212v26q0 143 -69 212.5t-211 69.5q-143 0 -212.5 -69.5t-69.5 -212.5zM60 340v38q0 172 100.5 263t276.5 91q177 0 276 -89.5t99 -264.5v-38q0 -170 -100 -261t-275 -91q-178 0 -277.5 89t-99.5 263zM238 354v20
q0 90 55.5 136.5t160.5 46.5q67 0 110 -20q44 -19 44 -56v-36q0 -22 -11.5 -30t-44.5 -8t-44.5 6.5t-11.5 25.5v23q-25 5 -45 5q-51 0 -73 -24.5t-22 -73.5v-9q0 -53 26.5 -77t85.5 -24q46 0 90 11q21 5 28.5 -1.5t13.5 -33.5q6 -28 3 -37.5t-17 -14.5q-59 -19 -130 -19
q-218 0 -218 190z" />
    <glyph glyph-name="ordfeminine" unicode="&#xaa;" horiz-adv-x="525" 
d="M46 453v6q0 60 44 92.5t115 32.5q68 0 100 -29h16v16q0 35 -21.5 48.5t-80.5 13.5q-53 0 -107 -18q-15 -5 -24 2.5t-16 33.5q-8 29 -5 38t20 15q57 22 155 22q105 0 153 -35t48 -108v-139q0 -20 21 -20h4q15 0 20 -8t5 -35t-5 -35t-23 -8h-22q-45 0 -65 7.5t-32 28.5h-16
q-39 -42 -120 -42q-68 0 -116 31t-48 90zM166 460q0 -43 77 -43q82 0 82 43q0 42 -82 42q-77 0 -77 -42z" />
    <glyph glyph-name="guillemotleft" unicode="&#xab;" horiz-adv-x="663" 
d="M102 340l88 108q15 18 34.5 24t59.5 6q39 0 48.5 -9t-6.5 -30l-144 -185l149 -187q18 -22 8 -32.5t-53 -10.5t-63 6t-36 26l-85 104q-30 39 -30 72v36q0 33 30 72zM364 340l89 108q14 18 33.5 24t60.5 6q39 0 48 -9t-7 -30l-143 -185l148 -187q18 -22 8 -32.5t-52 -10.5
q-44 0 -64 6t-36 26l-85 104q-30 39 -30 72v36q0 33 30 72z" />
    <glyph glyph-name="logicalnot" unicode="&#xac;" horiz-adv-x="698" 
d="M112 465h435q44 0 58.5 -11.5t14.5 -43.5v-205q0 -24 -13 -30.5t-57 -6.5q-43 0 -57.5 7t-14.5 30v148h-366q-21 0 -27.5 11.5t-6.5 44.5t6.5 44.5t27.5 11.5z" />
    <glyph glyph-name="uni00AD" unicode="&#xad;" horiz-adv-x="362" 
d="M68 316h226q21 0 27.5 -10.5t6.5 -44.5q0 -33 -6.5 -44.5t-27.5 -11.5h-226q-21 0 -27.5 11.5t-6.5 44.5q0 34 6.5 44.5t27.5 10.5z" />
    <glyph glyph-name="registered" unicode="&#xae;" horiz-adv-x="872" 
d="M155 372v-26q0 -280 282 -280q140 0 210 68t70 212v26q0 143 -69 212.5t-211 69.5q-143 0 -212.5 -69.5t-69.5 -212.5zM60 340v38q0 172 100.5 263t276.5 91q177 0 276 -89.5t99 -264.5v-38q0 -170 -100 -261t-275 -91q-178 0 -277.5 89t-99.5 263zM402 467v-82h43
q31 0 44 9t13 32q0 24 -15.5 32.5t-57.5 8.5h-27zM269 551h174q92 0 134.5 -32.5t42.5 -84.5v-6q0 -77 -64 -103l46 -77h16q13 0 16.5 -7.5t3.5 -31.5q0 -23 -3.5 -31t-16.5 -8h-56q-47 0 -67 39l-50 95h-43v-56h15q13 0 16.5 -7.5t3.5 -31.5q0 -23 -3.5 -31t-16.5 -8h-150
q-13 0 -16.5 7.5t-3.5 31.5t3 31.5t17 7.5h18v225h-16q-14 0 -17.5 7.5t-3.5 31.5t3.5 31.5t17.5 7.5z" />
    <glyph glyph-name="macron" unicode="&#xaf;" 
d="M124 687h251q21 0 27 -10.5t6 -43.5q0 -32 -6.5 -42.5t-26.5 -10.5h-251q-20 0 -26 10.5t-6 42.5q0 33 6 43.5t26 10.5z" />
    <glyph glyph-name="degree" unicode="&#xb0;" horiz-adv-x="510" 
d="M164 549v-4q0 -99 92 -99q90 0 90 99v4q0 98 -90 98q-92 0 -92 -98zM70 539v15q0 80 51 125.5t135 45.5q85 0 134.5 -44t49.5 -127v-15q0 -83 -49.5 -127t-134.5 -44q-86 0 -136 42.5t-50 128.5z" />
    <glyph glyph-name="plusminus" unicode="&#xb1;" horiz-adv-x="704" 
d="M110 519h174v172q0 22 12.5 28.5t53.5 6.5q42 0 56 -6.5t14 -28.5v-172h174q20 0 26 -10.5t6 -42.5q0 -33 -6 -43.5t-26 -10.5h-174v-171q0 -22 -12.5 -28.5t-54.5 -6.5q-41 0 -55 6.5t-14 28.5v171h-174q-20 0 -26 11t-6 43t6 42.5t26 10.5zM110 107h484q20 0 26 -10.5
t6 -43.5q0 -32 -6 -42.5t-26 -10.5h-484q-20 0 -26 10.5t-6 42.5q0 33 6 43.5t26 10.5z" />
    <glyph glyph-name="twosuperior" unicode="&#xb2;" horiz-adv-x="423" 
d="M43 715v38q0 41 47 56q54 17 112 17q76 0 119 -28t43 -82v-5q0 -72 -59 -111l-27 -18q-56 -37 -104 -46v-12h182q13 0 17 -9t4 -34q0 -24 -4 -33.5t-17 -9.5h-275q-39 0 -39 30v32q0 33 34 56l131 87q44 29 44 59v3q0 20 -13 29t-45 9q-21 0 -46 -7v-21q0 -16 -11 -21.5
t-40 -5.5q-31 0 -42 5.5t-11 21.5z" />
    <glyph glyph-name="threesuperior" unicode="&#xb3;" horiz-adv-x="444" 
d="M55 726v35q0 36 38 48q51 17 122 17q84 0 129 -27t45 -74v-3q0 -59 -54 -77v-12q63 -18 63 -83v-5q0 -55 -48 -84t-140 -29q-66 0 -120 16q-44 14 -44 52v40q0 16 11.5 21t43.5 5q29 0 39.5 -5t10.5 -21v-21q29 -5 63 -5q71 0 71 40v3q0 19 -12.5 29t-51.5 10h-48
q-11 0 -14.5 9t-3.5 30t3.5 29.5t14.5 8.5h39q39 0 52 9t13 28v3q0 32 -72 32q-26 0 -45 -4v-16q0 -15 -11.5 -20.5t-41.5 -5.5q-31 0 -41.5 5.5t-10.5 21.5z" />
    <glyph glyph-name="acute" unicode="&#xb4;" 
d="M117 568l104 116q26 30 107 30q67 0 63 -20q-1 -5 -6 -10l-122 -116q-28 -26 -92 -26q-63 0 -59 18q1 4 5 8z" />
    <glyph glyph-name="mu" unicode="&#xb5;" horiz-adv-x="682" 
d="M64 490h83q42 0 57 -12.5t15 -46.5v-200q0 -71 21 -101t85 -30q54 0 84 29.5t30 88.5v141q0 11 -4.5 15t-14.5 4h-13q-20 0 -27 10t-7 35q0 37 11.5 52t42.5 15h83q42 0 57 -12.5t15 -46.5v-299q0 -13 5 -18t19 -5h9q20 0 26.5 -10t6.5 -44t-6.5 -44.5t-26.5 -10.5h-42
q-50 0 -75.5 13t-37.5 41h-18q-38 -66 -126 -66q-78 0 -107 38h-17q27 -63 27 -140v-80q0 -23 -13.5 -29t-56.5 -6t-58 6.5t-15 28.5v421v132q0 11 -4.5 15t-14.5 4h-13q-20 0 -27 10t-7 35q0 37 11.5 52t42.5 15z" />
    <glyph glyph-name="mu" unicode="&#x3bc;" horiz-adv-x="682" 
d="M64 490h83q42 0 57 -12.5t15 -46.5v-200q0 -71 21 -101t85 -30q54 0 84 29.5t30 88.5v141q0 11 -4.5 15t-14.5 4h-13q-20 0 -27 10t-7 35q0 37 11.5 52t42.5 15h83q42 0 57 -12.5t15 -46.5v-299q0 -13 5 -18t19 -5h9q20 0 26.5 -10t6.5 -44t-6.5 -44.5t-26.5 -10.5h-42
q-50 0 -75.5 13t-37.5 41h-18q-38 -66 -126 -66q-78 0 -107 38h-17q27 -63 27 -140v-80q0 -23 -13.5 -29t-56.5 -6t-58 6.5t-15 28.5v421v132q0 11 -4.5 15t-14.5 4h-13q-20 0 -27 10t-7 35q0 37 11.5 52t42.5 15z" />
    <glyph glyph-name="paragraph" unicode="&#xb6;" horiz-adv-x="691" 
d="M30 538v9q0 82 59.5 127.5t180.5 45.5h364q15 0 19 -7t4 -31q0 -25 -4 -32.5t-19 -7.5h-59v-736q0 -16 -8.5 -20t-37.5 -4q-28 0 -37 4t-9 20v736h-82v-736q0 -16 -8 -20t-37 -4q-28 0 -37.5 4t-9.5 20v501h-15q-34 -32 -104 -32q-76 0 -118 42t-42 121z" />
    <glyph glyph-name="periodcentered" unicode="&#xb7;" horiz-adv-x="299" 
d="M139 402h21q37 0 56 -17.5t19 -63.5q0 -47 -12.5 -64t-46.5 -17h-52q-35 0 -47.5 17t-12.5 64q0 45 19 63t56 18z" />
    <glyph glyph-name="cedilla" unicode="&#xb8;" 
d="M181 -74v75q0 16 54 16q52 0 52 -16v-41q80 -9 80 -77v-4q0 -96 -141 -96q-44 0 -78 12q-21 6 -10 43q6 20 12 26t13 4q25 -7 41 -8q59 -4 59 23q0 15 -13 20.5t-44 5.5q-25 0 -25 17z" />
    <glyph glyph-name="onesuperior" unicode="&#xb9;" horiz-adv-x="432" 
d="M49 742l62 56q27 22 67 22h69q23 0 32 -6.5t9 -23.5v-273h63q19 0 19 -39q0 -40 -19 -40h-247q-19 0 -19 40q0 39 19 39h76v127q0 54 12 98h-12l-68 -67q-17 -17 -50 18q-31 32 -13 49z" />
    <glyph glyph-name="ordmasculine" unicode="&#xba;" horiz-adv-x="521" 
d="M175 532v-7q0 -100 86 -100q45 0 65 25t20 75v7q0 101 -85 101q-86 0 -86 -101zM50 518v21q0 93 54.5 140t156.5 47t156 -47t54 -140v-21q0 -186 -210 -186q-102 0 -156.5 46.5t-54.5 139.5z" />
    <glyph glyph-name="guillemotright" unicode="&#xbb;" horiz-adv-x="661" 
d="M216 442l81 -100q30 -39 30 -72v-36q0 -33 -30 -72l-92 -111q-14 -17 -34 -23.5t-60 -6.5t-49.5 9t7.5 30l147 188l-145 183q-18 22 -7.5 32.5t52.5 10.5q43 0 63.5 -6.5t36.5 -25.5zM478 442l81 -100q30 -39 30 -72v-36q0 -34 -30 -72l-92 -111q-14 -17 -34 -23.5
t-60 -6.5q-39 0 -48.5 9t7.5 30l147 188l-145 183q-19 22 -8.5 32.5t52.5 10.5q43 0 63.5 -6.5t36.5 -25.5z" />
    <glyph glyph-name="onequarter" unicode="&#xbc;" horiz-adv-x="1014" 
d="M832 699l-528 -683q-17 -22 -79 -22q-35 0 -45 6t3 25l528 679q17 22 81 22q46 0 46 -15q-1 -5 -6 -12zM39 642l54 48q32 28 107 30h38q22 0 31 -7t9 -23v-273h63q19 0 19 -39q0 -40 -19 -40h-247q-19 0 -19 40q0 39 19 39h76v113q0 68 13 112h-12l-64 -63q-5 -5 -15 -8
q-10 -2 -25.5 8.5t-26.5 30.5q-14 21 -1 32zM594 242l82 112q15 20 30 26.5t48 6.5q66 0 59 -22q-1 -4 -4 -8l-66 -88q-22 -28 -62 -59v-13h110v43q0 18 10 23t43 5t43.5 -5t10.5 -23v-43h39q14 0 17.5 -8t3.5 -33t-4 -34t-17 -9h-39v-38h30q18 0 18 -37q0 -38 -18 -38h-188
q-18 0 -18 38q0 37 18 37h51v38h-185q-24 0 -33 7t-9 24v14q0 44 30 84z" />
    <glyph glyph-name="onehalf" unicode="&#xbd;" horiz-adv-x="1010" 
d="M826 699l-529 -683q-10 -13 -26 -17.5t-53 -4.5q-34 0 -44.5 6t2.5 25l529 679q16 22 80 22q47 0 46 -15q0 -5 -5 -12zM39 642l62 56q27 22 67 22h69q23 0 32 -6.5t9 -23.5v-273h63q19 0 19 -39q0 -40 -19 -40h-247q-19 0 -19 40q0 39 19 39h76v127q0 54 12 98h-12
l-68 -67q-17 -17 -50 18q-31 32 -13 49zM622 277v38q0 41 47 56q54 17 112 17q76 0 119 -28t43 -82v-5q0 -72 -59 -111l-27 -18q-56 -37 -104 -46v-12h182q13 0 17 -9t4 -34q0 -24 -4 -33.5t-17 -9.5h-275q-39 0 -39 30v32q0 33 34 56l131 87q44 29 44 59v3q0 20 -13 29
t-45 9q-22 0 -46 -7v-21q0 -16 -11 -21.5t-40 -5.5q-31 0 -42 5.5t-11 21.5z" />
    <glyph glyph-name="threequarters" unicode="&#xbe;" horiz-adv-x="1023" 
d="M839 699l-529 -683q-15 -22 -79 -22q-34 0 -44.5 6t2.5 25l529 679q16 22 80 22q47 0 46 -15q0 -5 -5 -12zM50 626v35q0 35 39 49q41 16 122 16q76 0 125 -24.5t49 -76.5v-3q0 -58 -55 -77v-12q64 -17 64 -83v-5q0 -55 -48 -84t-140 -29q-79 0 -121 14q-22 8 -32.5 19.5
t-10.5 34.5v40q0 16 11.5 21t42.5 5q30 0 40.5 -5t10.5 -21v-21q29 -5 63 -5q71 0 71 40v3q0 19 -12.5 29t-52.5 10h-47q-19 0 -19 39q0 38 19 38h39q38 0 51 9t13 28v3q0 32 -72 32q-25 0 -45 -4v-16q0 -15 -11 -20.5t-41 -5.5q-31 0 -42 5.5t-11 21.5zM603 242l82 112
q15 20 30 26.5t48 6.5q66 0 59 -22q-1 -4 -4 -8l-66 -88q-22 -28 -62 -59v-13h110v43q0 18 10 23t43 5t43.5 -5t10.5 -23v-43h39q14 0 17.5 -8t3.5 -33t-4 -34t-17 -9h-39v-38h30q18 0 18 -37q0 -38 -18 -38h-188q-18 0 -18 38q0 37 18 37h51v38h-185q-24 0 -33 7t-9 24v14
q0 44 30 84z" />
    <glyph glyph-name="questiondown" unicode="&#xbf;" horiz-adv-x="655" 
d="M334 502h21q37 0 56 -17.5t19 -63.5q0 -47 -12.5 -64t-46.5 -17h-52q-35 0 -47.5 17t-12.5 64q0 46 19 63.5t56 17.5zM146 117l63 33q40 22 51.5 36t11.5 40v7q0 26 13 33t59 7t59 -7t13 -33v-13q0 -50 -20 -83t-70 -59l-65 -34q-46 -23 -59.5 -40t-13.5 -47v-6
q0 -38 35 -56t119 -18q62 0 122 17v63q0 23 13 31t56 8t56 -8t13 -31v-72q0 -71 -65 -93q-84 -28 -211 -28q-284 0 -284 171v10q0 119 104 172z" />
    <glyph glyph-name="Agrave" unicode="&#xc0;" horiz-adv-x="894" 
d="M406 726h76q38 0 54 -13t33 -52l236 -549h34q20 0 26.5 -11t6.5 -45t-6.5 -45t-26.5 -11h-264q-21 0 -27 10.5t-6 45.5t6 45.5t27 10.5h64l-44 111h-311l-44 -111h67q21 0 27 -10.5t6 -45.5t-6 -45.5t-27 -10.5h-250q-20 0 -26.5 11t-6.5 45t6.5 45t26.5 11h30l232 549
q16 38 32 51.5t55 13.5zM449 621h-19q-16 -69 -55 -169l-47 -118h224l-68 179q-11 28 -35 108zM456 913l121 -97q19 -17 -11 -28q-18 -7 -45 -7q-64 0 -100 26l-142 101q-15 11 0 23q16 12 59 12q81 0 118 -30z" />
    <glyph glyph-name="Aacute" unicode="&#xc1;" horiz-adv-x="894" 
d="M406 726h76q38 0 54 -13t33 -52l236 -549h34q20 0 26.5 -11t6.5 -45t-6.5 -45t-26.5 -11h-264q-21 0 -27 10.5t-6 45.5t6 45.5t27 10.5h64l-44 111h-311l-44 -111h67q21 0 27 -10.5t6 -45.5t-6 -45.5t-27 -10.5h-250q-20 0 -26.5 11t-6.5 45t6.5 45t26.5 11h30l232 549
q16 38 32 51.5t55 13.5zM449 621h-19q-16 -69 -55 -169l-47 -118h224l-68 179q-11 28 -35 108zM315 813l117 100q34 30 111 30q54 0 62 -20q4 -8 -6 -15l-134 -101q-36 -26 -97 -26q-54 0 -59 18q-3 7 6 14z" />
    <glyph glyph-name="Acircumflex" unicode="&#xc2;" horiz-adv-x="894" 
d="M406 726h76q38 0 54 -13t33 -52l236 -549h34q20 0 26.5 -11t6.5 -45t-6.5 -45t-26.5 -11h-264q-21 0 -27 10.5t-6 45.5t6 45.5t27 10.5h64l-44 111h-311l-44 -111h67q21 0 27 -10.5t6 -45.5t-6 -45.5t-27 -10.5h-250q-20 0 -26.5 11t-6.5 45t6.5 45t26.5 11h30l232 549
q16 38 32 51.5t55 13.5zM449 621h-19q-16 -69 -55 -169l-47 -118h224l-68 179q-11 28 -35 108zM206 811l127 104q29 25 87 25h28q35 0 53.5 -5.5t36.5 -19.5l131 -103q25 -20 -15 -27q-15 -3 -36 -3q-50 0 -74 5.5t-47 21.5l-65 46l-59 -45q-22 -17 -47 -22.5t-71 -5.5
q-60 0 -57 18q1 5 8 11z" />
    <glyph glyph-name="Atilde" unicode="&#xc3;" horiz-adv-x="894" 
d="M406 726h76q38 0 54 -13t33 -52l236 -549h34q20 0 26.5 -11t6.5 -45t-6.5 -45t-26.5 -11h-264q-21 0 -27 10.5t-6 45.5t6 45.5t27 10.5h64l-44 111h-311l-44 -111h67q21 0 27 -10.5t6 -45.5t-6 -45.5t-27 -10.5h-250q-20 0 -26.5 11t-6.5 45t6.5 45t26.5 11h30l232 549
q16 38 32 51.5t55 13.5zM449 621h-19q-16 -69 -55 -169l-47 -118h224l-68 179q-11 28 -35 108zM215 887q39 86 146 86q39 0 92 -30t71 -30q34 0 56 32q12 17 54 -4q39 -22 31 -45q-33 -90 -140 -90q-37 0 -90.5 29t-74.5 29q-39 0 -63 -33q-14 -20 -56 13q-34 24 -26 43z
" />
    <glyph glyph-name="Adieresis" unicode="&#xc4;" horiz-adv-x="894" 
d="M406 726h76q38 0 54 -13t33 -52l236 -549h34q20 0 26.5 -11t6.5 -45t-6.5 -45t-26.5 -11h-264q-21 0 -27 10.5t-6 45.5t6 45.5t27 10.5h64l-44 111h-311l-44 -111h67q21 0 27 -10.5t6 -45.5t-6 -45.5t-27 -10.5h-250q-20 0 -26.5 11t-6.5 45t6.5 45t26.5 11h30l232 549
q16 38 32 51.5t55 13.5zM449 621h-19q-16 -69 -55 -169l-47 -118h224l-68 179q-11 28 -35 108zM287 958h21q33 0 49.5 -15.5t16.5 -56.5q0 -42 -11 -57t-41 -15h-49q-30 0 -41 15t-11 57q0 40 16.5 56t49.5 16zM573 958h21q33 0 49.5 -15.5t16.5 -56.5q0 -42 -11 -57
t-42 -15h-48q-30 0 -41.5 15t-11.5 57q0 40 17 56t50 16z" />
    <glyph glyph-name="Aring" unicode="&#xc5;" horiz-adv-x="894" 
d="M406 726h76q38 0 54 -13t33 -52l236 -549h34q20 0 26.5 -11t6.5 -45t-6.5 -45t-26.5 -11h-264q-21 0 -27 10.5t-6 45.5t6 45.5t27 10.5h64l-44 111h-311l-44 -111h67q21 0 27 -10.5t6 -45.5t-6 -45.5t-27 -10.5h-250q-20 0 -26.5 11t-6.5 45t6.5 45t26.5 11h30l232 549
q16 38 32 51.5t55 13.5zM449 621h-19q-16 -69 -55 -169l-47 -118h224l-68 179q-11 28 -35 108zM442 964q-28 0 -45 -17t-17 -48q0 -66 62 -66q26 0 42.5 16.5t16.5 49.5q0 31 -16 48t-43 17zM306 894v7q0 60 36.5 91.5t99.5 31.5t97.5 -31.5t34.5 -91.5v-7
q0 -60 -34.5 -90.5t-97.5 -30.5t-99.5 30.5t-36.5 90.5z" />
    <glyph glyph-name="AE" unicode="&#xc6;" horiz-adv-x="1215" 
d="M599 720h500q40 0 53.5 -11.5t13.5 -46.5v-109q0 -25 -13.5 -33t-52.5 -8q-41 0 -53.5 8t-12.5 33v55h-291v-188h160v19q0 25 12.5 32t51.5 7q40 0 52 -7t12 -32v-152q0 -24 -12.5 -31t-51.5 -7q-40 0 -52 7t-12 31v23h-160v-198h296v60q0 24 13.5 32t53.5 8t52.5 -7.5
t12.5 -32.5v-114q0 -35 -13 -46.5t-53 -11.5h-553q-20 0 -26.5 11.5t-6.5 44.5q0 34 6 45t27 11h43v107h-277l-75 -107h67q21 0 27 -11t6 -45q0 -23 -1.5 -34t-13 -16.5t-18 -5.5h-35.5h-230q-20 0 -26.5 11.5t-6.5 44.5q0 34 6 45t27 11h37l386 547q25 36 50.5 48.5
t80.5 12.5zM595 619h-18q-30 -74 -79 -143l-107 -151h204v294z" />
    <glyph glyph-name="Ccedilla" unicode="&#xc7;" horiz-adv-x="740" 
d="M50 346v33q0 169 94 261t282 92q104 0 188 -27q43 -14 57.5 -32.5t14.5 -57.5v-88q0 -25 -13.5 -32t-58.5 -7q-44 0 -59 7.5t-15 30.5v70q-62 16 -126 16q-114 0 -162.5 -59t-48.5 -175v-21q0 -130 59.5 -187t196.5 -57q80 0 159 17q23 5 33.5 -3.5t18.5 -43.5
q8 -37 4.5 -50t-23.5 -19q-84 -23 -182 -25v-29q80 -9 80 -77v-4q0 -96 -141 -96q-44 0 -78 12q-18 7 -10 43q5 20 10.5 26t13.5 4q32 -9 56 -9q45 0 45 24q0 15 -13 20.5t-44 5.5q-25 0 -25 17v66q-159 15 -236 102.5t-77 251.5z" />
    <glyph glyph-name="Egrave" unicode="&#xc8;" horiz-adv-x="756" 
d="M80 720h560q40 0 53.5 -11.5t13.5 -46.5v-109q0 -25 -13.5 -33t-52.5 -8q-41 0 -53.5 8t-12.5 33v55h-307v-188h176v19q0 25 12.5 32t51.5 7q40 0 52 -7t12 -32v-152q0 -24 -12.5 -31t-51.5 -7q-40 0 -52 7t-12 31v23h-176v-198h312v60q0 24 13.5 32t53.5 8t52.5 -7.5
t12.5 -32.5v-114q0 -35 -13 -46.5t-53 -11.5h-569q-20 0 -26.5 11t-6.5 45t6.5 45t26.5 11h43v496h-40q-20 0 -26.5 11t-6.5 45t6.5 45t26.5 11zM382 913l121 -97q19 -17 -11 -28q-18 -7 -45 -7q-64 0 -100 26l-142 101q-15 11 0 23q16 12 59 12q81 0 118 -30z" />
    <glyph glyph-name="Eacute" unicode="&#xc9;" horiz-adv-x="756" 
d="M80 720h560q40 0 53.5 -11.5t13.5 -46.5v-109q0 -25 -13.5 -33t-52.5 -8q-41 0 -53.5 8t-12.5 33v55h-307v-188h176v19q0 25 12.5 32t51.5 7q40 0 52 -7t12 -32v-152q0 -24 -12.5 -31t-51.5 -7q-40 0 -52 7t-12 31v23h-176v-198h312v60q0 24 13.5 32t53.5 8t52.5 -7.5
t12.5 -32.5v-114q0 -35 -13 -46.5t-53 -11.5h-569q-20 0 -26.5 11t-6.5 45t6.5 45t26.5 11h43v496h-40q-20 0 -26.5 11t-6.5 45t6.5 45t26.5 11zM265 813l117 100q34 30 111 30q54 0 62 -20q4 -8 -6 -15l-134 -101q-36 -26 -97 -26q-54 0 -59 18q-3 7 6 14z" />
    <glyph glyph-name="Ecircumflex" unicode="&#xca;" horiz-adv-x="756" 
d="M80 720h560q40 0 53.5 -11.5t13.5 -46.5v-109q0 -25 -13.5 -33t-52.5 -8q-41 0 -53.5 8t-12.5 33v55h-307v-188h176v19q0 25 12.5 32t51.5 7q40 0 52 -7t12 -32v-152q0 -24 -12.5 -31t-51.5 -7q-40 0 -52 7t-12 31v23h-176v-198h312v60q0 24 13.5 32t53.5 8t52.5 -7.5
t12.5 -32.5v-114q0 -35 -13 -46.5t-53 -11.5h-569q-20 0 -26.5 11t-6.5 45t6.5 45t26.5 11h43v496h-40q-20 0 -26.5 11t-6.5 45t6.5 45t26.5 11zM150 811l127 104q29 25 87 25h28q35 0 53.5 -5.5t36.5 -19.5l131 -103q25 -20 -15 -27q-15 -3 -36 -3q-50 0 -74 5.5t-47 21.5
l-65 46l-59 -45q-22 -17 -47 -22.5t-71 -5.5q-60 0 -57 18q1 5 8 11z" />
    <glyph glyph-name="Edieresis" unicode="&#xcb;" horiz-adv-x="756" 
d="M80 720h560q40 0 53.5 -11.5t13.5 -46.5v-109q0 -25 -13.5 -33t-52.5 -8q-41 0 -53.5 8t-12.5 33v55h-307v-188h176v19q0 25 12.5 32t51.5 7q40 0 52 -7t12 -32v-152q0 -24 -12.5 -31t-51.5 -7q-40 0 -52 7t-12 31v23h-176v-198h312v60q0 24 13.5 32t53.5 8t52.5 -7.5
t12.5 -32.5v-114q0 -35 -13 -46.5t-53 -11.5h-569q-20 0 -26.5 11t-6.5 45t6.5 45t26.5 11h43v496h-40q-20 0 -26.5 11t-6.5 45t6.5 45t26.5 11zM223 958h21q33 0 49.5 -15.5t16.5 -56.5q0 -42 -11 -57t-41 -15h-49q-30 0 -41 15t-11 57q0 40 16.5 56t49.5 16zM509 958h21
q33 0 49.5 -15.5t16.5 -56.5q0 -42 -11 -57t-42 -15h-48q-30 0 -41.5 15t-11.5 57q0 40 17 56t50 16z" />
    <glyph glyph-name="Igrave" unicode="&#xcc;" horiz-adv-x="388" 
d="M80 720h228q21 0 27 -10.5t6 -45.5t-6 -45.5t-27 -10.5h-40v-496h43q21 0 27 -10.5t6 -45.5t-6 -45.5t-27 -10.5h-234q-20 0 -26.5 11t-6.5 45t6.5 45t26.5 11h43v496h-40q-20 0 -26.5 11t-6.5 45t6.5 45t26.5 11zM196 913l121 -97q19 -17 -11 -28q-18 -7 -45 -7
q-64 0 -100 26l-142 101q-15 11 0 23q16 12 59 12q81 0 118 -30z" />
    <glyph glyph-name="Iacute" unicode="&#xcd;" horiz-adv-x="388" 
d="M80 720h228q21 0 27 -10.5t6 -45.5t-6 -45.5t-27 -10.5h-40v-496h43q21 0 27 -10.5t6 -45.5t-6 -45.5t-27 -10.5h-234q-20 0 -26.5 11t-6.5 45t6.5 45t26.5 11h43v496h-40q-20 0 -26.5 11t-6.5 45t6.5 45t26.5 11zM76 813l117 100q35 30 111 30q54 0 62 -20q4 -8 -6 -15
l-134 -101q-36 -26 -97 -26q-54 0 -59 18q-3 7 6 14z" />
    <glyph glyph-name="Icircumflex" unicode="&#xce;" horiz-adv-x="388" 
d="M80 720h228q21 0 27 -10.5t6 -45.5t-6 -45.5t-27 -10.5h-40v-496h43q21 0 27 -10.5t6 -45.5t-6 -45.5t-27 -10.5h-234q-20 0 -26.5 11t-6.5 45t6.5 45t26.5 11h43v496h-40q-20 0 -26.5 11t-6.5 45t6.5 45t26.5 11zM-39 811l127 104q29 25 87 25h28q35 0 53.5 -5.5
t36.5 -19.5l131 -103q25 -20 -15 -27q-15 -3 -36 -3q-50 0 -74 5.5t-47 21.5l-65 46l-59 -45q-22 -17 -47 -22.5t-71 -5.5q-60 0 -57 18q1 5 8 11z" />
    <glyph glyph-name="Idieresis" unicode="&#xcf;" horiz-adv-x="388" 
d="M80 720h228q21 0 27 -10.5t6 -45.5t-6 -45.5t-27 -10.5h-40v-496h43q21 0 27 -10.5t6 -45.5t-6 -45.5t-27 -10.5h-234q-20 0 -26.5 11t-6.5 45t6.5 45t26.5 11h43v496h-40q-20 0 -26.5 11t-6.5 45t6.5 45t26.5 11zM41 958h21q33 0 49.5 -15.5t16.5 -56.5q0 -42 -11 -57
t-41 -15h-49q-30 0 -41 15t-11 57q0 40 16.5 56t49.5 16zM327 958h21q33 0 49.5 -15.5t16.5 -56.5q0 -42 -11 -57t-42 -15h-48q-30 0 -41.5 15t-11.5 57q0 40 17 56t50 16z" />
    <glyph glyph-name="Eth" unicode="&#xd0;" horiz-adv-x="813" 
d="M82 720h294q387 0 387 -338v-33q0 -174 -101 -261.5t-280 -87.5h-303q-20 0 -26.5 11t-6.5 45t6.5 45t26.5 11h43v204h-79q-21 0 -27 9.5t-6 42.5q0 34 6 43t27 9h79v188h-40q-20 0 -26.5 11t-6.5 45t6.5 45t26.5 11zM270 608v-188h129q21 0 27.5 -9.5t6.5 -42.5
t-6.5 -42.5t-27.5 -9.5h-129v-204h121q113 0 166 58.5t53 180.5v17q0 240 -247 240h-93z" />
    <glyph glyph-name="Ntilde" unicode="&#xd1;" horiz-adv-x="886" 
d="M80 720h209q35 0 53.5 -10.5t31.5 -36.5l206 -398q38 -74 65 -173h18v506h-49q-21 0 -27 10.5t-6 45.5t6 45.5t27 10.5h217q20 0 26.5 -11t6.5 -45t-6.5 -45t-26.5 -11h-40v-572q0 -22 -13 -32t-45 -10h-107q-34 0 -54.5 11t-33.5 37l-214 411q-34 63 -58 163h-18v-504
h52q21 0 27 -10.5t6 -45.5t-6 -45.5t-27 -10.5h-223q-20 0 -26.5 11t-6.5 45t6.5 45t26.5 11h43v496h-40q-20 0 -26.5 11t-6.5 45t6.5 45t26.5 11zM234 887q39 86 146 86q40 0 92 -30t71 -30q34 0 56 32q12 17 54 -4q39 -22 31 -45q-33 -90 -140 -90q-37 0 -90.5 29
t-74.5 29q-39 0 -63 -33q-14 -20 -56 13q-34 24 -26 43z" />
    <glyph glyph-name="Ograve" unicode="&#xd2;" horiz-adv-x="816" 
d="M203 370v-21q0 -247 205 -247t205 247v21q0 248 -205 248t-205 -248zM50 340v38q0 173 93.5 263.5t265.5 90.5q170 0 263.5 -90.5t93.5 -263.5v-38q0 -173 -93.5 -262.5t-264.5 -89.5t-264.5 89.5t-93.5 262.5zM416 913l121 -97q19 -17 -11 -28q-18 -7 -45 -7
q-64 0 -100 26l-142 101q-15 11 0 23q16 12 59 12q81 0 118 -30z" />
    <glyph glyph-name="Oacute" unicode="&#xd3;" horiz-adv-x="816" 
d="M203 370v-21q0 -247 205 -247t205 247v21q0 248 -205 248t-205 -248zM50 340v38q0 173 93.5 263.5t265.5 90.5q170 0 263.5 -90.5t93.5 -263.5v-38q0 -173 -93.5 -262.5t-264.5 -89.5t-264.5 89.5t-93.5 262.5zM288 813l117 100q35 30 111 30q54 0 62 -20q4 -8 -6 -15
l-134 -101q-36 -26 -97 -26q-54 0 -59 18q-3 7 6 14z" />
    <glyph glyph-name="Ocircumflex" unicode="&#xd4;" horiz-adv-x="816" 
d="M203 370v-21q0 -247 205 -247t205 247v21q0 248 -205 248t-205 -248zM50 340v38q0 173 93.5 263.5t265.5 90.5q170 0 263.5 -90.5t93.5 -263.5v-38q0 -173 -93.5 -262.5t-264.5 -89.5t-264.5 89.5t-93.5 262.5zM173 811l127 104q29 25 87 25h28q35 0 53.5 -5.5
t36.5 -19.5l131 -103q25 -20 -15 -27q-15 -3 -36 -3q-50 0 -74 5.5t-47 21.5l-65 46l-59 -45q-22 -17 -47 -22.5t-71 -5.5q-60 0 -57 18q1 5 8 11z" />
    <glyph glyph-name="Otilde" unicode="&#xd5;" horiz-adv-x="816" 
d="M203 370v-21q0 -247 205 -247t205 247v21q0 248 -205 248t-205 -248zM50 340v38q0 173 93.5 263.5t265.5 90.5q170 0 263.5 -90.5t93.5 -263.5v-38q0 -173 -93.5 -262.5t-264.5 -89.5t-264.5 89.5t-93.5 262.5zM186 887q39 86 146 86q40 0 92 -30t71 -30q34 0 56 32
q12 17 54 -4q39 -22 31 -45q-33 -90 -140 -90q-37 0 -90.5 29t-74.5 29q-39 0 -63 -33q-14 -20 -56 13q-34 24 -26 43z" />
    <glyph glyph-name="Odieresis" unicode="&#xd6;" horiz-adv-x="816" 
d="M203 370v-21q0 -247 205 -247t205 247v21q0 248 -205 248t-205 -248zM50 340v38q0 173 93.5 263.5t265.5 90.5q170 0 263.5 -90.5t93.5 -263.5v-38q0 -173 -93.5 -262.5t-264.5 -89.5t-264.5 89.5t-93.5 262.5zM254 958h21q33 0 49.5 -15.5t16.5 -56.5q0 -42 -11 -57
t-41 -15h-49q-30 0 -41 15t-11 57q0 40 16.5 56t49.5 16zM540 958h21q33 0 49.5 -15.5t16.5 -56.5q0 -42 -11 -57t-42 -15h-48q-30 0 -41.5 15t-11.5 57q0 40 17 56t50 16z" />
    <glyph glyph-name="multiply" unicode="&#xd7;" horiz-adv-x="710" 
d="M202 595l154 -151l157 155q13 13 25.5 9.5t37.5 -27.5q26 -25 29.5 -39t-10.5 -27l-155 -153l161 -162q13 -15 9 -27.5t-30 -39.5q-24 -25 -38 -28.5t-26 10.5l-163 161l-161 -160q-12 -13 -24.5 -10t-37.5 28q-27 25 -30.5 38.5t11.5 26.5l159 158l-154 153
q-14 12 -9.5 27t30.5 40q25 25 38.5 28.5t26.5 -10.5z" />
    <glyph glyph-name="Oslash" unicode="&#xd8;" horiz-adv-x="816" 
d="M50 340v38q0 173 93.5 263.5t265.5 90.5q67 0 129 -16l41 81q6 14 51 14q22 0 38 -5.5t11 -16.5l-56 -110q143 -87 143 -301v-38q0 -173 -93.5 -262.5t-264.5 -89.5q-70 0 -127 15l-52 -103q-6 -14 -50 -14q-28 0 -43 5t-9 16l67 132q-144 85 -144 301zM203 370v-21
q0 -126 53 -188l227 446q-35 11 -75 11q-205 0 -205 -248zM561 556l-225 -445q32 -9 72 -9q205 0 205 247v21q0 124 -52 186z" />
    <glyph glyph-name="Ugrave" unicode="&#xd9;" horiz-adv-x="821" 
d="M61 720h240q21 0 27 -10.5t6 -45.5t-6 -45.5t-27 -10.5h-58v-319q0 -98 43 -142.5t133 -44.5q88 0 130 43t42 135v328h-54q-20 0 -26.5 11t-6.5 45t6.5 45t26.5 11h225q21 0 27 -10.5t6 -45.5t-6 -45.5t-27 -10.5h-32v-319q0 -156 -81 -228.5t-240 -72.5
q-149 0 -231.5 70t-82.5 218v332h-32q-20 0 -27.5 11t-7.5 45t6.5 45t26.5 11zM403 913l121 -97q19 -17 -11 -28q-18 -7 -45 -7q-64 0 -100 26l-142 101q-15 11 0 23q16 12 59 12q81 0 118 -30z" />
    <glyph glyph-name="Uacute" unicode="&#xda;" horiz-adv-x="821" 
d="M61 720h240q21 0 27 -10.5t6 -45.5t-6 -45.5t-27 -10.5h-58v-319q0 -98 43 -142.5t133 -44.5q88 0 130 43t42 135v328h-54q-20 0 -26.5 11t-6.5 45t6.5 45t26.5 11h225q21 0 27 -10.5t6 -45.5t-6 -45.5t-27 -10.5h-32v-319q0 -156 -81 -228.5t-240 -72.5
q-149 0 -231.5 70t-82.5 218v332h-32q-20 0 -27.5 11t-7.5 45t6.5 45t26.5 11zM323 813l117 100q34 30 111 30q54 0 62 -20q4 -8 -6 -15l-134 -101q-36 -26 -97 -26q-54 0 -59 18q-3 7 6 14z" />
    <glyph glyph-name="Ucircumflex" unicode="&#xdb;" horiz-adv-x="821" 
d="M61 720h240q21 0 27 -10.5t6 -45.5t-6 -45.5t-27 -10.5h-58v-319q0 -98 43 -142.5t133 -44.5q88 0 130 43t42 135v328h-54q-20 0 -26.5 11t-6.5 45t6.5 45t26.5 11h225q21 0 27 -10.5t6 -45.5t-6 -45.5t-27 -10.5h-32v-319q0 -156 -81 -228.5t-240 -72.5
q-149 0 -231.5 70t-82.5 218v332h-32q-20 0 -27.5 11t-7.5 45t6.5 45t26.5 11zM180 811l127 104q29 25 87 25h28q35 0 53.5 -5.5t36.5 -19.5l131 -103q25 -20 -15 -27q-15 -3 -36 -3q-50 0 -74 5.5t-47 21.5l-65 46l-59 -45q-22 -17 -47 -22.5t-71 -5.5q-60 0 -57 18
q1 5 8 11z" />
    <glyph glyph-name="Udieresis" unicode="&#xdc;" horiz-adv-x="821" 
d="M61 720h240q21 0 27 -10.5t6 -45.5t-6 -45.5t-27 -10.5h-58v-319q0 -98 43 -142.5t133 -44.5q88 0 130 43t42 135v328h-54q-20 0 -26.5 11t-6.5 45t6.5 45t26.5 11h225q21 0 27 -10.5t6 -45.5t-6 -45.5t-27 -10.5h-32v-319q0 -156 -81 -228.5t-240 -72.5
q-149 0 -231.5 70t-82.5 218v332h-32q-20 0 -27.5 11t-7.5 45t6.5 45t26.5 11zM259 958h21q33 0 49.5 -15.5t16.5 -56.5q0 -42 -11 -57t-41 -15h-49q-30 0 -41 15t-11 57q0 40 16.5 56t49.5 16zM545 958h21q33 0 49.5 -15.5t16.5 -56.5q0 -42 -11 -57t-42 -15h-48
q-30 0 -41.5 15t-11.5 57q0 40 17 56t50 16z" />
    <glyph glyph-name="Yacute" unicode="&#xdd;" horiz-adv-x="794" 
d="M45 720h263q21 0 27 -10.5t6 -45.5t-6 -45.5t-27 -10.5h-62l106 -163q31 -48 44 -93h19q16 51 43 93l111 163h-61q-21 0 -27 10.5t-6 45.5t6 45.5t27 10.5h239q20 0 26.5 -11t6.5 -45t-6.5 -45t-26.5 -11h-31l-248 -355v-141h78q21 0 27 -10.5t6 -45.5t-6 -45.5
t-27 -10.5h-304q-20 0 -26.5 11t-6.5 45t6.5 45t26.5 11h78v137l-241 359h-34q-20 0 -26.5 11t-6.5 45t6.5 45t26.5 11zM320 813l117 100q35 30 111 30q54 0 62 -20q4 -8 -6 -15l-134 -101q-36 -26 -97 -26q-54 0 -59 18q-3 7 6 14z" />
    <glyph glyph-name="Thorn" unicode="&#xde;" horiz-adv-x="675" 
d="M268 457v-181q45 -11 108 -11q71 0 102 22.5t31 73.5v3q0 49 -37 71t-128 22h-76zM80 720h253q21 0 27 -10.5t6 -45.5t-6 -45.5t-27 -10.5h-65v-39h58q177 0 256 -46t79 -152v-15q0 -103 -63.5 -152t-194.5 -49q-64 0 -117 34h-18v-77h70q21 0 27 -10.5t6 -45.5t-6 -45.5
t-27 -10.5h-261q-20 0 -26.5 11t-6.5 45t6.5 45t26.5 11h43v496h-40q-20 0 -26.5 11t-6.5 45t6.5 45t26.5 11z" />
    <glyph glyph-name="germandbls" unicode="&#xdf;" horiz-adv-x="803" 
d="M53 490h60v18q0 224 262 224q111 0 180.5 -43t69.5 -128v-4q0 -40 -13 -69t-32 -44t-38 -27t-32 -25t-13 -29q0 -21 15.5 -29.5t76.5 -22.5l9 -2q89 -20 127 -52.5t38 -110.5v-4q0 -77 -55.5 -115.5t-173.5 -38.5q-90 0 -153 17q-27 7 -41 21t-14 44v40q0 26 13.5 35
t54.5 9q36 0 50 -6t14 -25v-28q35 -10 90 -10q73 0 73 49q0 26 -18 37t-82 26l-13 3q-38 9 -61 16.5t-47 23t-35.5 40.5t-11.5 61v4q0 36 14 63t33.5 43t39.5 29t34 29t14 37q0 74 -121 74q-111 0 -111 -105v-457q0 -35 -13 -46.5t-53 -11.5h-126q-20 0 -26.5 11t-6.5 45
t6.5 45t26.5 11h49v268h-60q-22 0 -28.5 10t-6.5 45q0 34 6.5 44.5t28.5 10.5z" />
    <glyph glyph-name="agrave" unicode="&#xe0;" horiz-adv-x="617" 
d="M34 141v13q0 71 53 113.5t155 42.5q88 0 129 -40h18v32q0 50 -27.5 69.5t-103.5 19.5q-74 0 -140 -22q-36 -12 -48 41q-8 28 -5 41.5t22 20.5q77 30 195 30q134 0 191.5 -47.5t57.5 -139.5v-183q0 -13 5 -18t19 -5h9q20 0 26.5 -10t6.5 -44t-6.5 -44.5t-26.5 -10.5h-46
q-78 0 -106 46h-18q-41 -58 -154 -58q-93 0 -149.5 42t-56.5 111zM175 153v-4q0 -62 104 -62q56 0 85 17t29 47q0 63 -114 63q-104 0 -104 -61zM308 684l109 -116q14 -15 -15 -22q-15 -4 -39 -4q-65 0 -93 26l-127 116q-21 18 15 26q16 4 43 4q80 0 107 -30z" />
    <glyph glyph-name="aacute" unicode="&#xe1;" horiz-adv-x="617" 
d="M34 141v13q0 71 53 113.5t155 42.5q88 0 129 -40h18v32q0 50 -27.5 69.5t-103.5 19.5q-74 0 -140 -22q-36 -12 -48 41q-8 28 -5 41.5t22 20.5q77 30 195 30q134 0 191.5 -47.5t57.5 -139.5v-183q0 -13 5 -18t19 -5h9q20 0 26.5 -10t6.5 -44t-6.5 -44.5t-26.5 -10.5h-46
q-78 0 -106 46h-18q-41 -58 -154 -58q-93 0 -149.5 42t-56.5 111zM175 153v-4q0 -62 104 -62q56 0 85 17t29 47q0 63 -114 63q-104 0 -104 -61zM177 568l104 116q26 30 107 30q67 0 63 -20q-1 -5 -6 -10l-122 -116q-28 -26 -92 -26q-63 0 -59 18q1 4 5 8z" />
    <glyph glyph-name="acircumflex" unicode="&#xe2;" horiz-adv-x="621" 
d="M38 141v13q0 71 53 113.5t155 42.5q88 0 129 -40h18v32q0 50 -27.5 69.5t-103.5 19.5q-74 0 -140 -22q-36 -12 -48 41q-8 28 -5 41.5t22 20.5q77 30 195 30q134 0 191.5 -47.5t57.5 -139.5v-183q0 -13 5 -18t19 -5h9q20 0 26.5 -10t6.5 -44t-6.5 -44.5t-26.5 -10.5h-46
q-78 0 -106 46h-18q-41 -58 -154 -58q-93 0 -149.5 42t-56.5 111zM179 153v-4q0 -62 104 -62q56 0 85 17t29 47q0 63 -114 63q-104 0 -104 -61zM107 572l88 100q21 24 41 32t63 8h6q43 0 63 -8t41 -32l88 -100q23 -25 -28 -29q-9 -1 -21 -1q-75 0 -96 25l-50 61l-50 -61
q-21 -25 -96 -25q-68 0 -54 24q2 3 5 6z" />
    <glyph glyph-name="atilde" unicode="&#xe3;" horiz-adv-x="621" 
d="M38 141v13q0 71 53 113.5t155 42.5q88 0 129 -40h18v32q0 50 -27.5 69.5t-103.5 19.5q-74 0 -140 -22q-36 -12 -48 41q-8 28 -5 41.5t22 20.5q77 30 195 30q134 0 191.5 -47.5t57.5 -139.5v-183q0 -13 5 -18t19 -5h9q20 0 26.5 -10t6.5 -44t-6.5 -44.5t-26.5 -10.5h-46
q-78 0 -106 46h-18q-41 -58 -154 -58q-93 0 -149.5 42t-56.5 111zM179 153v-4q0 -62 104 -62q56 0 85 17t29 47q0 63 -114 63q-104 0 -104 -61zM98 643q37 86 134 86q38 0 81.5 -29t61.5 -29q15 0 24.5 6.5t23.5 25.5q13 18 52 -4q38 -21 29 -43q-36 -90 -127 -90
q-35 0 -80.5 28.5t-64.5 28.5q-20 0 -31.5 -7.5t-24.5 -26.5q-13 -18 -54 12q-32 24 -24 42z" />
    <glyph glyph-name="adieresis" unicode="&#xe4;" horiz-adv-x="621" 
d="M38 141v13q0 71 53 113.5t155 42.5q88 0 129 -40h18v32q0 50 -27.5 69.5t-103.5 19.5q-74 0 -140 -22q-36 -12 -48 41q-8 28 -5 41.5t22 20.5q77 30 195 30q134 0 191.5 -47.5t57.5 -139.5v-183q0 -13 5 -18t19 -5h9q20 0 26.5 -10t6.5 -44t-6.5 -44.5t-26.5 -10.5h-46
q-78 0 -106 46h-18q-41 -58 -154 -58q-93 0 -149.5 42t-56.5 111zM179 153v-4q0 -62 104 -62q56 0 85 17t29 47q0 63 -114 63q-104 0 -104 -61zM165 722h20q32 0 48.5 -15.5t16.5 -56.5q0 -42 -11 -56.5t-41 -14.5h-46q-30 0 -41 14.5t-11 56.5q0 40 16.5 56t48.5 16z
M434 722h19q33 0 49.5 -15.5t16.5 -56.5q0 -42 -11 -56.5t-41 -14.5h-47q-30 0 -41 14.5t-11 56.5q0 40 16.5 56t49.5 16z" />
    <glyph glyph-name="aring" unicode="&#xe5;" horiz-adv-x="621" 
d="M38 141v13q0 71 53 113.5t155 42.5q88 0 129 -40h18v32q0 50 -27.5 69.5t-103.5 19.5q-74 0 -140 -22q-36 -12 -48 41q-8 28 -5 41.5t22 20.5q77 30 195 30q134 0 191.5 -47.5t57.5 -139.5v-183q0 -13 5 -18t19 -5h9q20 0 26.5 -10t6.5 -44t-6.5 -44.5t-26.5 -10.5h-46
q-78 0 -106 46h-18q-41 -58 -154 -58q-93 0 -149.5 42t-56.5 111zM179 153v-4q0 -62 104 -62q56 0 85 17t29 47q0 63 -114 63q-104 0 -104 -61zM306 738q-28 0 -45 -17t-17 -48q0 -66 62 -66q26 0 42.5 16.5t16.5 49.5q0 31 -16 48t-43 17zM170 668v7q0 60 36.5 91.5
t99.5 31.5t97.5 -31.5t34.5 -91.5v-7q0 -60 -34.5 -90.5t-97.5 -30.5t-99.5 30.5t-36.5 90.5z" />
    <glyph glyph-name="ae" unicode="&#xe6;" horiz-adv-x="932" 
d="M175 153v-4q0 -62 104 -62q56 0 85 17t29 47q0 63 -114 63q-104 0 -104 -61zM34 141v13q0 71 53 113.5t155 42.5q88 0 129 -40h18v32q0 50 -27.5 69.5t-103.5 19.5q-74 0 -140 -22q-36 -12 -48 41q-8 28 -5 41.5t22 20.5q77 30 195 30q126 0 188 -48h5q66 47 168 47
q126 0 184.5 -56.5t58.5 -170.5v-19q0 -30 -16.5 -41t-57.5 -11h-284q2 -55 38 -79.5t117 -24.5q67 0 129 15q23 6 33.5 -1t19.5 -39q9 -33 5 -44.5t-25 -18.5q-75 -23 -176 -23q-159 0 -228 69h-17q-62 -69 -184 -69q-93 0 -149.5 42t-56.5 111zM528 297h222q0 99 -107 99
q-115 0 -115 -99z" />
    <glyph glyph-name="ccedilla" unicode="&#xe7;" horiz-adv-x="561" 
d="M40 235v25q0 118 74 180t214 62q72 0 132 -19q33 -10 48 -28.5t15 -47.5v-45q0 -31 -12 -40t-53 -9q-40 0 -52.5 7t-12.5 30v34q-31 9 -70 9q-137 0 -137 -140v-11q0 -73 37.5 -108t117.5 -35q75 0 123 12q24 6 34.5 -1t18.5 -40q7 -29 3 -43t-22 -19q-54 -16 -138 -19
v-29q80 -9 80 -77v-4q0 -96 -141 -96q-44 0 -78 12q-21 6 -10 43q6 20 12 26t13 4q25 -7 41 -8q59 -4 59 23q0 15 -13 20.5t-44 5.5q-25 0 -25 17v67q-109 13 -161.5 73t-52.5 169z" />
    <glyph glyph-name="egrave" unicode="&#xe8;" horiz-adv-x="590" 
d="M40 233v26q0 117 70.5 180t193.5 63q125 0 182.5 -57t57.5 -171v-19q0 -30 -16.5 -41t-57.5 -11h-284q2 -55 38 -79.5t117 -24.5q67 0 129 15q23 6 33.5 -1t19.5 -39q9 -33 5 -44.5t-25 -18.5q-75 -23 -176 -23q-146 0 -216.5 60t-70.5 185zM186 297h222q0 99 -107 99
q-115 0 -115 -99zM306 684l109 -116q14 -15 -15 -22q-15 -4 -39 -4q-65 0 -93 26l-127 116q-21 18 15 26q16 4 43 4q80 0 107 -30z" />
    <glyph glyph-name="eacute" unicode="&#xe9;" horiz-adv-x="590" 
d="M40 233v26q0 117 70.5 180t193.5 63q125 0 182.5 -57t57.5 -171v-19q0 -30 -16.5 -41t-57.5 -11h-284q2 -55 38 -79.5t117 -24.5q67 0 129 15q23 6 33.5 -1t19.5 -39q9 -33 5 -44.5t-25 -18.5q-75 -23 -176 -23q-146 0 -216.5 60t-70.5 185zM186 297h222q0 99 -107 99
q-115 0 -115 -99zM184 568l104 116q26 30 107 30q67 0 63 -20q-1 -5 -6 -10l-122 -116q-28 -26 -92 -26q-63 0 -59 18q1 4 5 8z" />
    <glyph glyph-name="ecircumflex" unicode="&#xea;" horiz-adv-x="590" 
d="M40 233v26q0 117 70.5 180t193.5 63q125 0 182.5 -57t57.5 -171v-19q0 -30 -16.5 -41t-57.5 -11h-284q2 -55 38 -79.5t117 -24.5q67 0 129 15q23 6 33.5 -1t19.5 -39q9 -33 5 -44.5t-25 -18.5q-75 -23 -176 -23q-146 0 -216.5 60t-70.5 185zM186 297h222q0 99 -107 99
q-115 0 -115 -99zM94 572l88 100q21 24 41 32t63 8h6q43 0 63 -8t41 -32l88 -100q23 -25 -28 -29q-9 -1 -21 -1q-75 0 -96 25l-50 61l-50 -61q-21 -25 -96 -25q-68 0 -54 24q2 3 5 6z" />
    <glyph glyph-name="edieresis" unicode="&#xeb;" horiz-adv-x="590" 
d="M40 233v26q0 117 70.5 180t193.5 63q125 0 182.5 -57t57.5 -171v-19q0 -30 -16.5 -41t-57.5 -11h-284q2 -55 38 -79.5t117 -24.5q67 0 129 15q23 6 33.5 -1t19.5 -39q9 -33 5 -44.5t-25 -18.5q-75 -23 -176 -23q-146 0 -216.5 60t-70.5 185zM186 297h222q0 99 -107 99
q-115 0 -115 -99zM148 722h20q32 0 48.5 -15.5t16.5 -56.5q0 -42 -11 -56.5t-41 -14.5h-46q-30 0 -41 14.5t-11 56.5q0 40 16.5 56t48.5 16zM417 722h19q33 0 49.5 -15.5t16.5 -56.5q0 -42 -11 -56.5t-41 -14.5h-47q-30 0 -41 14.5t-11 56.5q0 40 16.5 56t49.5 16z" />
    <glyph glyph-name="igrave" unicode="&#xec;" horiz-adv-x="353" 
d="M143 684l109 -116q14 -15 -15 -22q-15 -4 -39 -4q-65 0 -93 26l-127 116q-21 18 15 26q16 4 43 4q80 0 107 -30zM88 490h89q42 0 57 -12.5t15 -46.5v-319h45q20 0 26.5 -11t6.5 -45t-6.5 -45t-26.5 -11h-227q-20 0 -26.5 11t-6.5 45t6.5 45t26.5 11h39v247q0 11 -4.5 15
t-14.5 4h-19q-20 0 -27 10t-7 35q0 37 11.5 52t42.5 15z" />
    <glyph glyph-name="iacute" unicode="&#xed;" horiz-adv-x="353" 
d="M64 568l104 116q26 30 107 30q67 0 63 -20q-1 -5 -6 -10l-122 -116q-28 -26 -92 -26q-63 0 -59 18q1 4 5 8zM88 490h89q42 0 57 -12.5t15 -46.5v-319h45q20 0 26.5 -11t6.5 -45t-6.5 -45t-26.5 -11h-227q-20 0 -26.5 11t-6.5 45t6.5 45t26.5 11h39v247q0 11 -4.5 15
t-14.5 4h-19q-20 0 -27 10t-7 35q0 37 11.5 52t42.5 15z" />
    <glyph glyph-name="icircumflex" unicode="&#xee;" horiz-adv-x="353" 
d="M88 490h89q42 0 57 -12.5t15 -46.5v-319h45q20 0 26.5 -11t6.5 -45t-6.5 -45t-26.5 -11h-227q-20 0 -26.5 11t-6.5 45t6.5 45t26.5 11h39v247q0 11 -4.5 15t-14.5 4h-19q-20 0 -27 10t-7 35q0 37 11.5 52t42.5 15zM-29 572l88 100q21 24 41 32t63 8h6q43 0 63 -8t41 -32
l88 -100q23 -25 -28 -29q-9 -1 -21 -1q-75 0 -96 25l-50 61l-50 -61q-21 -25 -96 -25q-68 0 -54 24q2 3 5 6z" />
    <glyph glyph-name="idieresis" unicode="&#xef;" horiz-adv-x="353" 
d="M31 722h20q32 0 48.5 -15.5t16.5 -56.5q0 -42 -11 -56.5t-41 -14.5h-46q-30 0 -41 14.5t-11 56.5q0 40 16.5 56t48.5 16zM300 722h19q33 0 49.5 -15.5t16.5 -56.5q0 -42 -11 -56.5t-41 -14.5h-47q-30 0 -41 14.5t-11 56.5q0 40 16.5 56t49.5 16zM88 490h89q42 0 57 -12.5
t15 -46.5v-319h45q20 0 26.5 -11t6.5 -45t-6.5 -45t-26.5 -11h-227q-20 0 -26.5 11t-6.5 45t6.5 45t26.5 11h39v247q0 11 -4.5 15t-14.5 4h-19q-20 0 -27 10t-7 35q0 37 11.5 52t42.5 15z" />
    <glyph glyph-name="eth" unicode="&#xf0;" horiz-adv-x="634" 
d="M219 600l85 15q-24 25 -90 75q-34 25 9 33q15 3 35 3q58 0 91.5 -16t88.5 -71l119 21q17 3 22 -5.5t5 -36.5t-5 -38t-22 -13l-54 -10q67 -113 67 -279v-17q0 -133 -65.5 -203t-210.5 -70q-244 0 -244 209v15q0 105 61 163t165 58q80 0 124 -44h18q-9 80 -48 144l-151 -26
q-17 -3 -22 5.5t-5 36.5q0 29 5 38.5t22 12.5zM196 215v-9q0 -57 27.5 -82.5t81.5 -25.5q60 0 89 31.5t29 121.5v31q-49 37 -113 37q-114 0 -114 -104z" />
    <glyph glyph-name="ntilde" unicode="&#xf1;" horiz-adv-x="703" 
d="M91 490h67q31 0 44.5 -10.5t18.5 -37.5l3 -22h17q22 44 59.5 63t100.5 19q212 0 212 -246v-144h45q20 0 26.5 -11t6.5 -45t-6.5 -45t-26.5 -11h-227q-20 0 -26.5 11t-6.5 45t6.5 45t26.5 11h39v130q0 83 -22 115.5t-79 32.5q-117 0 -117 -116v-162h39q20 0 26.5 -11
t6.5 -45t-6.5 -45t-26.5 -11h-221q-20 0 -26.5 11t-6.5 45t6.5 45t26.5 11h39v247q0 11 -4.5 15t-14.5 4h-19q-20 0 -27 10t-7 35q0 37 11.5 52t42.5 15zM155 643q37 86 134 86q38 0 81.5 -29t61.5 -29q15 0 24.5 6.5t23.5 25.5q13 18 52 -4q38 -21 29 -43q-36 -90 -127 -90
q-35 0 -80.5 28.5t-64.5 28.5q-20 0 -31.5 -7.5t-24.5 -26.5q-13 -18 -54 12q-32 24 -24 42z" />
    <glyph glyph-name="ograve" unicode="&#xf2;" horiz-adv-x="616" 
d="M186 250v-11q0 -142 122 -142t122 142v11q0 143 -122 143t-122 -143zM40 232v24q0 120 69.5 183t198.5 63t198.5 -63t69.5 -183v-24q0 -120 -69.5 -182t-198.5 -62t-198.5 62t-69.5 182zM316 684l109 -116q14 -15 -15 -22q-15 -4 -39 -4q-65 0 -93 26l-127 116
q-21 18 15 26q16 4 43 4q80 0 107 -30z" />
    <glyph glyph-name="oacute" unicode="&#xf3;" horiz-adv-x="616" 
d="M186 250v-11q0 -142 122 -142t122 142v11q0 143 -122 143t-122 -143zM40 232v24q0 120 69.5 183t198.5 63t198.5 -63t69.5 -183v-24q0 -120 -69.5 -182t-198.5 -62t-198.5 62t-69.5 182zM193 568l104 116q26 30 107 30q67 0 63 -20q-1 -5 -6 -10l-122 -116
q-28 -26 -92 -26q-63 0 -59 18q1 4 5 8z" />
    <glyph glyph-name="ocircumflex" unicode="&#xf4;" horiz-adv-x="616" 
d="M186 250v-11q0 -142 122 -142t122 142v11q0 143 -122 143t-122 -143zM40 232v24q0 120 69.5 183t198.5 63t198.5 -63t69.5 -183v-24q0 -120 -69.5 -182t-198.5 -62t-198.5 62t-69.5 182zM112 572l88 100q21 24 41 32t63 8h6q43 0 63 -8t41 -32l88 -100q23 -25 -28 -29
q-9 -1 -21 -1q-75 0 -96 25l-50 61l-50 -61q-21 -25 -96 -25q-68 0 -54 24q2 3 5 6z" />
    <glyph glyph-name="otilde" unicode="&#xf5;" horiz-adv-x="616" 
d="M186 250v-11q0 -142 122 -142t122 142v11q0 143 -122 143t-122 -143zM40 232v24q0 120 69.5 183t198.5 63t198.5 -63t69.5 -183v-24q0 -120 -69.5 -182t-198.5 -62t-198.5 62t-69.5 182zM104 643q37 86 134 86q38 0 81.5 -29t61.5 -29q15 0 24.5 6.5t23.5 25.5
q13 18 52 -4q38 -21 29 -43q-36 -90 -127 -90q-35 0 -80.5 28.5t-64.5 28.5q-20 0 -31.5 -7.5t-24.5 -26.5q-13 -18 -54 12q-32 24 -24 42z" />
    <glyph glyph-name="odieresis" unicode="&#xf6;" horiz-adv-x="616" 
d="M186 250v-11q0 -142 122 -142t122 142v11q0 143 -122 143t-122 -143zM40 232v24q0 120 69.5 183t198.5 63t198.5 -63t69.5 -183v-24q0 -120 -69.5 -182t-198.5 -62t-198.5 62t-69.5 182zM163 722h20q32 0 48.5 -15.5t16.5 -56.5q0 -42 -11 -56.5t-41 -14.5h-46
q-30 0 -41 14.5t-11 56.5q0 40 16.5 56t48.5 16zM432 722h19q33 0 49.5 -15.5t16.5 -56.5q0 -42 -11 -56.5t-41 -14.5h-47q-30 0 -41 14.5t-11 56.5q0 40 16.5 56t49.5 16z" />
    <glyph glyph-name="divide" unicode="&#xf7;" horiz-adv-x="716" 
d="M111 413h494q21 0 27 -11t6 -45q0 -33 -6 -44t-27 -11h-494q-21 0 -27 11t-6 44q0 34 6 45t27 11zM349 647h17q33 0 50 -15.5t17 -56.5q0 -42 -11 -57t-41 -15h-46q-30 0 -42 15.5t-12 56.5t17.5 56.5t50.5 15.5zM349 213h17q33 0 50 -15.5t17 -56.5q0 -42 -11 -57.5
t-41 -15.5h-46q-30 0 -42 15.5t-12 57.5q0 40 17.5 56t50.5 16z" />
    <glyph glyph-name="oslash" unicode="&#xf8;" horiz-adv-x="616" 
d="M40 232v24q0 120 69.5 183t198.5 63q46 0 81 -7l36 71q8 14 45 14q21 0 34.5 -5.5t7.5 -16.5l-46 -91q110 -59 110 -211v-24q0 -120 -69.5 -182t-198.5 -62q-38 0 -80 7l-48 -95q-6 -14 -46 -14q-27 0 -38 5t-6 16l58 115q-108 60 -108 210zM406 349l-126 -250
q9 -2 28 -2q122 0 122 142v11q0 63 -24 99zM186 250v-11q0 -63 23 -98l127 250q-18 2 -28 2q-122 0 -122 -143z" />
    <glyph glyph-name="ugrave" unicode="&#xf9;" horiz-adv-x="681" 
d="M66 490h89q42 0 57 -12.5t15 -46.5v-200q0 -75 20.5 -103t72.5 -28q118 0 118 118v141q0 11 -4.5 15t-14.5 4h-19q-20 0 -27 10t-7 35q0 37 11.5 52t42.5 15h89q42 0 57 -12.5t15 -46.5v-299q0 -13 5 -18t19 -5h9q20 0 26.5 -10t6.5 -44t-6.5 -44.5t-26.5 -10.5h-42
q-49 0 -75 13.5t-37 46.5h-18q-32 -72 -154 -72q-204 0 -204 223v148q0 11 -4.5 15t-14.5 4h-19q-20 0 -27 10t-7 35q0 37 11.5 52t42.5 15zM339 684l109 -116q14 -15 -15 -22q-15 -4 -39 -4q-65 0 -93 26l-127 116q-21 18 15 26q16 4 43 4q80 0 107 -30z" />
    <glyph glyph-name="uacute" unicode="&#xfa;" horiz-adv-x="681" 
d="M66 490h89q42 0 57 -12.5t15 -46.5v-200q0 -75 20.5 -103t72.5 -28q118 0 118 118v141q0 11 -4.5 15t-14.5 4h-19q-20 0 -27 10t-7 35q0 37 11.5 52t42.5 15h89q42 0 57 -12.5t15 -46.5v-299q0 -13 5 -18t19 -5h9q20 0 26.5 -10t6.5 -44t-6.5 -44.5t-26.5 -10.5h-42
q-49 0 -75 13.5t-37 46.5h-18q-32 -72 -154 -72q-204 0 -204 223v148q0 11 -4.5 15t-14.5 4h-19q-20 0 -27 10t-7 35q0 37 11.5 52t42.5 15zM221 568l104 116q26 30 107 30q67 0 63 -20q-1 -5 -6 -10l-122 -116q-28 -26 -92 -26q-63 0 -59 18q1 4 5 8z" />
    <glyph glyph-name="ucircumflex" unicode="&#xfb;" horiz-adv-x="681" 
d="M66 490h89q42 0 57 -12.5t15 -46.5v-200q0 -75 20.5 -103t72.5 -28q118 0 118 118v141q0 11 -4.5 15t-14.5 4h-19q-20 0 -27 10t-7 35q0 37 11.5 52t42.5 15h89q42 0 57 -12.5t15 -46.5v-299q0 -13 5 -18t19 -5h9q20 0 26.5 -10t6.5 -44t-6.5 -44.5t-26.5 -10.5h-42
q-49 0 -75 13.5t-37 46.5h-18q-32 -72 -154 -72q-204 0 -204 223v148q0 11 -4.5 15t-14.5 4h-19q-20 0 -27 10t-7 35q0 37 11.5 52t42.5 15zM113 572l88 100q21 24 41 32t63 8h6q43 0 63 -8t41 -32l88 -100q23 -25 -28 -29q-9 -1 -21 -1q-75 0 -96 25l-50 61l-50 -61
q-21 -25 -96 -25q-68 0 -54 24q2 3 5 6z" />
    <glyph glyph-name="udieresis" unicode="&#xfc;" horiz-adv-x="681" 
d="M66 490h89q42 0 57 -12.5t15 -46.5v-200q0 -75 20.5 -103t72.5 -28q118 0 118 118v141q0 11 -4.5 15t-14.5 4h-19q-20 0 -27 10t-7 35q0 37 11.5 52t42.5 15h89q42 0 57 -12.5t15 -46.5v-299q0 -13 5 -18t19 -5h9q20 0 26.5 -10t6.5 -44t-6.5 -44.5t-26.5 -10.5h-42
q-49 0 -75 13.5t-37 46.5h-18q-32 -72 -154 -72q-204 0 -204 223v148q0 11 -4.5 15t-14.5 4h-19q-20 0 -27 10t-7 35q0 37 11.5 52t42.5 15zM195 722h20q32 0 48.5 -15.5t16.5 -56.5q0 -42 -11 -56.5t-41 -14.5h-46q-30 0 -41 14.5t-11 56.5q0 40 16.5 56t48.5 16zM464 722
h19q33 0 49.5 -15.5t16.5 -56.5q0 -42 -11 -56.5t-41 -14.5h-47q-30 0 -41 14.5t-11 56.5q0 40 16.5 56t49.5 16z" />
    <glyph glyph-name="yacute" unicode="&#xfd;" horiz-adv-x="636" 
d="M43 490h212q20 0 26.5 -11t6.5 -45t-6.5 -45t-26.5 -11h-43l92 -207q16 -36 20 -75h17q6 44 22 87l77 195h-45q-20 0 -26.5 11t-6.5 45t6.5 45t26.5 11h198q20 0 26.5 -11t6.5 -45t-6.5 -45t-26.5 -11h-21l-164 -438q-37 -100 -88 -138t-151 -38q-78 0 -135 22
q-17 7 -20 21t6 43q17 53 53 42q47 -15 96 -15q43 0 65.5 16.5t38.5 59.5l15 41q-35 0 -50.5 8t-27.5 35l-146 341h-21q-20 0 -26.5 11t-6.5 45t6.5 45t26.5 11zM212 568l104 116q26 30 107 30q67 0 63 -20q-1 -5 -6 -10l-122 -116q-28 -26 -92 -26q-63 0 -59 18q1 4 5 8z
" />
    <glyph glyph-name="thorn" unicode="&#xfe;" horiz-adv-x="670" 
d="M244 273v-67q0 -52 31 -78.5t86 -26.5q60 0 91.5 37.5t31.5 101.5v8q0 64 -29 104t-94 40q-55 0 -86 -31.5t-31 -87.5zM88 721h89q42 0 57 -12.5t15 -46.5v-105q0 -67 -22 -136h18q43 81 153 81q105 0 168.5 -67.5t63.5 -178.5v-23q0 -111 -61 -178t-175 -67
q-98 0 -140 63h-18q13 -48 13 -112v-51h73q20 0 26.5 -11t6.5 -45t-6.5 -45t-26.5 -11h-255q-20 0 -26.5 11t-6.5 45t6.5 45t26.5 11h39v702q0 11 -4.5 15t-14.5 4h-19q-20 0 -27 10t-7 35q0 37 11.5 52t42.5 15z" />
    <glyph glyph-name="ydieresis" unicode="&#xff;" horiz-adv-x="636" 
d="M43 490h212q20 0 26.5 -11t6.5 -45t-6.5 -45t-26.5 -11h-43l92 -207q16 -36 20 -75h17q6 44 22 87l77 195h-45q-20 0 -26.5 11t-6.5 45t6.5 45t26.5 11h198q20 0 26.5 -11t6.5 -45t-6.5 -45t-26.5 -11h-21l-164 -438q-37 -100 -88 -138t-151 -38q-78 0 -135 22
q-17 7 -20 21t6 43q17 53 53 42q47 -15 96 -15q43 0 65.5 16.5t38.5 59.5l15 41q-35 0 -50.5 8t-27.5 35l-146 341h-21q-20 0 -26.5 11t-6.5 45t6.5 45t26.5 11zM170 722h20q32 0 48.5 -15.5t16.5 -56.5q0 -42 -11 -56.5t-41 -14.5h-46q-30 0 -41 14.5t-11 56.5
q0 40 16.5 56t48.5 16zM439 722h19q33 0 49.5 -15.5t16.5 -56.5q0 -42 -11 -56.5t-41 -14.5h-47q-30 0 -41 14.5t-11 56.5q0 40 16.5 56t49.5 16z" />
    <glyph glyph-name="Amacron" unicode="&#x100;" horiz-adv-x="894" 
d="M406 726h76q38 0 54 -13t33 -52l236 -549h34q20 0 26.5 -11t6.5 -45t-6.5 -45t-26.5 -11h-264q-21 0 -27 10.5t-6 45.5t6 45.5t27 10.5h64l-44 111h-311l-44 -111h67q21 0 27 -10.5t6 -45.5t-6 -45.5t-27 -10.5h-250q-20 0 -26.5 11t-6.5 45t6.5 45t26.5 11h30l232 549
q16 38 32 51.5t55 13.5zM449 621h-19q-16 -69 -55 -169l-47 -118h224l-68 179q-11 28 -35 108zM285 944h312q20 0 26 -10.5t6 -43.5q0 -32 -6 -42.5t-26 -10.5h-312q-20 0 -26.5 10.5t-6.5 42.5q0 33 6 43.5t27 10.5z" />
    <glyph glyph-name="amacron" unicode="&#x101;" horiz-adv-x="617" 
d="M34 141v13q0 71 53 113.5t155 42.5q88 0 129 -40h18v32q0 50 -27.5 69.5t-103.5 19.5q-74 0 -140 -22q-36 -12 -48 41q-8 28 -5 41.5t22 20.5q77 30 195 30q134 0 191.5 -47.5t57.5 -139.5v-183q0 -13 5 -18t19 -5h9q20 0 26.5 -10t6.5 -44t-6.5 -44.5t-26.5 -10.5h-46
q-78 0 -106 46h-18q-41 -58 -154 -58q-93 0 -149.5 42t-56.5 111zM175 153v-4q0 -62 104 -62q56 0 85 17t29 47q0 63 -114 63q-104 0 -104 -61zM182 687h251q21 0 27 -10.5t6 -43.5q0 -32 -6.5 -42.5t-26.5 -10.5h-251q-20 0 -26 10.5t-6 42.5q0 33 6 43.5t26 10.5z" />
    <glyph glyph-name="Abreve" unicode="&#x102;" horiz-adv-x="894" 
d="M406 726h76q38 0 54 -13t33 -52l236 -549h34q20 0 26.5 -11t6.5 -45t-6.5 -45t-26.5 -11h-264q-21 0 -27 10.5t-6 45.5t6 45.5t27 10.5h64l-44 111h-311l-44 -111h67q21 0 27 -10.5t6 -45.5t-6 -45.5t-27 -10.5h-250q-20 0 -26.5 11t-6.5 45t6.5 45t26.5 11h30l232 549
q16 38 32 51.5t55 13.5zM449 621h-19q-16 -69 -55 -169l-47 -118h224l-68 179q-11 28 -35 108zM243 918v7q0 16 13 23.5t48 7.5q29 0 38.5 -6t9.5 -18v-3q0 -38 87 -38t87 38v3q0 12 9.5 18t38.5 6q35 0 48 -7.5t13 -23.5v-7q0 -58 -51 -90t-145 -32q-99 0 -147.5 33
t-48.5 89z" />
    <glyph glyph-name="abreve" unicode="&#x103;" horiz-adv-x="617" 
d="M34 141v13q0 71 53 113.5t155 42.5q88 0 129 -40h18v32q0 50 -27.5 69.5t-103.5 19.5q-74 0 -140 -22q-36 -12 -48 41q-8 28 -5 41.5t22 20.5q77 30 195 30q134 0 191.5 -47.5t57.5 -139.5v-183q0 -13 5 -18t19 -5h9q20 0 26.5 -10t6.5 -44t-6.5 -44.5t-26.5 -10.5h-46
q-78 0 -106 46h-18q-41 -58 -154 -58q-93 0 -149.5 42t-56.5 111zM175 153v-4q0 -62 104 -62q56 0 85 17t29 47q0 63 -114 63q-104 0 -104 -61zM148 684v7q0 13 11 18.5t42 5.5t39 -3t8 -13v-4q0 -40 62 -40q59 0 59 40v4q0 10 9 13t38 3q31 0 41.5 -5.5t10.5 -18.5v-7
q0 -61 -44.5 -92t-116.5 -31q-74 0 -116.5 30.5t-42.5 92.5z" />
    <glyph glyph-name="Aogonek" unicode="&#x104;" horiz-adv-x="894" 
d="M406 726h76q38 0 54 -13t33 -52l236 -549h34q21 0 27 -11t6 -45q0 -30 -5 -41q-3 -8 -24 -22q-32 -23 -48.5 -51t-16.5 -53t28 -25q16 0 41 6q8 2 14 -5t10 -27q9 -37 -7 -46q-20 -13 -75 -13q-114 0 -114 96v4q0 32 21 65.5t56 55.5h-177q-20 0 -26.5 11.5t-6.5 44.5
q0 34 6 45t27 11h64l-44 111h-311l-44 -111h67q21 0 27 -11t6 -45q0 -33 -6.5 -44.5t-26.5 -11.5h-250q-20 0 -26.5 11.5t-6.5 44.5q0 34 6 45t27 11h30l232 549q16 38 32 51.5t55 13.5zM449 621h-19q-16 -69 -55 -169l-47 -118h224l-68 179q-11 28 -35 108z" />
    <glyph glyph-name="aogonek" unicode="&#x105;" horiz-adv-x="617" 
d="M34 141v13q0 71 53 113.5t155 42.5q88 0 129 -40h18v32q0 50 -27.5 69.5t-103.5 19.5q-74 0 -140 -22q-36 -12 -48 41q-8 28 -5 41.5t22 20.5q77 30 195 30q134 0 191.5 -47.5t57.5 -139.5v-183q0 -14 5.5 -18.5t18.5 -4.5h9q21 0 27 -10.5t6 -43.5q0 -30 -3.5 -39
t-17.5 -16q-31 -15 -54 -47.5t-23 -58.5q0 -30 28 -30q15 0 41 6q8 2 14 -5t10 -27q9 -37 -7 -46q-19 -13 -75 -13q-114 0 -114 96v4q0 33 22 67.5t60 56.5q-45 7 -66 43h-18q-41 -58 -154 -58q-93 0 -149.5 42t-56.5 111zM175 153v-4q0 -62 104 -62q56 0 85 17t29 47
q0 63 -114 63q-104 0 -104 -61z" />
    <glyph glyph-name="Cacute" unicode="&#x106;" horiz-adv-x="740" 
d="M50 346v33q0 169 94 261t282 92q104 0 188 -27q43 -14 57.5 -32.5t14.5 -57.5v-88q0 -25 -13.5 -32t-58.5 -7q-44 0 -59 7.5t-15 30.5v70q-62 16 -126 16q-114 0 -162.5 -59t-48.5 -175v-21q0 -130 59.5 -187t196.5 -57q80 0 159 17q23 5 33.5 -3.5t18.5 -43.5
q8 -39 4.5 -51.5t-23.5 -17.5q-99 -26 -213 -26q-198 0 -293 88t-95 270zM290 813l117 100q35 30 111 30q54 0 62 -20q4 -8 -6 -15l-134 -101q-36 -26 -97 -26q-54 0 -59 18q-3 7 6 14z" />
    <glyph glyph-name="cacute" unicode="&#x107;" horiz-adv-x="561" 
d="M40 235v25q0 118 74 180t214 62q72 0 132 -19q33 -10 48 -28.5t15 -47.5v-45q0 -31 -12 -40t-53 -9q-40 0 -52.5 7t-12.5 30v34q-31 9 -70 9q-137 0 -137 -140v-11q0 -73 37.5 -108t117.5 -35q75 0 123 12q24 6 34.5 -1t18.5 -40q7 -29 3 -43t-22 -19q-67 -20 -170 -20
q-147 0 -217.5 61t-70.5 186zM177 568l104 116q26 30 107 30q67 0 63 -20q-1 -5 -6 -10l-122 -116q-28 -26 -92 -26q-63 0 -59 18q1 4 5 8z" />
    <glyph glyph-name="Ccircumflex" unicode="&#x108;" horiz-adv-x="740" 
d="M50 346v33q0 169 94 261t282 92q104 0 188 -27q43 -14 57.5 -32.5t14.5 -57.5v-88q0 -25 -13.5 -32t-58.5 -7q-44 0 -59 7.5t-15 30.5v70q-62 16 -126 16q-114 0 -162.5 -59t-48.5 -175v-21q0 -130 59.5 -187t196.5 -57q80 0 159 17q23 5 33.5 -3.5t18.5 -43.5
q8 -39 4.5 -51.5t-23.5 -17.5q-99 -26 -213 -26q-198 0 -293 88t-95 270zM177 811l127 104q29 25 87 25h28q35 0 53.5 -5.5t36.5 -19.5l131 -103q25 -20 -15 -27q-15 -3 -36 -3q-50 0 -74 5.5t-47 21.5l-65 46l-59 -45q-22 -17 -47 -22.5t-71 -5.5q-60 0 -57 18q1 5 8 11z
" />
    <glyph glyph-name="ccircumflex" unicode="&#x109;" horiz-adv-x="561" 
d="M40 235v25q0 118 74 180t214 62q72 0 132 -19q33 -10 48 -28.5t15 -47.5v-45q0 -31 -12 -40t-53 -9q-40 0 -52.5 7t-12.5 30v34q-31 9 -70 9q-137 0 -137 -140v-11q0 -73 37.5 -108t117.5 -35q75 0 123 12q24 6 34.5 -1t18.5 -40q7 -29 3 -43t-22 -19q-67 -20 -170 -20
q-147 0 -217.5 61t-70.5 186zM109 572l88 100q21 24 41 32t63 8h6q43 0 63 -8t41 -32l88 -100q23 -25 -28 -29q-9 -1 -21 -1q-75 0 -96 25l-50 61l-50 -61q-21 -25 -96 -25q-68 0 -54 24q2 3 5 6z" />
    <glyph glyph-name="Cdotaccent" unicode="&#x10a;" horiz-adv-x="740" 
d="M50 346v33q0 169 94 261t282 92q104 0 188 -27q43 -14 57.5 -32.5t14.5 -57.5v-88q0 -25 -13.5 -32t-58.5 -7q-44 0 -59 7.5t-15 30.5v70q-62 16 -126 16q-114 0 -162.5 -59t-48.5 -175v-21q0 -130 59.5 -187t196.5 -57q80 0 159 17q23 5 33.5 -3.5t18.5 -43.5
q8 -39 4.5 -51.5t-23.5 -17.5q-99 -26 -213 -26q-198 0 -293 88t-95 270zM409 966h22q35 0 53.5 -17.5t18.5 -61.5q0 -45 -12.5 -61.5t-44.5 -16.5h-52q-33 0 -45 16.5t-12 61.5q0 44 18 61.5t54 17.5z" />
    <glyph glyph-name="cdotaccent" unicode="&#x10b;" horiz-adv-x="561" 
d="M40 235v25q0 118 74 180t214 62q72 0 132 -19q33 -10 48 -28.5t15 -47.5v-45q0 -31 -12 -40t-53 -9q-40 0 -52.5 7t-12.5 30v34q-31 9 -70 9q-137 0 -137 -140v-11q0 -73 37.5 -108t117.5 -35q75 0 123 12q24 6 34.5 -1t18.5 -40q7 -29 3 -43t-22 -19q-67 -20 -170 -20
q-147 0 -217.5 61t-70.5 186zM300 729h20q35 0 53.5 -17t18.5 -61q0 -45 -12.5 -61.5t-44.5 -16.5h-50q-33 0 -45 16.5t-12 61.5q0 44 18 61t54 17z" />
    <glyph glyph-name="Ccaron" unicode="&#x10c;" horiz-adv-x="740" 
d="M50 346v33q0 169 94 261t282 92q104 0 188 -27q43 -14 57.5 -32.5t14.5 -57.5v-88q0 -25 -13.5 -32t-58.5 -7q-44 0 -59 7.5t-15 30.5v70q-62 16 -126 16q-114 0 -162.5 -59t-48.5 -175v-21q0 -130 59.5 -187t196.5 -57q80 0 159 17q23 5 33.5 -3.5t18.5 -43.5
q8 -39 4.5 -51.5t-23.5 -17.5q-99 -26 -213 -26q-198 0 -293 88t-95 270zM338 918l69 -55l74 56q16 12 35.5 16t70.5 4q60 0 57 -18q-1 -5 -8 -11l-128 -104q-28 -24 -87 -25h-28q-57 0 -90 25l-132 103q-26 20 15 27q15 3 36 3q57 0 79 -4.5t37 -16.5z" />
    <glyph glyph-name="ccaron" unicode="&#x10d;" horiz-adv-x="561" 
d="M40 235v25q0 118 74 180t214 62q72 0 132 -19q33 -10 48 -28.5t15 -47.5v-45q0 -31 -12 -40t-53 -9q-40 0 -52.5 7t-12.5 30v34q-31 9 -70 9q-137 0 -137 -140v-11q0 -73 37.5 -108t117.5 -35q75 0 123 12q24 6 34.5 -1t18.5 -40q7 -29 3 -43t-22 -19q-67 -20 -170 -20
q-147 0 -217.5 61t-70.5 186zM234 691l51 -67l51 67q10 12 26 16.5t60 4.5q64 0 59 -21q-1 -4 -4 -8l-88 -104q-20 -23 -41 -30t-63 -7t-63 7t-41 30l-88 104q-18 23 27 28q12 1 28 1q42 0 59.5 -4.5t26.5 -16.5z" />
    <glyph glyph-name="Dcaron" unicode="&#x10e;" horiz-adv-x="811" 
d="M80 720h294q387 0 387 -338v-33q0 -174 -101 -261.5t-280 -87.5h-303q-20 0 -26.5 11t-6.5 45t6.5 45t26.5 11h43v496h-40q-20 0 -26.5 11t-6.5 45t6.5 45t26.5 11zM268 608v-496h121q113 0 166 58.5t53 180.5v17q0 240 -247 240h-93zM295 918l69 -55l74 56q16 12 35 16
t71 4q60 0 57 -18q-1 -5 -8 -11l-128 -104q-28 -24 -87 -25h-28q-57 0 -90 25l-132 103q-26 20 15 27q15 3 36 3q57 0 79 -4.5t37 -16.5z" />
    <glyph glyph-name="dcaron" unicode="&#x10f;" horiz-adv-x="779" 
d="M186 244v-8q0 -60 29 -98.5t92 -38.5q58 0 89.5 29.5t31.5 84.5v51q0 65 -26.5 96t-89.5 31q-62 0 -94 -40t-32 -107zM405 720h90q42 0 56.5 -12.5t14.5 -45.5v-530q0 -14 5 -18.5t18 -4.5h9q20 0 26.5 -10t6.5 -44t-6.5 -44.5t-26.5 -10.5h-25q-61 0 -89 13.5t-39 45.5
h-19q-16 -32 -55 -51.5t-93 -19.5q-109 0 -173.5 64.5t-64.5 175.5v24q0 115 62 182.5t181 67.5q92 0 133 -67h18q-11 42 -11 86v68q0 12 -4 15.5t-14 3.5h-20q-20 0 -27 10t-7 35q0 37 11.5 52t42.5 15zM691 709h17q35 0 49 -17.5t14 -62.5q0 -88 -34 -169q-6 -15 -15 -19
t-28 -4h-26q-30 0 -20 27q19 54 27 106q-28 6 -39 19.5t-11 46.5q0 40 15.5 56.5t50.5 16.5z" />
    <glyph glyph-name="Dcroat" unicode="&#x110;" horiz-adv-x="813" 
d="M82 720h294q387 0 387 -338v-33q0 -174 -101 -261.5t-280 -87.5h-303q-20 0 -26.5 11t-6.5 45t6.5 45t26.5 11h43v204h-79q-21 0 -27 9.5t-6 42.5q0 34 6 43t27 9h79v188h-40q-20 0 -26.5 11t-6.5 45t6.5 45t26.5 11zM270 608v-188h129q21 0 27.5 -9.5t6.5 -42.5
t-6.5 -42.5t-27.5 -9.5h-129v-204h121q113 0 166 58.5t53 180.5v17q0 240 -247 240h-93z" />
    <glyph glyph-name="dcroat" unicode="&#x111;" horiz-adv-x="669" 
d="M405 720h90q42 0 56.5 -12.5t14.5 -45.5v-63h45q22 0 27 -5.5t5 -36.5q0 -30 -5.5 -36t-26.5 -6h-45v-383q0 -14 5 -18.5t18 -4.5h9q20 0 26.5 -10t6.5 -44t-6.5 -44.5t-26.5 -10.5h-25q-61 0 -89 13.5t-39 45.5h-19q-16 -32 -55 -51.5t-93 -19.5q-109 0 -173.5 64.5
t-64.5 175.5v24q0 115 62 182.5t181 67.5q92 0 133 -67h18q-11 38 -11 80h-85q-22 0 -27.5 6t-5.5 36q0 31 5.5 36.5t27.5 5.5h84q-2 21 -17 21h-20q-20 0 -27 10t-7 35q0 35 10.5 45t43.5 10zM186 244v-8q0 -60 29 -98.5t92 -38.5q58 0 89.5 29.5t31.5 84.5v51
q0 65 -26.5 96t-89.5 31q-62 0 -94 -40t-32 -107z" />
    <glyph glyph-name="Emacron" unicode="&#x112;" horiz-adv-x="756" 
d="M80 720h560q40 0 53.5 -11.5t13.5 -46.5v-109q0 -25 -13.5 -33t-52.5 -8q-41 0 -53.5 8t-12.5 33v55h-307v-188h176v19q0 25 12.5 32t51.5 7q40 0 52 -7t12 -32v-152q0 -24 -12.5 -31t-51.5 -7q-40 0 -52 7t-12 31v23h-176v-198h312v60q0 24 13.5 32t53.5 8t52.5 -7.5
t12.5 -32.5v-114q0 -35 -13 -46.5t-53 -11.5h-569q-20 0 -26.5 11t-6.5 45t6.5 45t26.5 11h43v496h-40q-20 0 -26.5 11t-6.5 45t6.5 45t26.5 11zM222 944h312q20 0 26 -10.5t6 -43.5q0 -32 -6 -42.5t-26 -10.5h-312q-20 0 -26.5 10.5t-6.5 42.5q0 33 6 43.5t27 10.5z" />
    <glyph glyph-name="emacron" unicode="&#x113;" horiz-adv-x="590" 
d="M40 233v26q0 117 70.5 180t193.5 63q125 0 182.5 -57t57.5 -171v-19q0 -30 -16.5 -41t-57.5 -11h-284q2 -55 38 -79.5t117 -24.5q67 0 129 15q23 6 33.5 -1t19.5 -39q9 -33 5 -44.5t-25 -18.5q-75 -23 -176 -23q-146 0 -216.5 60t-70.5 185zM186 297h222q0 99 -107 99
q-115 0 -115 -99zM176 687h251q21 0 27 -10.5t6 -43.5q0 -32 -6.5 -42.5t-26.5 -10.5h-251q-20 0 -26 10.5t-6 42.5q0 33 6 43.5t26 10.5z" />
    <glyph glyph-name="Ebreve" unicode="&#x114;" horiz-adv-x="756" 
d="M80 720h560q40 0 53.5 -11.5t13.5 -46.5v-109q0 -25 -13.5 -33t-52.5 -8q-41 0 -53.5 8t-12.5 33v55h-307v-188h176v19q0 25 12.5 32t51.5 7q40 0 52 -7t12 -32v-152q0 -24 -12.5 -31t-51.5 -7q-40 0 -52 7t-12 31v23h-176v-198h312v60q0 24 13.5 32t53.5 8t52.5 -7.5
t12.5 -32.5v-114q0 -35 -13 -46.5t-53 -11.5h-569q-20 0 -26.5 11t-6.5 45t6.5 45t26.5 11h43v496h-40q-20 0 -26.5 11t-6.5 45t6.5 45t26.5 11zM182 918v7q0 16 13 23.5t48 7.5q29 0 38.5 -6t9.5 -18v-3q0 -38 87 -38t87 38v3q0 12 9.5 18t38.5 6q35 0 48 -7.5t13 -23.5v-7
q0 -58 -51 -90t-145 -32q-99 0 -147.5 33t-48.5 89z" />
    <glyph glyph-name="ebreve" unicode="&#x115;" horiz-adv-x="590" 
d="M40 233v26q0 117 70.5 180t193.5 63q125 0 182.5 -57t57.5 -171v-19q0 -30 -16.5 -41t-57.5 -11h-284q2 -55 38 -79.5t117 -24.5q67 0 129 15q23 6 33.5 -1t19.5 -39q9 -33 5 -44.5t-25 -18.5q-75 -23 -176 -23q-146 0 -216.5 60t-70.5 185zM186 297h222q0 99 -107 99
q-115 0 -115 -99zM139 684v7q0 13 11 18.5t42 5.5t39 -3t8 -13v-4q0 -40 62 -40q59 0 59 40v4q0 10 9 13t38 3q31 0 41.5 -5.5t10.5 -18.5v-7q0 -61 -44.5 -92t-116.5 -31q-74 0 -116.5 30.5t-42.5 92.5z" />
    <glyph glyph-name="Edotaccent" unicode="&#x116;" horiz-adv-x="756" 
d="M80 720h560q40 0 53.5 -11.5t13.5 -46.5v-109q0 -25 -13.5 -33t-52.5 -8q-41 0 -53.5 8t-12.5 33v55h-307v-188h176v19q0 25 12.5 32t51.5 7q40 0 52 -7t12 -32v-152q0 -24 -12.5 -31t-51.5 -7q-40 0 -52 7t-12 31v23h-176v-198h312v60q0 24 13.5 32t53.5 8t52.5 -7.5
t12.5 -32.5v-114q0 -35 -13 -46.5t-53 -11.5h-569q-20 0 -26.5 11t-6.5 45t6.5 45t26.5 11h43v496h-40q-20 0 -26.5 11t-6.5 45t6.5 45t26.5 11zM378 966h22q35 0 53.5 -17.5t18.5 -61.5q0 -45 -12.5 -61.5t-44.5 -16.5h-52q-33 0 -45 16.5t-12 61.5q0 44 18 61.5t54 17.5z
" />
    <glyph glyph-name="edotaccent" unicode="&#x117;" horiz-adv-x="590" 
d="M40 233v26q0 117 70.5 180t193.5 63q125 0 182.5 -57t57.5 -171v-19q0 -30 -16.5 -41t-57.5 -11h-284q2 -55 38 -79.5t117 -24.5q67 0 129 15q23 6 33.5 -1t19.5 -39q9 -33 5 -44.5t-25 -18.5q-75 -23 -176 -23q-146 0 -216.5 60t-70.5 185zM186 297h222q0 99 -107 99
q-115 0 -115 -99zM289 729h20q35 0 53.5 -17t18.5 -61q0 -45 -12.5 -61.5t-44.5 -16.5h-50q-33 0 -45 16.5t-12 61.5q0 44 18 61t54 17z" />
    <glyph glyph-name="Eogonek" unicode="&#x118;" horiz-adv-x="756" 
d="M80 720h560q40 0 53.5 -11.5t13.5 -46.5v-109q0 -25 -13.5 -33t-52.5 -8q-41 0 -53.5 8t-12.5 33v55h-307v-188h176v19q0 25 12.5 32t51.5 7q40 0 52 -7t12 -32v-152q0 -24 -12.5 -31t-51.5 -7q-40 0 -52 7t-12 31v23h-176v-198h312v60q0 24 13.5 32t53.5 8t52.5 -7.5
t12.5 -32.5v-114q0 -40 -24 -53q-36 -20 -59 -52.5t-23 -59.5q0 -29 28 -29q16 0 41 6q8 2 14 -5t10 -27q9 -37 -7 -46q-20 -13 -75 -13q-114 0 -114 96v4q0 32 21 65.5t56 55.5h-503q-20 0 -26.5 11t-6.5 45t6.5 45t26.5 11h43v496h-40q-20 0 -26.5 11t-6.5 45t6.5 45
t26.5 11z" />
    <glyph glyph-name="eogonek" unicode="&#x119;" horiz-adv-x="590" 
d="M40 233v26q0 117 70.5 180t193.5 63q125 0 182.5 -57t57.5 -171v-19q0 -30 -16.5 -41t-57.5 -11h-284q2 -55 38 -79.5t117 -24.5q67 0 129 15q23 6 33.5 -1t19.5 -39q9 -33 5 -44.5t-25 -18.5q-26 -9 -47 -27q-54 -46 -54 -95q0 -25 28 -25q16 0 41 6q8 2 14 -5t10 -27
q9 -37 -7 -46q-20 -13 -75 -13q-114 0 -114 96v4q0 61 60 110q-10 -1 -32 -1q-146 0 -216.5 60t-70.5 185zM186 297h222q0 99 -107 99q-115 0 -115 -99z" />
    <glyph glyph-name="Ecaron" unicode="&#x11a;" horiz-adv-x="756" 
d="M80 720h560q40 0 53.5 -11.5t13.5 -46.5v-109q0 -25 -13.5 -33t-52.5 -8q-41 0 -53.5 8t-12.5 33v55h-307v-188h176v19q0 25 12.5 32t51.5 7q40 0 52 -7t12 -32v-152q0 -24 -12.5 -31t-51.5 -7q-40 0 -52 7t-12 31v23h-176v-198h312v60q0 24 13.5 32t53.5 8t52.5 -7.5
t12.5 -32.5v-114q0 -35 -13 -46.5t-53 -11.5h-569q-20 0 -26.5 11t-6.5 45t6.5 45t26.5 11h43v496h-40q-20 0 -26.5 11t-6.5 45t6.5 45t26.5 11zM314 918l69 -55l74 56q16 12 35.5 16t70.5 4q60 0 57 -18q-1 -5 -8 -11l-128 -104q-28 -24 -87 -25h-28q-57 0 -90 25l-132 103
q-26 20 15 27q15 3 36 3q57 0 79 -4.5t37 -16.5z" />
    <glyph glyph-name="ecaron" unicode="&#x11b;" horiz-adv-x="590" 
d="M40 233v26q0 117 70.5 180t193.5 63q125 0 182.5 -57t57.5 -171v-19q0 -30 -16.5 -41t-57.5 -11h-284q2 -55 38 -79.5t117 -24.5q67 0 129 15q23 6 33.5 -1t19.5 -39q9 -33 5 -44.5t-25 -18.5q-75 -23 -176 -23q-146 0 -216.5 60t-70.5 185zM186 297h222q0 99 -107 99
q-115 0 -115 -99zM250 691l51 -67l51 67q10 12 26 16.5t60 4.5q64 0 59 -21q-1 -4 -4 -8l-88 -104q-20 -23 -41 -30t-63 -7t-63 7t-41 30l-88 104q-18 23 27 28q12 1 28 1q42 0 59.5 -4.5t26.5 -16.5z" />
    <glyph glyph-name="Gcircumflex" unicode="&#x11c;" horiz-adv-x="817" 
d="M50 338v32q0 171 100 266.5t300 95.5q109 0 201 -28q47 -15 63.5 -34.5t16.5 -55.5v-65q0 -25 -14 -32t-59 -7q-44 0 -58.5 7t-14.5 31v48q-70 17 -146 17q-236 0 -236 -244v-18q0 -127 55 -184t187 -57q81 0 146 17v157h-155q-23 0 -30 11t-7 46q0 34 7 45.5t30 11.5
h240q37 0 49 -10.5t12 -42.5v-312q0 -22 -14 -29.5t-53 -7.5q-36 0 -50.5 8.5t-18.5 34.5h-18q-57 -51 -177 -51q-173 0 -264.5 91t-91.5 259zM192 811l127 104q29 25 87 25h28q35 0 53.5 -5.5t36.5 -19.5l131 -103q25 -20 -15 -27q-15 -3 -36 -3q-50 0 -74 5.5t-47 21.5
l-65 46l-59 -45q-22 -17 -47 -22.5t-71 -5.5q-60 0 -57 18q1 5 8 11z" />
    <glyph glyph-name="gcircumflex" unicode="&#x11d;" horiz-adv-x="628" 
d="M165 -74v-3q0 -36 36.5 -51.5t115.5 -15.5t115.5 15.5t36.5 51.5v3q0 34 -36 50t-116 16t-116 -16t-36 -50zM213 329v-5q0 -73 97 -73q98 0 98 73v5q0 74 -98 74q-97 0 -97 -74zM81 322v10q0 83 62 126.5t169 43.5q72 0 125 -21q37 52 120 52q33 0 52 -8q15 -6 18.5 -17
t-0.5 -33q-5 -26 -11 -33.5t-19 -7.5q-6 0 -17.5 1t-16.5 1q-32 0 -46 -17q23 -37 23 -87v-10q0 -170 -230 -170q-65 0 -110 15q-14 -17 -14 -41q0 -30 21 -44q57 9 117 9q280 0 282 -168v-6q0 -80 -68.5 -120t-219.5 -40t-220.5 40t-69.5 120v6q0 82 67 118v13
q-41 25 -41 78q0 59 53 96q-26 36 -26 94zM119 572l88 100q21 24 41 32t63 8h6q43 0 63 -8t41 -32l88 -100q23 -25 -28 -29q-9 -1 -21 -1q-75 0 -96 25l-50 61l-50 -61q-21 -25 -96 -25q-68 0 -54 24q2 3 5 6z" />
    <glyph glyph-name="Gbreve" unicode="&#x11e;" horiz-adv-x="817" 
d="M50 338v32q0 171 100 266.5t300 95.5q109 0 201 -28q47 -15 63.5 -34.5t16.5 -55.5v-65q0 -25 -14 -32t-59 -7q-44 0 -58.5 7t-14.5 31v48q-70 17 -146 17q-236 0 -236 -244v-18q0 -127 55 -184t187 -57q81 0 146 17v157h-155q-23 0 -30 11t-7 46q0 34 7 45.5t30 11.5
h240q37 0 49 -10.5t12 -42.5v-312q0 -22 -14 -29.5t-53 -7.5q-36 0 -50.5 8.5t-18.5 34.5h-18q-57 -51 -177 -51q-173 0 -264.5 91t-91.5 259zM237 918v7q0 16 13 23.5t48 7.5q29 0 38.5 -6t9.5 -18v-3q0 -38 87 -38t87 38v3q0 12 9.5 18t38.5 6q35 0 48 -7.5t13 -23.5v-7
q0 -58 -51 -90t-145 -32q-99 0 -147.5 33t-48.5 89z" />
    <glyph glyph-name="gbreve" unicode="&#x11f;" horiz-adv-x="628" 
d="M165 -74v-3q0 -36 36.5 -51.5t115.5 -15.5t115.5 15.5t36.5 51.5v3q0 34 -36 50t-116 16t-116 -16t-36 -50zM213 329v-5q0 -73 97 -73q98 0 98 73v5q0 74 -98 74q-97 0 -97 -74zM81 322v10q0 83 62 126.5t169 43.5q72 0 125 -21q37 52 120 52q33 0 52 -8q15 -6 18.5 -17
t-0.5 -33q-5 -26 -11 -33.5t-19 -7.5q-6 0 -17.5 1t-16.5 1q-32 0 -46 -17q23 -37 23 -87v-10q0 -170 -230 -170q-65 0 -110 15q-14 -17 -14 -41q0 -30 21 -44q57 9 117 9q280 0 282 -168v-6q0 -80 -68.5 -120t-219.5 -40t-220.5 40t-69.5 120v6q0 82 67 118v13
q-41 25 -41 78q0 59 53 96q-26 36 -26 94zM154 684v7q0 13 11 18.5t42 5.5t39 -3t8 -13v-4q0 -40 62 -40q59 0 59 40v4q0 10 9 13t38 3q31 0 41.5 -5.5t10.5 -18.5v-7q0 -61 -44.5 -92t-116.5 -31q-74 0 -116.5 30.5t-42.5 92.5z" />
    <glyph glyph-name="Gdotaccent" unicode="&#x120;" horiz-adv-x="817" 
d="M50 338v32q0 171 100 266.5t300 95.5q109 0 201 -28q47 -15 63.5 -34.5t16.5 -55.5v-65q0 -25 -14 -32t-59 -7q-44 0 -58.5 7t-14.5 31v48q-70 17 -146 17q-236 0 -236 -244v-18q0 -127 55 -184t187 -57q81 0 146 17v157h-155q-23 0 -30 11t-7 46q0 34 7 45.5t30 11.5
h240q37 0 49 -10.5t12 -42.5v-312q0 -22 -14 -29.5t-53 -7.5q-36 0 -50.5 8.5t-18.5 34.5h-18q-57 -51 -177 -51q-173 0 -264.5 91t-91.5 259zM445 966h22q35 0 53.5 -17.5t18.5 -61.5q0 -45 -12.5 -61.5t-44.5 -16.5h-52q-33 0 -45 16.5t-12 61.5q0 44 18 61.5t54 17.5z
" />
    <glyph glyph-name="gdotaccent" unicode="&#x121;" horiz-adv-x="628" 
d="M165 -74v-3q0 -36 36.5 -51.5t115.5 -15.5t115.5 15.5t36.5 51.5v3q0 34 -36 50t-116 16t-116 -16t-36 -50zM213 329v-5q0 -73 97 -73q98 0 98 73v5q0 74 -98 74q-97 0 -97 -74zM81 322v10q0 83 62 126.5t169 43.5q72 0 125 -21q37 52 120 52q33 0 52 -8q15 -6 18.5 -17
t-0.5 -33q-5 -26 -11 -33.5t-19 -7.5q-6 0 -17.5 1t-16.5 1q-32 0 -46 -17q23 -37 23 -87v-10q0 -170 -230 -170q-65 0 -110 15q-14 -17 -14 -41q0 -30 21 -44q57 9 117 9q280 0 282 -168v-6q0 -80 -68.5 -120t-219.5 -40t-220.5 40t-69.5 120v6q0 82 67 118v13
q-41 25 -41 78q0 59 53 96q-26 36 -26 94zM296 729h20q35 0 53.5 -17t18.5 -61q0 -45 -12.5 -61.5t-44.5 -16.5h-50q-33 0 -45 16.5t-12 61.5q0 44 18 61t54 17z" />
    <glyph glyph-name="Gcommaaccent" unicode="&#x122;" horiz-adv-x="817" 
d="M50 338v32q0 171 100 266.5t300 95.5q109 0 201 -28q47 -15 63.5 -34.5t16.5 -55.5v-65q0 -25 -14 -32t-59 -7q-44 0 -58.5 7t-14.5 31v48q-70 17 -146 17q-236 0 -236 -244v-18q0 -127 55 -184t187 -57q81 0 146 17v157h-155q-23 0 -30 11t-7 46q0 34 7 45.5t30 11.5
h240q37 0 49 -10.5t12 -42.5v-312q0 -22 -14 -29.5t-53 -7.5q-36 0 -50.5 8.5t-18.5 34.5h-18q-57 -51 -177 -51q-173 0 -264.5 91t-91.5 259zM406 -72h17q35 0 49 -17.5t14 -62.5q0 -88 -34 -169q-6 -15 -15 -19t-28 -4h-26q-30 0 -20 27q19 54 27 106q-28 6 -39 19.5
t-11 46.5q0 40 15.5 56.5t50.5 16.5z" />
    <glyph glyph-name="gcommaaccent" unicode="&#x123;" horiz-adv-x="628" 
d="M165 -74v-3q0 -36 36.5 -51.5t115.5 -15.5t115.5 15.5t36.5 51.5v3q0 34 -36 50t-116 16t-116 -16t-36 -50zM213 329v-5q0 -73 97 -73q98 0 98 73v5q0 74 -98 74q-97 0 -97 -74zM81 322v10q0 83 62 126.5t169 43.5q72 0 125 -21q37 52 120 52q33 0 52 -8q15 -6 18.5 -17
t-0.5 -33q-5 -26 -11 -33.5t-19 -7.5q-6 0 -17.5 1t-16.5 1q-32 0 -46 -17q23 -37 23 -87v-10q0 -170 -230 -170q-65 0 -110 15q-14 -17 -14 -41q0 -30 21 -44q57 9 117 9q280 0 282 -168v-6q0 -80 -68.5 -120t-219.5 -40t-220.5 40t-69.5 120v6q0 82 67 118v13
q-41 25 -41 78q0 59 53 96q-26 36 -26 94zM313 548h-17q-35 0 -49 17.5t-14 62.5q0 88 34 169q6 15 15 19t28 4h26q30 0 20 -27q-19 -54 -27 -106q28 -6 39 -19.5t11 -46.5q0 -40 -15.5 -56.5t-50.5 -16.5z" />
    <glyph glyph-name="Hcircumflex" unicode="&#x124;" horiz-adv-x="885" 
d="M80 720h224q21 0 27 -10.5t6 -45.5t-6 -45.5t-27 -10.5h-37v-181h353v181h-39q-20 0 -26.5 11t-6.5 45t6.5 45t26.5 11h224q21 0 27 -10.5t6 -45.5t-6 -45.5t-27 -10.5h-37v-496h40q21 0 27 -10.5t6 -45.5t-6 -45.5t-27 -10.5h-230q-20 0 -26.5 11t-6.5 45t6.5 45
t26.5 11h42v201h-353v-201h40q21 0 27 -10.5t6 -45.5t-6 -45.5t-27 -10.5h-230q-20 0 -26.5 11t-6.5 45t6.5 45t26.5 11h42v496h-39q-20 0 -26.5 11t-6.5 45t6.5 45t26.5 11zM217 811l127 104q29 25 87 25h28q35 0 53.5 -5.5t36.5 -19.5l131 -103q25 -20 -15 -27
q-15 -3 -36 -3q-50 0 -74 5.5t-47 21.5l-65 46l-59 -45q-22 -17 -47 -22.5t-71 -5.5q-60 0 -57 18q1 5 8 11z" />
    <glyph glyph-name="hcircumflex" unicode="&#x125;" horiz-adv-x="701" 
d="M88 720h90q42 0 56.5 -12.5t14.5 -45.5v-105q0 -66 -21 -137h18q38 82 158 82q207 0 207 -246v-144h45q20 0 26.5 -11t6.5 -45t-6.5 -45t-26.5 -11h-227q-20 0 -26.5 11t-6.5 45t6.5 45t26.5 11h39v124q0 81 -19 117.5t-78 36.5q-122 0 -122 -116v-162h40q20 0 26.5 -11
t6.5 -45t-6.5 -45t-26.5 -11h-222q-20 0 -26.5 11t-6.5 45t6.5 45t26.5 11h39v477q0 12 -4 15.5t-14 3.5h-20q-20 0 -27 10t-7 35q0 37 11.5 52t42.5 15zM-42 783l88 100q21 24 41 32t63 8h6q43 0 63 -8t41 -32l88 -100q23 -25 -28 -29q-9 -1 -21 -1q-75 0 -96 25l-50 61
l-50 -61q-21 -25 -96 -25q-68 0 -54 24q2 3 5 6z" />
    <glyph glyph-name="Hbar" unicode="&#x126;" horiz-adv-x="885" 
d="M80 720h224q21 0 27 -9.5t6 -43.5t-6 -43.5t-27 -9.5h-37v-41h353v41h-39q-20 0 -26.5 9.5t-6.5 43.5t6.5 43.5t26.5 9.5h224q21 0 27 -9.5t6 -43.5t-6 -43.5t-27 -9.5h-37v-41h64q22 0 28 -8.5t6 -41.5q0 -32 -6.5 -41t-27.5 -9h-64v-361h40q21 0 27 -10.5t6 -45.5
t-6 -45.5t-27 -10.5h-230q-20 0 -26.5 11t-6.5 45t6.5 45t26.5 11h42v201h-353v-201h40q21 0 27 -10.5t6 -45.5t-6 -45.5t-27 -10.5h-230q-20 0 -26.5 11t-6.5 45t6.5 45t26.5 11h42v361h-66q-21 0 -27 8.5t-6 41.5t6 41.5t27 8.5h66v41h-39q-20 0 -26.5 9.5t-6.5 43.5
t6.5 43.5t26.5 9.5zM267 473v-46h353v46h-353z" />
    <glyph glyph-name="hbar" unicode="&#x127;" horiz-adv-x="701" 
d="M116 720h53q53 0 66.5 -8.5t13.5 -49.5v-65h85q22 0 27.5 -5.5t5.5 -36.5q0 -30 -5.5 -36t-27.5 -6h-88q-5 -49 -18 -93h18q38 82 158 82q207 0 207 -246v-144h45q20 0 26.5 -11t6.5 -45t-6.5 -45t-26.5 -11h-227q-20 0 -26.5 11t-6.5 45t6.5 45t26.5 11h39v124
q0 81 -19 117.5t-78 36.5q-122 0 -122 -116v-162h40q20 0 26.5 -11t6.5 -45t-6.5 -45t-26.5 -11h-222q-20 0 -26.5 11t-6.5 45t6.5 45t26.5 11h39v401h-45q-21 0 -26.5 6t-5.5 36q0 31 5 36.5t27 5.5h45q0 23 -19 23h-13q-20 0 -27 9.5t-7 33.5q0 22 2.5 33.5t12 17t18 6
t31.5 0.5h12z" />
    <glyph glyph-name="Itilde" unicode="&#x128;" horiz-adv-x="388" 
d="M80 720h228q21 0 27 -10.5t6 -45.5t-6 -45.5t-27 -10.5h-40v-496h43q21 0 27 -10.5t6 -45.5t-6 -45.5t-27 -10.5h-234q-20 0 -26.5 11t-6.5 45t6.5 45t26.5 11h43v496h-40q-20 0 -26.5 11t-6.5 45t6.5 45t26.5 11zM-31 887q39 86 146 86q39 0 92 -30t71 -30q34 0 56 32
q12 17 54 -4q39 -22 31 -45q-33 -90 -140 -90q-37 0 -90.5 29t-74.5 29q-39 0 -63 -33q-14 -20 -56 13q-34 24 -26 43z" />
    <glyph glyph-name="itilde" unicode="&#x129;" horiz-adv-x="353" 
d="M88 490h89q42 0 57 -12.5t15 -46.5v-319h45q20 0 26.5 -11t6.5 -45t-6.5 -45t-26.5 -11h-227q-20 0 -26.5 11t-6.5 45t6.5 45t26.5 11h39v247q0 11 -4.5 15t-14.5 4h-19q-20 0 -27 10t-7 35q0 37 11.5 52t42.5 15zM-27 643q37 86 134 86q38 0 81.5 -29t61.5 -29
q15 0 24.5 6.5t23.5 25.5q13 18 52 -4q38 -21 29 -43q-36 -90 -127 -90q-35 0 -80.5 28.5t-64.5 28.5q-20 0 -31.5 -7.5t-24.5 -26.5q-13 -18 -54 12q-32 24 -24 42z" />
    <glyph glyph-name="Imacron" unicode="&#x12a;" horiz-adv-x="388" 
d="M80 720h228q21 0 27 -10.5t6 -45.5t-6 -45.5t-27 -10.5h-40v-496h43q21 0 27 -10.5t6 -45.5t-6 -45.5t-27 -10.5h-234q-20 0 -26.5 11t-6.5 45t6.5 45t26.5 11h43v496h-40q-20 0 -26.5 11t-6.5 45t6.5 45t26.5 11zM39 944h312q20 0 26 -10.5t6 -43.5q0 -32 -6 -42.5
t-26 -10.5h-312q-20 0 -26.5 10.5t-6.5 42.5q0 33 6 43.5t27 10.5z" />
    <glyph glyph-name="imacron" unicode="&#x12b;" horiz-adv-x="353" 
d="M88 490h89q42 0 57 -12.5t15 -46.5v-319h45q20 0 26.5 -11t6.5 -45t-6.5 -45t-26.5 -11h-227q-20 0 -26.5 11t-6.5 45t6.5 45t26.5 11h39v247q0 11 -4.5 15t-14.5 4h-19q-20 0 -27 10t-7 35q0 37 11.5 52t42.5 15zM33 687h251q21 0 27 -10.5t6 -43.5q0 -32 -6.5 -42.5
t-26.5 -10.5h-251q-20 0 -26 10.5t-6 42.5q0 33 6 43.5t26 10.5z" />
    <glyph glyph-name="Ibreve" unicode="&#x12c;" horiz-adv-x="388" 
d="M80 720h228q21 0 27 -10.5t6 -45.5t-6 -45.5t-27 -10.5h-40v-496h43q21 0 27 -10.5t6 -45.5t-6 -45.5t-27 -10.5h-234q-20 0 -26.5 11t-6.5 45t6.5 45t26.5 11h43v496h-40q-20 0 -26.5 11t-6.5 45t6.5 45t26.5 11zM-2 918v7q0 16 13 23.5t48 7.5q29 0 38.5 -6t9.5 -18v-3
q0 -38 87 -38t87 38v3q0 12 9.5 18t38.5 6q35 0 48 -7.5t13 -23.5v-7q0 -58 -51 -90t-145 -32q-99 0 -147.5 33t-48.5 89z" />
    <glyph glyph-name="ibreve" unicode="&#x12d;" horiz-adv-x="353" 
d="M88 490h89q42 0 57 -12.5t15 -46.5v-319h45q20 0 26.5 -11t6.5 -45t-6.5 -45t-26.5 -11h-227q-20 0 -26.5 11t-6.5 45t6.5 45t26.5 11h39v247q0 11 -4.5 15t-14.5 4h-19q-20 0 -27 10t-7 35q0 37 11.5 52t42.5 15zM-1 684v7q0 13 11 18.5t42 5.5t39 -3t8 -13v-4
q0 -40 62 -40q59 0 59 40v4q0 10 9 13t38 3q31 0 41.5 -5.5t10.5 -18.5v-7q0 -61 -44.5 -92t-116.5 -31q-74 0 -116.5 30.5t-42.5 92.5z" />
    <glyph glyph-name="Iogonek" unicode="&#x12e;" horiz-adv-x="388" 
d="M80 720h228q21 0 27 -10.5t6 -45.5t-6 -45.5t-27 -10.5h-40v-496h43q21 0 27 -11t6 -45q0 -28 -3 -37.5t-13 -16.5q-78 -58 -78 -113q0 -25 28 -25q16 0 41 6q8 2 14 -5t10 -27q9 -37 -7 -46q-20 -13 -75 -13q-114 0 -114 96v4q0 32 21 65.5t56 55.5h-147
q-20 0 -26.5 11.5t-6.5 44.5q0 34 6 45t27 11h43v496h-40q-20 0 -26.5 11t-6.5 45t6.5 45t26.5 11z" />
    <glyph glyph-name="iogonek" unicode="&#x12f;" horiz-adv-x="353" 
d="M157 738h20q37 0 56.5 -18t19.5 -64q0 -48 -12.5 -65t-46.5 -17h-53q-35 0 -47.5 17t-12.5 65q0 46 19.5 64t56.5 18zM88 490h89q42 0 57 -12.5t15 -46.5v-319h45q20 0 26.5 -11t6.5 -45t-6.5 -45t-26.5 -11h-20q-35 -25 -54.5 -55t-19.5 -56q0 -25 28 -25q16 0 41 6
q8 2 14 -5t10 -27q9 -37 -7 -46q-20 -13 -75 -13q-114 0 -114 96v4q0 32 21 65.5t56 55.5h-107q-20 0 -26.5 11t-6.5 45t6.5 45t26.5 11h39v247q0 11 -4.5 15t-14.5 4h-19q-20 0 -27 10t-7 35q0 37 11.5 52t42.5 15z" />
    <glyph glyph-name="Idotaccent" unicode="&#x130;" horiz-adv-x="388" 
d="M80 720h228q21 0 27 -10.5t6 -45.5t-6 -45.5t-27 -10.5h-40v-496h43q21 0 27 -10.5t6 -45.5t-6 -45.5t-27 -10.5h-234q-20 0 -26.5 11t-6.5 45t6.5 45t26.5 11h43v496h-40q-20 0 -26.5 11t-6.5 45t6.5 45t26.5 11zM183 966h22q35 0 53.5 -17.5t18.5 -61.5
q0 -45 -12.5 -61.5t-44.5 -16.5h-52q-33 0 -45 16.5t-12 61.5q0 44 18 61.5t54 17.5z" />
    <glyph glyph-name="dotlessi" unicode="&#x131;" horiz-adv-x="353" 
d="M88 490h89q42 0 57 -12.5t15 -46.5v-319h45q20 0 26.5 -11t6.5 -45t-6.5 -45t-26.5 -11h-227q-20 0 -26.5 11t-6.5 45t6.5 45t26.5 11h39v247q0 11 -4.5 15t-14.5 4h-19q-20 0 -27 10t-7 35q0 37 11.5 52t42.5 15z" />
    <glyph glyph-name="IJ" unicode="&#x132;" horiz-adv-x="918" 
d="M80 720h228q21 0 27 -10.5t6 -45.5t-6 -45.5t-27 -10.5h-40v-496h43q21 0 27 -10.5t6 -45.5t-6 -45.5t-27 -10.5h-234q-20 0 -26.5 11t-6.5 45t6.5 45t26.5 11h43v496h-40q-20 0 -26.5 11t-6.5 45t6.5 45t26.5 11zM588 720h267q21 0 27 -10.5t6 -45.5t-6 -45.5t-27 -10.5
h-30v-366q0 -136 -53.5 -195t-193.5 -59q-85 0 -152 26q-18 7 -19 23.5t8 40.5q10 32 21 42t32 3q51 -17 106 -17q58 0 80.5 25t22.5 89v388h-89q-20 0 -26.5 11t-6.5 45t6.5 45t26.5 11z" />
    <glyph glyph-name="ij" unicode="&#x133;" horiz-adv-x="680" 
d="M88 490h89q42 0 57 -12.5t15 -46.5v-319h45q20 0 26.5 -11t6.5 -45t-6.5 -45t-26.5 -11h-227q-20 0 -26.5 11t-6.5 45t6.5 45t26.5 11h39v247q0 11 -4.5 15t-14.5 4h-19q-20 0 -27 10t-7 35q0 37 11.5 52t42.5 15zM157 738h20q37 0 56.5 -18t19.5 -64q0 -48 -12.5 -65
t-46.5 -17h-53q-35 0 -47.5 17t-12.5 65q0 46 19.5 64t56.5 18zM520 738h20q37 0 56.5 -18t19.5 -64q0 -48 -12.5 -65t-46.5 -17h-53q-35 0 -47.5 17t-12.5 65q0 46 19.5 64t56.5 18zM454 490h86q42 0 57 -12.5t15 -46.5v-441q0 -125 -41.5 -175.5t-149.5 -50.5
q-62 0 -105 17q-19 8 -22 22.5t7 42.5q9 29 19 37.5t29 3.5q32 -8 59 -8q35 0 48 18t13 67v395q0 11 -4.5 15t-14.5 4h-16q-20 0 -27 10t-7 35q0 37 11.5 52t42.5 15z" />
    <glyph glyph-name="Jcircumflex" unicode="&#x134;" horiz-adv-x="546" 
d="M216 720h267q21 0 27 -10.5t6 -45.5t-6 -45.5t-27 -10.5h-30v-366q0 -136 -53.5 -195t-193.5 -59q-85 0 -152 26q-18 7 -19 23.5t8 40.5q10 32 21 42t32 3q51 -17 106 -17q58 0 80.5 25t22.5 89v388h-89q-20 0 -26.5 11t-6.5 45t6.5 45t26.5 11zM117 811l127 104
q29 25 87 25h28q35 0 53.5 -5.5t36.5 -19.5l131 -103q25 -20 -15 -27q-15 -3 -36 -3q-50 0 -74 5.5t-47 21.5l-65 46l-59 -45q-22 -17 -47 -22.5t-71 -5.5q-60 0 -57 18q1 5 8 11z" />
    <glyph glyph-name="jcircumflex" unicode="&#x135;" horiz-adv-x="345" 
d="M119 491h86q42 0 57 -12.5t15 -46.5v-442q0 -125 -41.5 -175.5t-149.5 -50.5q-62 0 -105 17q-19 8 -22 22.5t7 42.5q9 29 19 37.5t29 3.5q32 -8 59 -8q35 0 48 18t13 67v396q0 11 -4.5 15t-14.5 4h-16q-20 0 -27 10t-7 35q0 37 11.5 52t42.5 15zM-22 572l88 100
q21 24 41 32t63 8h6q43 0 63 -8t41 -32l88 -100q23 -25 -28 -29q-9 -1 -21 -1q-75 0 -96 25l-50 61l-50 -61q-21 -25 -96 -25q-68 0 -54 24q2 3 5 6z" />
    <glyph glyph-name="Kcommaaccent" unicode="&#x136;" horiz-adv-x="800" 
d="M80 720h224q21 0 27 -10.5t6 -45.5t-6 -45.5t-27 -10.5h-36v-190h123l138 190h-44q-20 0 -26.5 11t-6.5 45t6.5 45t26.5 11h247q21 0 27 -10.5t6 -45.5t-6 -45.5t-27 -10.5h-49l-172 -229l190 -267h36q21 0 27 -10.5t6 -45.5t-6 -45.5t-27 -10.5h-82q-38 0 -57 11.5
t-41 42.5l-170 250h-119v-192h47q21 0 27 -10.5t6 -45.5t-6 -45.5t-27 -10.5h-238q-20 0 -26.5 11t-6.5 45t6.5 45t26.5 11h43v496h-40q-20 0 -26.5 11t-6.5 45t6.5 45t26.5 11zM443 -72h17q35 0 49 -17.5t14 -62.5q0 -88 -34 -169q-6 -15 -15 -19t-28 -4h-26q-30 0 -20 27
q19 54 27 106q-28 6 -39 19.5t-11 46.5q0 40 15.5 56.5t50.5 16.5z" />
    <glyph glyph-name="kcommaaccent" unicode="&#x137;" horiz-adv-x="662" 
d="M88 720h89q42 0 57 -12.5t15 -46.5v-361h88l57 78h-20q-20 0 -26.5 11t-6.5 45t6.5 45t26.5 11h202q20 0 26.5 -11t6.5 -45t-6.5 -45t-26.5 -11h-36l-81 -110l108 -161h34q20 0 26.5 -11t6.5 -45t-6.5 -45t-26.5 -11h-65q-37 0 -58.5 11.5t-39.5 40.5l-97 153h-92v-88h25
q20 0 26.5 -11t6.5 -45t-6.5 -45t-26.5 -11h-207q-20 0 -26.5 11t-6.5 45t6.5 45t26.5 11h39v477q0 11 -4.5 15t-14.5 4h-19q-20 0 -27 10t-7 35q0 37 11.5 52t42.5 15zM365 -72h17q35 0 49 -17.5t14 -62.5q0 -88 -34 -169q-6 -15 -15 -19t-28 -4h-26q-30 0 -20 27
q19 54 27 106q-28 6 -39 19.5t-11 46.5q0 40 15.5 56.5t50.5 16.5z" />
    <glyph glyph-name="kgreenlandic" unicode="&#x138;" horiz-adv-x="665" 
d="M91 490h89q42 0 57 -12.5t15 -46.5v-131h88l57 78h-20q-20 0 -26.5 11t-6.5 45t6.5 45t26.5 11h202q20 0 26.5 -11t6.5 -45t-6.5 -45t-26.5 -11h-36l-81 -110l108 -161h34q20 0 26.5 -11t6.5 -45t-6.5 -45t-26.5 -11h-65q-37 0 -58.5 11.5t-39.5 40.5l-97 153h-92v-88h25
q20 0 26.5 -11t6.5 -45t-6.5 -45t-26.5 -11h-207q-20 0 -26.5 11t-6.5 45t6.5 45t26.5 11h39v247q0 11 -4.5 15t-14.5 4h-19q-20 0 -27 10t-7 35q0 37 11.5 52t42.5 15z" />
    <glyph glyph-name="Lacute" unicode="&#x139;" horiz-adv-x="696" 
d="M80 720h248q21 0 27 -10.5t6 -45.5t-6 -45.5t-27 -10.5h-60v-496h276v68q0 25 13 32.5t54 7.5q40 0 52.5 -7.5t12.5 -32.5v-122q0 -35 -13 -46.5t-53 -11.5h-533q-20 0 -26.5 11t-6.5 45t6.5 45t26.5 11h43v496h-40q-20 0 -26.5 11t-6.5 45t6.5 45t26.5 11zM92 813
l117 100q35 30 111 30q54 0 62 -20q4 -8 -6 -15l-134 -101q-36 -26 -97 -26q-54 0 -59 18q-3 7 6 14z" />
    <glyph glyph-name="lacute" unicode="&#x13a;" horiz-adv-x="353" 
d="M88 720h89q42 0 57 -12.5t15 -46.5v-549h45q20 0 26.5 -11t6.5 -45t-6.5 -45t-26.5 -11h-227q-20 0 -26.5 11t-6.5 45t6.5 45t26.5 11h39v477q0 11 -4.5 15t-14.5 4h-19q-20 0 -27 10t-7 35q0 37 11.5 52t42.5 15zM54 791l104 116q26 30 107 30q67 0 63 -20q-1 -5 -6 -10
l-122 -116q-28 -26 -92 -26q-63 0 -59 18q1 4 5 8z" />
    <glyph glyph-name="Lcommaaccent" unicode="&#x13b;" horiz-adv-x="696" 
d="M80 720h248q21 0 27 -10.5t6 -45.5t-6 -45.5t-27 -10.5h-60v-496h276v68q0 25 13 32.5t54 7.5q40 0 52.5 -7.5t12.5 -32.5v-122q0 -35 -13 -46.5t-53 -11.5h-533q-20 0 -26.5 11t-6.5 45t6.5 45t26.5 11h43v496h-40q-20 0 -26.5 11t-6.5 45t6.5 45t26.5 11zM357 -72h17
q35 0 49 -17.5t14 -62.5q0 -88 -34 -169q-6 -15 -15 -19t-28 -4h-26q-30 0 -20 27q19 54 27 106q-28 6 -39 19.5t-11 46.5q0 40 15.5 56.5t50.5 16.5z" />
    <glyph glyph-name="lcommaaccent" unicode="&#x13c;" horiz-adv-x="353" 
d="M88 720h89q42 0 57 -12.5t15 -46.5v-549h45q20 0 26.5 -11t6.5 -45t-6.5 -45t-26.5 -11h-227q-20 0 -26.5 11t-6.5 45t6.5 45t26.5 11h39v477q0 11 -4.5 15t-14.5 4h-19q-20 0 -27 10t-7 35q0 37 11.5 52t42.5 15zM171 -72h17q35 0 49 -17.5t14 -62.5q0 -88 -34 -169
q-6 -15 -15 -19t-28 -4h-26q-30 0 -20 27q19 54 27 106q-28 6 -39 19.5t-11 46.5q0 40 15.5 56.5t50.5 16.5z" />
    <glyph glyph-name="Lcaron" unicode="&#x13d;" horiz-adv-x="696" 
d="M80 720h248q21 0 27 -10.5t6 -45.5t-6 -45.5t-27 -10.5h-60v-496h276v68q0 25 13 32.5t54 7.5q40 0 52.5 -7.5t12.5 -32.5v-122q0 -35 -13 -46.5t-53 -11.5h-533q-20 0 -26.5 11t-6.5 45t6.5 45t26.5 11h43v496h-40q-20 0 -26.5 11t-6.5 45t6.5 45t26.5 11zM487 709h17
q35 0 49 -17.5t14 -62.5q0 -88 -34 -169q-6 -15 -15 -19t-28 -4h-26q-30 0 -20 27q19 54 27 106q-28 6 -39 19.5t-11 46.5q0 40 15.5 56.5t50.5 16.5z" />
    <glyph glyph-name="lcaron" unicode="&#x13e;" horiz-adv-x="461" 
d="M88 720h89q42 0 57 -12.5t15 -46.5v-549h45q20 0 26.5 -11t6.5 -45t-6.5 -45t-26.5 -11h-227q-20 0 -26.5 11t-6.5 45t6.5 45t26.5 11h39v477q0 11 -4.5 15t-14.5 4h-19q-20 0 -27 10t-7 35q0 37 11.5 52t42.5 15zM373 708h17q35 0 49 -17.5t14 -62.5q0 -88 -34 -169
q-6 -15 -15 -19t-28 -4h-26q-30 0 -20 27q19 54 27 106q-28 6 -39 19.5t-11 46.5q0 40 15.5 56.5t50.5 16.5z" />
    <glyph glyph-name="Ldot" unicode="&#x13f;" horiz-adv-x="696" 
d="M80 720h248q21 0 27 -10.5t6 -45.5t-6 -45.5t-27 -10.5h-60v-496h276v68q0 25 13 32.5t54 7.5q40 0 52.5 -7.5t12.5 -32.5v-122q0 -35 -13 -46.5t-53 -11.5h-533q-20 0 -26.5 11t-6.5 45t6.5 45t26.5 11h43v496h-40q-20 0 -26.5 11t-6.5 45t6.5 45t26.5 11zM453 486h20
q35 0 53.5 -17t18.5 -61q0 -45 -12.5 -61.5t-44.5 -16.5h-50q-33 0 -45 16.5t-12 61.5q0 44 18 61t54 17z" />
    <glyph glyph-name="ldot" unicode="&#x140;" horiz-adv-x="487" 
d="M88 720h89q42 0 57 -12.5t15 -46.5v-549h45q20 0 26.5 -11t6.5 -45t-6.5 -45t-26.5 -11h-227q-20 0 -26.5 11t-6.5 45t6.5 45t26.5 11h39v477q0 11 -4.5 15t-14.5 4h-19q-20 0 -27 10t-7 35q0 37 11.5 52t42.5 15zM401 507h21q37 0 56 -17.5t19 -63.5q0 -47 -12.5 -64
t-46.5 -17h-52q-35 0 -47.5 17t-12.5 64q0 45 19 63t56 18z" />
    <glyph glyph-name="Lslash" unicode="&#x141;" horiz-adv-x="704" 
d="M88 720h248q21 0 27 -10.5t6 -45.5t-6 -45.5t-27 -10.5h-60v-192l74 23q21 6 28 -5t7 -43q0 -17 -1 -25.5t-7.5 -18.5t-19.5 -14l-81 -25v-196h276v68q0 25 13 32.5t54 7.5q40 0 52.5 -7.5t12.5 -32.5v-122q0 -35 -13 -46.5t-53 -11.5h-533q-20 0 -26.5 11t-6.5 45
t6.5 45t26.5 11h43v151l-63 -19q-16 -5 -22 5t-6 44q0 31 5 41.5t23 15.5l63 19v239h-40q-20 0 -26.5 11t-6.5 45t6.5 45t26.5 11z" />
    <glyph glyph-name="lslash" unicode="&#x142;" horiz-adv-x="352" 
d="M87 720h89q42 0 57 -12.5t15 -46.5v-186l72 33q15 7 21.5 -5t6.5 -44q0 -13 -0.5 -20t-2.5 -16.5t-8 -16t-15 -10.5l-74 -33v-251h45q20 0 26.5 -11t6.5 -45t-6.5 -45t-26.5 -11h-227q-20 0 -26.5 11t-6.5 45t6.5 45t26.5 11h39v187l-72 -32q-12 -6 -18.5 7.5t-6.5 42.5
q0 41 7 50q4 6 13 10l77 34v178q0 11 -4.5 15t-14.5 4h-19q-20 0 -27 10t-7 35q0 37 11.5 52t42.5 15z" />
    <glyph glyph-name="Nacute" unicode="&#x143;" horiz-adv-x="886" 
d="M80 720h209q35 0 53.5 -10.5t31.5 -36.5l206 -398q38 -74 65 -173h18v506h-49q-21 0 -27 10.5t-6 45.5t6 45.5t27 10.5h217q20 0 26.5 -11t6.5 -45t-6.5 -45t-26.5 -11h-40v-572q0 -22 -13 -32t-45 -10h-107q-34 0 -54.5 11t-33.5 37l-214 411q-34 63 -58 163h-18v-504
h52q21 0 27 -10.5t6 -45.5t-6 -45.5t-27 -10.5h-223q-20 0 -26.5 11t-6.5 45t6.5 45t26.5 11h43v496h-40q-20 0 -26.5 11t-6.5 45t6.5 45t26.5 11zM362 813l117 100q35 30 111 30q54 0 62 -20q4 -8 -6 -15l-134 -101q-36 -26 -97 -26q-54 0 -59 18q-3 7 6 14z" />
    <glyph glyph-name="nacute" unicode="&#x144;" horiz-adv-x="703" 
d="M91 490h67q31 0 44.5 -10.5t18.5 -37.5l3 -22h17q22 44 59.5 63t100.5 19q212 0 212 -246v-144h45q20 0 26.5 -11t6.5 -45t-6.5 -45t-26.5 -11h-227q-20 0 -26.5 11t-6.5 45t6.5 45t26.5 11h39v130q0 83 -22 115.5t-79 32.5q-117 0 -117 -116v-162h39q20 0 26.5 -11
t6.5 -45t-6.5 -45t-26.5 -11h-221q-20 0 -26.5 11t-6.5 45t6.5 45t26.5 11h39v247q0 11 -4.5 15t-14.5 4h-19q-20 0 -27 10t-7 35q0 37 11.5 52t42.5 15zM238 568l104 116q26 30 107 30q67 0 63 -20q-1 -5 -6 -10l-122 -116q-28 -26 -92 -26q-63 0 -59 18q1 4 5 8z" />
    <glyph glyph-name="Ncommaaccent" unicode="&#x145;" horiz-adv-x="886" 
d="M80 720h209q35 0 53.5 -10.5t31.5 -36.5l206 -398q38 -74 65 -173h18v506h-49q-21 0 -27 10.5t-6 45.5t6 45.5t27 10.5h217q20 0 26.5 -11t6.5 -45t-6.5 -45t-26.5 -11h-40v-572q0 -22 -13 -32t-45 -10h-107q-34 0 -54.5 11t-33.5 37l-214 411q-34 63 -58 163h-18v-504
h52q21 0 27 -10.5t6 -45.5t-6 -45.5t-27 -10.5h-223q-20 0 -26.5 11t-6.5 45t6.5 45t26.5 11h43v496h-40q-20 0 -26.5 11t-6.5 45t6.5 45t26.5 11zM452 -72h17q35 0 49 -17.5t14 -62.5q0 -88 -34 -169q-6 -15 -15 -19t-28 -4h-26q-30 0 -20 27q19 54 27 106q-28 6 -39 19.5
t-11 46.5q0 40 15.5 56.5t50.5 16.5z" />
    <glyph glyph-name="ncommaaccent" unicode="&#x146;" horiz-adv-x="703" 
d="M91 490h67q31 0 44.5 -10.5t18.5 -37.5l3 -22h17q22 44 59.5 63t100.5 19q212 0 212 -246v-144h45q20 0 26.5 -11t6.5 -45t-6.5 -45t-26.5 -11h-227q-20 0 -26.5 11t-6.5 45t6.5 45t26.5 11h39v130q0 83 -22 115.5t-79 32.5q-117 0 -117 -116v-162h39q20 0 26.5 -11
t6.5 -45t-6.5 -45t-26.5 -11h-221q-20 0 -26.5 11t-6.5 45t6.5 45t26.5 11h39v247q0 11 -4.5 15t-14.5 4h-19q-20 0 -27 10t-7 35q0 37 11.5 52t42.5 15zM356 -72h17q35 0 49 -17.5t14 -62.5q0 -88 -34 -169q-6 -15 -15 -19t-28 -4h-26q-30 0 -20 27q19 54 27 106
q-28 6 -39 19.5t-11 46.5q0 40 15.5 56.5t50.5 16.5z" />
    <glyph glyph-name="Ncaron" unicode="&#x147;" horiz-adv-x="886" 
d="M80 720h209q35 0 53.5 -10.5t31.5 -36.5l206 -398q38 -74 65 -173h18v506h-49q-21 0 -27 10.5t-6 45.5t6 45.5t27 10.5h217q20 0 26.5 -11t6.5 -45t-6.5 -45t-26.5 -11h-40v-572q0 -22 -13 -32t-45 -10h-107q-34 0 -54.5 11t-33.5 37l-214 411q-34 63 -58 163h-18v-504
h52q21 0 27 -10.5t6 -45.5t-6 -45.5t-27 -10.5h-223q-20 0 -26.5 11t-6.5 45t6.5 45t26.5 11h43v496h-40q-20 0 -26.5 11t-6.5 45t6.5 45t26.5 11zM383 918l69 -55l74 56q16 12 35 16t71 4q60 0 57 -18q-1 -5 -8 -11l-128 -104q-28 -24 -87 -25h-28q-57 0 -90 25l-132 103
q-26 20 15 27q15 3 36 3q57 0 79 -4.5t37 -16.5z" />
    <glyph glyph-name="ncaron" unicode="&#x148;" horiz-adv-x="703" 
d="M91 490h67q31 0 44.5 -10.5t18.5 -37.5l3 -22h17q22 44 59.5 63t100.5 19q212 0 212 -246v-144h45q20 0 26.5 -11t6.5 -45t-6.5 -45t-26.5 -11h-227q-20 0 -26.5 11t-6.5 45t6.5 45t26.5 11h39v130q0 83 -22 115.5t-79 32.5q-117 0 -117 -116v-162h39q20 0 26.5 -11
t6.5 -45t-6.5 -45t-26.5 -11h-221q-20 0 -26.5 11t-6.5 45t6.5 45t26.5 11h39v247q0 11 -4.5 15t-14.5 4h-19q-20 0 -27 10t-7 35q0 37 11.5 52t42.5 15zM300 691l51 -67l51 67q10 12 26 16.5t60 4.5q64 0 59 -21q-1 -4 -4 -8l-88 -104q-20 -23 -41 -30t-63 -7t-63 7t-41 30
l-88 104q-18 23 27 28q12 1 28 1q42 0 59.5 -4.5t26.5 -16.5z" />
    <glyph glyph-name="napostrophe" unicode="&#x149;" horiz-adv-x="706" 
d="M94 490h67q31 0 44.5 -10.5t18.5 -37.5l3 -22h17q22 44 60 63t100 19q212 0 212 -246v-144h45q20 0 26.5 -11t6.5 -45t-6.5 -45t-26.5 -11h-227q-20 0 -26.5 11t-6.5 45t6.5 45t26.5 11h39v130q0 83 -22 115.5t-79 32.5q-117 0 -117 -116v-162h39q20 0 26.5 -11t6.5 -45
t-6.5 -45t-26.5 -11h-221q-20 0 -26.5 11t-6.5 45t6.5 45t26.5 11h39v247q0 11 -4.5 15t-14.5 4h-19q-20 0 -27 10t-7 35q0 37 11.5 52t42.5 15zM-14 791h17q35 0 49 -17.5t14 -62.5q0 -88 -34 -169q-6 -15 -15 -19t-28 -4h-26q-30 0 -20 27q19 54 27 106q-28 6 -39 19.5
t-11 46.5q0 40 15.5 56.5t50.5 16.5z" />
    <glyph glyph-name="Eng" unicode="&#x14a;" horiz-adv-x="894" 
d="M80 720h209q35 0 53.5 -10.5t31.5 -36.5l206 -398q38 -74 65 -173h19v506h-50q-21 0 -27 10.5t-6 45.5t6 45.5t27 10.5h217q20 0 26.5 -11t6.5 -45t-6.5 -45t-26.5 -11h-39v-590q0 -138 -49 -196t-187 -58q-85 0 -152 26q-18 7 -19 23.5t8 40.5q10 32 21 42t32 3
q51 -17 106 -17q59 0 85.5 25.5t26.5 86.5h-38q-34 0 -54.5 11t-33.5 37l-214 411q-34 63 -58 163h-18v-504h52q21 0 27 -10.5t6 -45.5t-6 -45.5t-27 -10.5h-223q-20 0 -26.5 11t-6.5 45t6.5 45t26.5 11h43v496h-40q-20 0 -26.5 11t-6.5 45t6.5 45t26.5 11z" />
    <glyph glyph-name="eng" unicode="&#x14b;" horiz-adv-x="677" 
d="M91 490h67q31 0 44.5 -10.5t18.5 -37.5l3 -22h17q22 44 59.5 63t100.5 19q212 0 212 -246v-266q0 -125 -41.5 -175.5t-149.5 -50.5q-62 0 -105 17q-19 8 -22 22.5t7 42.5q9 29 19 37.5t29 3.5q32 -8 59 -8q35 0 48 18t13 67v278q0 83 -22 115.5t-79 32.5
q-117 0 -117 -116v-162h39q20 0 26.5 -11t6.5 -45t-6.5 -45t-26.5 -11h-221q-20 0 -26.5 11t-6.5 45t6.5 45t26.5 11h39v247q0 11 -4.5 15t-14.5 4h-19q-20 0 -27 10t-7 35q0 37 11.5 52t42.5 15z" />
    <glyph glyph-name="Omacron" unicode="&#x14c;" horiz-adv-x="816" 
d="M203 370v-21q0 -247 205 -247t205 247v21q0 248 -205 248t-205 -248zM50 340v38q0 173 93.5 263.5t265.5 90.5q170 0 263.5 -90.5t93.5 -263.5v-38q0 -173 -93.5 -262.5t-264.5 -89.5t-264.5 89.5t-93.5 262.5zM252 944h312q20 0 26 -10.5t6 -43.5q0 -32 -6 -42.5
t-26 -10.5h-312q-20 0 -26.5 10.5t-6.5 42.5q0 33 6 43.5t27 10.5z" />
    <glyph glyph-name="omacron" unicode="&#x14d;" horiz-adv-x="616" 
d="M186 250v-11q0 -142 122 -142t122 142v11q0 143 -122 143t-122 -143zM40 232v24q0 120 69.5 183t198.5 63t198.5 -63t69.5 -183v-24q0 -120 -69.5 -182t-198.5 -62t-198.5 62t-69.5 182zM182 687h251q21 0 27 -10.5t6 -43.5q0 -32 -6.5 -42.5t-26.5 -10.5h-251
q-20 0 -26 10.5t-6 42.5q0 33 6 43.5t26 10.5z" />
    <glyph glyph-name="Obreve" unicode="&#x14e;" horiz-adv-x="816" 
d="M203 370v-21q0 -247 205 -247t205 247v21q0 248 -205 248t-205 -248zM50 340v38q0 173 93.5 263.5t265.5 90.5q170 0 263.5 -90.5t93.5 -263.5v-38q0 -173 -93.5 -262.5t-264.5 -89.5t-264.5 89.5t-93.5 262.5zM211 918v7q0 16 13 23.5t48 7.5q29 0 38.5 -6t9.5 -18v-3
q0 -38 87 -38t87 38v3q0 12 9.5 18t38.5 6q35 0 48 -7.5t13 -23.5v-7q0 -58 -51 -90t-145 -32q-99 0 -147.5 33t-48.5 89z" />
    <glyph glyph-name="obreve" unicode="&#x14f;" horiz-adv-x="616" 
d="M186 250v-11q0 -142 122 -142t122 142v11q0 143 -122 143t-122 -143zM40 232v24q0 120 69.5 183t198.5 63t198.5 -63t69.5 -183v-24q0 -120 -69.5 -182t-198.5 -62t-198.5 62t-69.5 182zM146 684v7q0 13 11 18.5t42 5.5t39 -3t8 -13v-4q0 -40 62 -40q59 0 59 40v4
q0 10 9 13t38 3q31 0 41.5 -5.5t10.5 -18.5v-7q0 -61 -44.5 -92t-116.5 -31q-74 0 -116.5 30.5t-42.5 92.5z" />
    <glyph glyph-name="Ohungarumlaut" unicode="&#x150;" horiz-adv-x="816" 
d="M203 370v-21q0 -247 205 -247t205 247v21q0 248 -205 248t-205 -248zM50 340v38q0 173 93.5 263.5t265.5 90.5q170 0 263.5 -90.5t93.5 -263.5v-38q0 -173 -93.5 -262.5t-264.5 -89.5t-264.5 89.5t-93.5 262.5zM199 808l76 106q20 30 90 30q71 0 67 -23q-1 -5 -6 -11
l-91 -102q-23 -26 -83 -26q-72 0 -53 26zM445 808l80 106q11 15 29.5 22.5t60.5 7.5q72 0 67 -23q-1 -5 -6 -11l-95 -102q-23 -26 -82 -26q-63 0 -57 20q0 3 3 6z" />
    <glyph glyph-name="ohungarumlaut" unicode="&#x151;" horiz-adv-x="616" 
d="M186 250v-11q0 -142 122 -142t122 142v11q0 143 -122 143t-122 -143zM40 232v24q0 120 69.5 183t198.5 63t198.5 -63t69.5 -183v-24q0 -120 -69.5 -182t-198.5 -62t-198.5 62t-69.5 182zM96 568l65 116q8 16 26 23t66 7q74 0 58 -27q-1 -2 -2 -3l-82 -116
q-11 -15 -26.5 -20.5t-51.5 -5.5q-56 0 -56 17q0 4 3 9zM346 568l64 116q9 16 27 23t66 7q67 0 59 -23q-1 -3 -3 -7l-83 -116q-10 -15 -26 -20.5t-52 -5.5q-16 0 -26.5 1.5t-17 3.5t-9 5.5t-2.5 7t3 8.5z" />
    <glyph glyph-name="OE" unicode="&#x152;" horiz-adv-x="1213" 
d="M50 340v38q0 173 92.5 263.5t259.5 90.5q129 0 193 -53h5q7 27 26 34t80 7h391q40 0 53.5 -11.5t13.5 -46.5v-109q0 -25 -13.5 -33t-52.5 -8q-41 0 -53.5 8t-12.5 33v55h-292v-188h161v19q0 25 12.5 32t51.5 7q40 0 52 -7t12 -32v-152q0 -24 -12.5 -31t-51.5 -7
q-40 0 -52 7t-12 31v23h-161v-198h297v60q0 24 13.5 32t53.5 8t52.5 -7.5t12.5 -32.5v-114q0 -35 -13 -46.5t-53 -11.5h-437q-39 0 -55.5 8.5t-16.5 28.5h-5q-70 -49 -197 -49q-162 0 -252 90t-90 262zM203 370v-21q0 -246 199 -246q198 0 198 246v21q0 248 -198 248
q-199 0 -199 -248z" />
    <glyph glyph-name="oe" unicode="&#x153;" horiz-adv-x="973" 
d="M186 250v-11q0 -142 122 -142q121 0 121 142v11q0 143 -121 143q-122 0 -122 -143zM569 297h222q0 99 -107 99q-115 0 -115 -99zM40 232v24q0 120 69.5 183t196.5 63q136 0 185 -73h18q22 33 68.5 53t106.5 20q126 0 184.5 -57t58.5 -171v-19q0 -30 -16.5 -41t-57.5 -11
h-284q2 -55 38 -79.5t117 -24.5q67 0 129 15q23 6 33.5 -1t19.5 -39q9 -33 5 -44.5t-25 -18.5q-75 -23 -176 -23q-81 0 -127 16.5t-75 54.5h-18q-30 -37 -73.5 -54t-113.5 -17q-125 0 -194 62t-69 182z" />
    <glyph glyph-name="Racute" unicode="&#x154;" horiz-adv-x="766" 
d="M268 604v-222h120q86 0 120 26t34 83v4q0 57 -40 83t-141 26h-93zM120 608h-40q-20 0 -26.5 11t-6.5 45t6.5 45t26.5 11q297 0 313 -1q155 -8 227 -62t72 -155v-14q0 -143 -133 -190l107 -186h37q21 0 27 -10.5t6 -45.5t-6 -45.5t-27 -10.5h-45q-66 0 -91.5 11t-46.5 52
l-109 209h-143v-160h57q21 0 27 -10.5t6 -45.5t-6 -45.5t-27 -10.5h-248q-20 0 -26.5 11t-6.5 45t6.5 45t26.5 11h43v496zM267 813l117 100q34 30 111 30q54 0 62 -20q4 -8 -6 -15l-134 -101q-36 -26 -97 -26q-54 0 -59 18q-3 7 6 14z" />
    <glyph glyph-name="racute" unicode="&#x155;" horiz-adv-x="497" 
d="M91 490h67q33 0 47 -10t16 -38l3 -38h17q28 98 148 98q40 0 74 -13q17 -6 20 -19.5t-7 -51.5q-9 -33 -22 -42.5t-35 -4.5q-29 8 -53 8q-114 0 -114 -155v-112h56q20 0 26.5 -11t6.5 -45t-6.5 -45t-26.5 -11h-238q-20 0 -26.5 11t-6.5 45t6.5 45t26.5 11h39v247
q0 11 -4.5 15t-14.5 4h-19q-20 0 -27 10t-7 35q0 37 11.5 52t42.5 15zM135 568l104 116q26 30 107 30q67 0 63 -20q-1 -5 -6 -10l-122 -116q-28 -26 -92 -26q-63 0 -59 18q1 4 5 8z" />
    <glyph glyph-name="Rcommaaccent" unicode="&#x156;" horiz-adv-x="766" 
d="M268 604v-222h120q86 0 120 26t34 83v4q0 57 -40 83t-141 26h-93zM120 608h-40q-20 0 -26.5 11t-6.5 45t6.5 45t26.5 11q297 0 313 -1q155 -8 227 -62t72 -155v-14q0 -143 -133 -190l107 -186h37q21 0 27 -10.5t6 -45.5t-6 -45.5t-27 -10.5h-45q-66 0 -91.5 11t-46.5 52
l-109 209h-143v-160h57q21 0 27 -10.5t6 -45.5t-6 -45.5t-27 -10.5h-248q-20 0 -26.5 11t-6.5 45t6.5 45t26.5 11h43v496zM426 -72h17q35 0 49 -17.5t14 -62.5q0 -88 -34 -169q-6 -15 -15 -19t-28 -4h-26q-30 0 -20 27q19 54 27 106q-28 6 -39 19.5t-11 46.5q0 40 15.5 56.5
t50.5 16.5z" />
    <glyph glyph-name="rcommaaccent" unicode="&#x157;" horiz-adv-x="497" 
d="M91 490h67q33 0 47 -10t16 -38l3 -38h17q28 98 148 98q40 0 74 -13q17 -6 20 -19.5t-7 -51.5q-9 -33 -22 -42.5t-35 -4.5q-29 8 -53 8q-114 0 -114 -155v-112h56q20 0 26.5 -11t6.5 -45t-6.5 -45t-26.5 -11h-238q-20 0 -26.5 11t-6.5 45t6.5 45t26.5 11h39v247
q0 11 -4.5 15t-14.5 4h-19q-20 0 -27 10t-7 35q0 37 11.5 52t42.5 15zM180 -72h17q35 0 49 -17.5t14 -62.5q0 -88 -34 -169q-6 -15 -15 -19t-28 -4h-26q-30 0 -20 27q19 54 27 106q-28 6 -39 19.5t-11 46.5q0 40 15.5 56.5t50.5 16.5z" />
    <glyph glyph-name="Rcaron" unicode="&#x158;" horiz-adv-x="766" 
d="M268 604v-222h120q86 0 120 26t34 83v4q0 57 -40 83t-141 26h-93zM120 608h-40q-20 0 -26.5 11t-6.5 45t6.5 45t26.5 11q297 0 313 -1q155 -8 227 -62t72 -155v-14q0 -143 -133 -190l107 -186h37q21 0 27 -10.5t6 -45.5t-6 -45.5t-27 -10.5h-45q-66 0 -91.5 11t-46.5 52
l-109 209h-143v-160h57q21 0 27 -10.5t6 -45.5t-6 -45.5t-27 -10.5h-248q-20 0 -26.5 11t-6.5 45t6.5 45t26.5 11h43v496zM307 918l69 -55l74 56q16 12 35 16t71 4q60 0 57 -18q-1 -5 -8 -11l-128 -104q-28 -24 -87 -25h-28q-57 0 -90 25l-132 103q-26 20 15 27q15 3 36 3
q57 0 79 -4.5t37 -16.5z" />
    <glyph glyph-name="rcaron" unicode="&#x159;" horiz-adv-x="497" 
d="M91 490h67q33 0 47 -10t16 -38l3 -38h17q28 98 148 98q40 0 74 -13q17 -6 20 -19.5t-7 -51.5q-9 -33 -22 -42.5t-35 -4.5q-29 8 -53 8q-114 0 -114 -155v-112h56q20 0 26.5 -11t6.5 -45t-6.5 -45t-26.5 -11h-238q-20 0 -26.5 11t-6.5 45t6.5 45t26.5 11h39v247
q0 11 -4.5 15t-14.5 4h-19q-20 0 -27 10t-7 35q0 37 11.5 52t42.5 15zM199 691l51 -67l51 67q10 12 26 16.5t60 4.5q64 0 59 -21q-1 -4 -4 -8l-88 -104q-20 -23 -41 -30t-63 -7t-63 7t-41 30l-88 104q-18 23 27 28q12 1 28 1q42 0 59.5 -4.5t26.5 -16.5z" />
    <glyph glyph-name="Sacute" unicode="&#x15a;" horiz-adv-x="742" 
d="M65 510v6q0 115 76 165.5t238 50.5q123 0 209 -31q40 -15 55.5 -34t15.5 -55v-55q0 -24 -13.5 -31t-57.5 -7q-43 0 -58 7t-15 30v46q-62 18 -144 18q-91 0 -125 -22t-34 -70q0 -27 9.5 -41t44 -26t102.5 -20l69 -8q131 -15 188 -66.5t57 -143.5v-8q0 -60 -15.5 -100.5
t-53 -70t-103 -43t-164.5 -13.5q-136 0 -217 27q-38 14 -53.5 37t-15.5 67v63q0 24 14 31.5t58 7.5t58 -8t14 -30v-65q81 -17 169 -17q89 0 124.5 24.5t35.5 74.5q0 47 -33 69.5t-134 34.5l-83 10q-218 27 -218 196zM256 813l117 100q35 30 111 30q54 0 62 -20q4 -8 -6 -15
l-134 -101q-36 -26 -97 -26q-54 0 -59 18q-3 7 6 14z" />
    <glyph glyph-name="sacute" unicode="&#x15b;" horiz-adv-x="571" 
d="M54 346v4q0 152 239 152q91 0 163 -22q54 -15 54 -66v-26q0 -26 -12.5 -34.5t-53.5 -8.5q-40 0 -53 7t-13 24v21q-47 10 -91 10q-49 0 -69 -11t-20 -35q0 -21 21.5 -31.5t90.5 -19.5l22 -3q105 -14 152 -47t47 -113v-6q0 -153 -260 -153q-103 0 -174 19q-55 14 -55 66v41
q0 26 12.5 34.5t53.5 8.5q40 0 53 -7t13 -24v-28q58 -13 119 -13q55 0 76 11.5t21 35.5t-22.5 36.5t-97.5 23.5l-28 4q-104 15 -146 49t-42 101zM152 568l104 116q26 30 107 30q67 0 63 -20q-1 -5 -6 -10l-122 -116q-28 -26 -92 -26q-63 0 -59 18q1 4 5 8z" />
    <glyph glyph-name="Scircumflex" unicode="&#x15c;" horiz-adv-x="742" 
d="M65 510v6q0 115 76 165.5t238 50.5q123 0 209 -31q40 -15 55.5 -34t15.5 -55v-55q0 -24 -13.5 -31t-57.5 -7q-43 0 -58 7t-15 30v46q-62 18 -144 18q-91 0 -125 -22t-34 -70q0 -27 9.5 -41t44 -26t102.5 -20l69 -8q131 -15 188 -66.5t57 -143.5v-8q0 -60 -15.5 -100.5
t-53 -70t-103 -43t-164.5 -13.5q-136 0 -217 27q-38 14 -53.5 37t-15.5 67v63q0 24 14 31.5t58 7.5t58 -8t14 -30v-65q81 -17 169 -17q89 0 124.5 24.5t35.5 74.5q0 47 -33 69.5t-134 34.5l-83 10q-218 27 -218 196zM138 811l127 104q29 25 87 25h28q35 0 53.5 -5.5
t36.5 -19.5l131 -103q25 -20 -15 -27q-15 -3 -36 -3q-50 0 -74 5.5t-47 21.5l-65 46l-59 -45q-22 -17 -47 -22.5t-71 -5.5q-60 0 -57 18q1 5 8 11z" />
    <glyph glyph-name="scircumflex" unicode="&#x15d;" horiz-adv-x="571" 
d="M54 346v4q0 152 239 152q91 0 163 -22q54 -15 54 -66v-26q0 -26 -12.5 -34.5t-53.5 -8.5q-40 0 -53 7t-13 24v21q-47 10 -91 10q-49 0 -69 -11t-20 -35q0 -21 21.5 -31.5t90.5 -19.5l22 -3q105 -14 152 -47t47 -113v-6q0 -153 -260 -153q-103 0 -174 19q-55 14 -55 66v41
q0 26 12.5 34.5t53.5 8.5q40 0 53 -7t13 -24v-28q58 -13 119 -13q55 0 76 11.5t21 35.5t-22.5 36.5t-97.5 23.5l-28 4q-104 15 -146 49t-42 101zM88 572l88 100q21 24 41 32t63 8h6q43 0 63 -8t41 -32l88 -100q23 -25 -28 -29q-9 -1 -21 -1q-75 0 -96 25l-50 61l-50 -61
q-21 -25 -96 -25q-68 0 -54 24q2 3 5 6z" />
    <glyph glyph-name="Scedilla" unicode="&#x15e;" horiz-adv-x="742" 
d="M65 510v6q0 115 76 165.5t238 50.5q123 0 209 -31q40 -15 55.5 -34t15.5 -55v-55q0 -24 -13.5 -31t-57.5 -7q-43 0 -58 7t-15 30v46q-62 18 -144 18q-91 0 -125 -22t-34 -70q0 -27 9.5 -41t44 -26t102.5 -20l69 -8q131 -15 188 -66.5t57 -143.5v-8q0 -111 -60 -164.5
t-215 -60.5v-30q80 -9 80 -77v-4q0 -96 -141 -96q-44 0 -78 12q-21 6 -10 43q6 20 12 26t13 4q25 -7 41 -8q59 -4 59 23q0 15 -13 20.5t-44 5.5q-25 0 -25 17v63q-108 5 -172 26q-38 14 -53.5 37t-15.5 67v63q0 24 14 31.5t58 7.5t58 -8t14 -30v-65q81 -17 169 -17
q89 0 124.5 24.5t35.5 74.5q0 47 -33 69.5t-134 34.5l-83 10q-218 27 -218 196z" />
    <glyph glyph-name="scedilla" unicode="&#x15f;" horiz-adv-x="571" 
d="M54 346v4q0 152 239 152q91 0 163 -22q54 -15 54 -66v-26q0 -26 -12.5 -34.5t-53.5 -8.5q-40 0 -53 7t-13 24v21q-47 10 -91 10q-49 0 -69 -11t-20 -35q0 -21 21.5 -31.5t90.5 -19.5l22 -3q105 -14 152 -47t47 -113v-6q0 -137 -209 -151v-30q80 -9 80 -77v-4
q0 -96 -141 -96q-44 0 -78 12q-21 6 -10 43q6 20 12 26t13 4q25 -7 41 -8q59 -4 59 23q0 15 -13 20.5t-44 5.5q-25 0 -25 17v64q-62 3 -119 17q-55 14 -55 66v41q0 26 12.5 34.5t53.5 8.5q40 0 53 -7t13 -24v-28q58 -13 119 -13q55 0 76 11.5t21 35.5t-22.5 36.5t-97.5 23.5
l-28 4q-104 15 -146 49t-42 101z" />
    <glyph glyph-name="Scaron" unicode="&#x160;" horiz-adv-x="742" 
d="M65 510v6q0 115 76 165.5t238 50.5q123 0 209 -31q40 -15 55.5 -34t15.5 -55v-55q0 -24 -13.5 -31t-57.5 -7q-43 0 -58 7t-15 30v46q-62 18 -144 18q-91 0 -125 -22t-34 -70q0 -27 9.5 -41t44 -26t102.5 -20l69 -8q131 -15 188 -66.5t57 -143.5v-8q0 -60 -15.5 -100.5
t-53 -70t-103 -43t-164.5 -13.5q-136 0 -217 27q-38 14 -53.5 37t-15.5 67v63q0 24 14 31.5t58 7.5t58 -8t14 -30v-65q81 -17 169 -17q89 0 124.5 24.5t35.5 74.5q0 47 -33 69.5t-134 34.5l-83 10q-218 27 -218 196zM311 918l69 -55l74 56q16 12 35 16t71 4q60 0 57 -18
q-1 -5 -8 -11l-128 -104q-28 -24 -87 -25h-28q-57 0 -90 25l-132 103q-26 20 15 27q15 3 36 3q57 0 79 -4.5t37 -16.5z" />
    <glyph glyph-name="scaron" unicode="&#x161;" horiz-adv-x="571" 
d="M54 346v4q0 152 239 152q91 0 163 -22q54 -15 54 -66v-26q0 -26 -12.5 -34.5t-53.5 -8.5q-40 0 -53 7t-13 24v21q-47 10 -91 10q-49 0 -69 -11t-20 -35q0 -21 21.5 -31.5t90.5 -19.5l22 -3q105 -14 152 -47t47 -113v-6q0 -153 -260 -153q-103 0 -174 19q-55 14 -55 66v41
q0 26 12.5 34.5t53.5 8.5q40 0 53 -7t13 -24v-28q58 -13 119 -13q55 0 76 11.5t21 35.5t-22.5 36.5t-97.5 23.5l-28 4q-104 15 -146 49t-42 101zM233 691l51 -67l51 67q10 12 26 16.5t60 4.5q64 0 59 -21q-1 -4 -4 -8l-88 -104q-20 -23 -41 -30t-63 -7t-63 7t-41 30l-88 104
q-18 23 27 28q12 1 28 1q42 0 59.5 -4.5t26.5 -16.5z" />
    <glyph glyph-name="Tcommaaccent" unicode="&#x162;" horiz-adv-x="770" 
d="M89 720h593q40 0 53 -11.5t13 -46.5v-107q0 -24 -14.5 -32t-54.5 -8q-41 0 -55 8t-14 32v51h-151v-494h78q21 0 27 -10.5t6 -45.5t-6 -45.5t-27 -10.5h-303q-20 0 -26.5 11t-6.5 45t6.5 45t26.5 11h77v494h-151v-51q0 -24 -14 -32t-55 -8q-40 0 -54.5 8t-14.5 32v107
q0 35 13.5 46.5t53.5 11.5zM378 -72h17q35 0 49 -17.5t14 -62.5q0 -88 -34 -169q-6 -15 -15 -19t-28 -4h-26q-30 0 -20 27q19 54 27 106q-28 6 -39 19.5t-11 46.5q0 40 15.5 56.5t50.5 16.5z" />
    <glyph glyph-name="tcommaaccent" unicode="&#x163;" horiz-adv-x="469" 
d="M41 490h65v112q0 26 13.5 33.5t57.5 7.5t58 -7.5t14 -33.5v-112h137q22 0 28.5 -10t6.5 -45q0 -34 -6.5 -44.5t-28.5 -10.5h-137v-207q0 -41 13.5 -55t50.5 -14q43 0 80 10q18 5 28 -4.5t17 -40.5q7 -33 3 -43t-23 -17q-59 -21 -135 -21q-104 0 -140.5 38.5t-36.5 124.5
v229h-65q-22 0 -28.5 10.5t-6.5 44.5q0 35 6.5 45t28.5 10zM238 -72h17q35 0 49 -17.5t14 -62.5q0 -88 -34 -169q-6 -15 -15 -19t-28 -4h-26q-30 0 -20 27q19 54 27 106q-28 6 -39 19.5t-11 46.5q0 40 15.5 56.5t50.5 16.5z" />
    <glyph glyph-name="Tcaron" unicode="&#x164;" horiz-adv-x="770" 
d="M89 720h593q40 0 53 -11.5t13 -46.5v-107q0 -24 -14.5 -32t-54.5 -8q-41 0 -55 8t-14 32v51h-151v-494h78q21 0 27 -10.5t6 -45.5t-6 -45.5t-27 -10.5h-303q-20 0 -26.5 11t-6.5 45t6.5 45t26.5 11h77v494h-151v-51q0 -24 -14 -32t-55 -8q-40 0 -54.5 8t-14.5 32v107
q0 35 13.5 46.5t53.5 11.5zM321 918l69 -55l74 56q16 12 35 16t71 4q60 0 57 -18q-1 -5 -8 -11l-128 -104q-28 -24 -87 -25h-28q-57 0 -90 25l-132 103q-26 20 15 27q15 3 36 3q57 0 79 -4.5t37 -16.5z" />
    <glyph glyph-name="tcaron" unicode="&#x165;" horiz-adv-x="469" 
d="M41 490h65v112q0 26 13.5 33.5t57.5 7.5t58 -7.5t14 -33.5v-112h137q22 0 28.5 -10t6.5 -45q0 -34 -6.5 -44.5t-28.5 -10.5h-137v-207q0 -41 13.5 -55t50.5 -14q43 0 80 10q18 5 28 -4.5t17 -40.5q7 -33 3 -43t-23 -17q-59 -21 -135 -21q-104 0 -140.5 38.5t-36.5 124.5
v229h-65q-22 0 -28.5 10.5t-6.5 44.5q0 35 6.5 45t28.5 10zM352 821h17q35 0 49 -17.5t14 -62.5q0 -88 -34 -169q-6 -15 -15 -19t-28 -4h-26q-30 0 -20 27q19 54 27 106q-28 6 -39 19.5t-11 46.5q0 40 15.5 56.5t50.5 16.5z" />
    <glyph glyph-name="Tbar" unicode="&#x166;" horiz-adv-x="770" 
d="M89 720h593q40 0 53 -11.5t13 -46.5v-107q0 -24 -14.5 -32t-54.5 -8q-41 0 -55 8t-14 32v51h-151v-183h111q21 0 27.5 -9.5t6.5 -42.5t-6.5 -42.5t-27.5 -9.5h-111v-207h78q21 0 27 -10.5t6 -45.5t-6 -45.5t-27 -10.5h-303q-20 0 -26.5 11t-6.5 45t6.5 45t26.5 11h77v207
h-112q-21 0 -27 9.5t-6 42.5q0 34 6 43t27 9h112v183h-151v-51q0 -24 -14 -32t-55 -8q-40 0 -54.5 8t-14.5 32v107q0 35 13.5 46.5t53.5 11.5z" />
    <glyph glyph-name="tbar" unicode="&#x167;" horiz-adv-x="469" 
d="M41 490h65v112q0 26 13.5 33.5t57.5 7.5t58 -7.5t14 -33.5v-112h137q22 0 28.5 -10t6.5 -45q0 -34 -6.5 -44.5t-28.5 -10.5h-137v-71h63q21 0 27 -10t6 -42q0 -31 -6 -41.5t-27 -10.5h-63v-32q0 -41 13.5 -55t50.5 -14q43 0 80 10q18 5 28 -4.5t17 -40.5q7 -33 3 -43
t-23 -17q-59 -21 -135 -21q-104 0 -140.5 38.5t-36.5 124.5v54h-45q-20 0 -26 10.5t-6 41.5q0 32 6 42t26 10h45v71h-65q-22 0 -28.5 10.5t-6.5 44.5q0 35 6.5 45t28.5 10z" />
    <glyph glyph-name="Utilde" unicode="&#x168;" horiz-adv-x="821" 
d="M61 720h240q21 0 27 -10.5t6 -45.5t-6 -45.5t-27 -10.5h-58v-319q0 -98 43 -142.5t133 -44.5q88 0 130 43t42 135v328h-54q-20 0 -26.5 11t-6.5 45t6.5 45t26.5 11h225q21 0 27 -10.5t6 -45.5t-6 -45.5t-27 -10.5h-32v-319q0 -156 -81 -228.5t-240 -72.5
q-149 0 -231.5 70t-82.5 218v332h-32q-20 0 -27.5 11t-7.5 45t6.5 45t26.5 11zM185 887q39 86 146 86q39 0 92 -30t71 -30q34 0 56 32q12 17 54 -4q39 -22 31 -45q-33 -90 -140 -90q-37 0 -90.5 29t-74.5 29q-39 0 -63 -33q-14 -20 -56 13q-34 24 -26 43z" />
    <glyph glyph-name="utilde" unicode="&#x169;" horiz-adv-x="681" 
d="M66 490h89q42 0 57 -12.5t15 -46.5v-200q0 -75 20.5 -103t72.5 -28q118 0 118 118v141q0 11 -4.5 15t-14.5 4h-19q-20 0 -27 10t-7 35q0 37 11.5 52t42.5 15h89q42 0 57 -12.5t15 -46.5v-299q0 -13 5 -18t19 -5h9q20 0 26.5 -10t6.5 -44t-6.5 -44.5t-26.5 -10.5h-42
q-49 0 -75 13.5t-37 46.5h-18q-32 -72 -154 -72q-204 0 -204 223v148q0 11 -4.5 15t-14.5 4h-19q-20 0 -27 10t-7 35q0 37 11.5 52t42.5 15zM119 643q37 86 134 86q38 0 81.5 -29t61.5 -29q15 0 24.5 6.5t23.5 25.5q13 18 52 -4q38 -21 29 -43q-36 -90 -127 -90
q-35 0 -80.5 28.5t-64.5 28.5q-20 0 -31.5 -7.5t-24.5 -26.5q-13 -18 -54 12q-32 24 -24 42z" />
    <glyph glyph-name="Umacron" unicode="&#x16a;" horiz-adv-x="821" 
d="M61 720h240q21 0 27 -10.5t6 -45.5t-6 -45.5t-27 -10.5h-58v-319q0 -98 43 -142.5t133 -44.5q88 0 130 43t42 135v328h-54q-20 0 -26.5 11t-6.5 45t6.5 45t26.5 11h225q21 0 27 -10.5t6 -45.5t-6 -45.5t-27 -10.5h-32v-319q0 -156 -81 -228.5t-240 -72.5
q-149 0 -231.5 70t-82.5 218v332h-32q-20 0 -27.5 11t-7.5 45t6.5 45t26.5 11zM255 944h312q20 0 26 -10.5t6 -43.5q0 -32 -6 -42.5t-26 -10.5h-312q-20 0 -26.5 10.5t-6.5 42.5q0 33 6 43.5t27 10.5z" />
    <glyph glyph-name="umacron" unicode="&#x16b;" horiz-adv-x="681" 
d="M66 490h89q42 0 57 -12.5t15 -46.5v-200q0 -75 20.5 -103t72.5 -28q118 0 118 118v141q0 11 -4.5 15t-14.5 4h-19q-20 0 -27 10t-7 35q0 37 11.5 52t42.5 15h89q42 0 57 -12.5t15 -46.5v-299q0 -13 5 -18t19 -5h9q20 0 26.5 -10t6.5 -44t-6.5 -44.5t-26.5 -10.5h-42
q-49 0 -75 13.5t-37 46.5h-18q-32 -72 -154 -72q-204 0 -204 223v148q0 11 -4.5 15t-14.5 4h-19q-20 0 -27 10t-7 35q0 37 11.5 52t42.5 15zM197 687h251q21 0 27 -10.5t6 -43.5q0 -32 -6.5 -42.5t-26.5 -10.5h-251q-20 0 -26 10.5t-6 42.5q0 33 6 43.5t26 10.5z" />
    <glyph glyph-name="Ubreve" unicode="&#x16c;" horiz-adv-x="821" 
d="M61 720h240q21 0 27 -10.5t6 -45.5t-6 -45.5t-27 -10.5h-58v-319q0 -98 43 -142.5t133 -44.5q88 0 130 43t42 135v328h-54q-20 0 -26.5 11t-6.5 45t6.5 45t26.5 11h225q21 0 27 -10.5t6 -45.5t-6 -45.5t-27 -10.5h-32v-319q0 -156 -81 -228.5t-240 -72.5
q-149 0 -231.5 70t-82.5 218v332h-32q-20 0 -27.5 11t-7.5 45t6.5 45t26.5 11zM214 918v7q0 16 13 23.5t48 7.5q29 0 38.5 -6t9.5 -18v-3q0 -38 87 -38t87 38v3q0 12 9.5 18t38.5 6q35 0 48 -7.5t13 -23.5v-7q0 -58 -51 -90t-145 -32q-99 0 -147.5 33t-48.5 89z" />
    <glyph glyph-name="ubreve" unicode="&#x16d;" horiz-adv-x="681" 
d="M66 490h89q42 0 57 -12.5t15 -46.5v-200q0 -75 20.5 -103t72.5 -28q118 0 118 118v141q0 11 -4.5 15t-14.5 4h-19q-20 0 -27 10t-7 35q0 37 11.5 52t42.5 15h89q42 0 57 -12.5t15 -46.5v-299q0 -13 5 -18t19 -5h9q20 0 26.5 -10t6.5 -44t-6.5 -44.5t-26.5 -10.5h-42
q-49 0 -75 13.5t-37 46.5h-18q-32 -72 -154 -72q-204 0 -204 223v148q0 11 -4.5 15t-14.5 4h-19q-20 0 -27 10t-7 35q0 37 11.5 52t42.5 15zM161 684v7q0 13 11 18.5t42 5.5t39 -3t8 -13v-4q0 -40 62 -40q59 0 59 40v4q0 10 9 13t38 3q31 0 41.5 -5.5t10.5 -18.5v-7
q0 -61 -44.5 -92t-116.5 -31q-74 0 -116.5 30.5t-42.5 92.5z" />
    <glyph glyph-name="Uring" unicode="&#x16e;" horiz-adv-x="821" 
d="M61 720h240q21 0 27 -10.5t6 -45.5t-6 -45.5t-27 -10.5h-58v-319q0 -98 43 -142.5t133 -44.5q88 0 130 43t42 135v328h-54q-20 0 -26.5 11t-6.5 45t6.5 45t26.5 11h225q21 0 27 -10.5t6 -45.5t-6 -45.5t-27 -10.5h-32v-319q0 -156 -81 -228.5t-240 -72.5
q-149 0 -231.5 70t-82.5 218v332h-32q-20 0 -27.5 11t-7.5 45t6.5 45t26.5 11zM412 964q-28 0 -45 -17t-17 -48q0 -66 62 -66q26 0 42.5 16.5t16.5 49.5q0 31 -16 48t-43 17zM276 894v7q0 60 36.5 91.5t99.5 31.5t97.5 -31.5t34.5 -91.5v-7q0 -60 -34.5 -90.5t-97.5 -30.5
t-99.5 30.5t-36.5 90.5z" />
    <glyph glyph-name="uring" unicode="&#x16f;" horiz-adv-x="681" 
d="M66 490h89q42 0 57 -12.5t15 -46.5v-200q0 -75 20.5 -103t72.5 -28q118 0 118 118v141q0 11 -4.5 15t-14.5 4h-19q-20 0 -27 10t-7 35q0 37 11.5 52t42.5 15h89q42 0 57 -12.5t15 -46.5v-299q0 -13 5 -18t19 -5h9q20 0 26.5 -10t6.5 -44t-6.5 -44.5t-26.5 -10.5h-42
q-49 0 -75 13.5t-37 46.5h-18q-32 -72 -154 -72q-204 0 -204 223v148q0 11 -4.5 15t-14.5 4h-19q-20 0 -27 10t-7 35q0 37 11.5 52t42.5 15zM315 738q-28 0 -45 -17t-17 -48q0 -66 62 -66q27 0 43 16.5t16 49.5q0 31 -16 48t-43 17zM179 668v7q0 60 36.5 91.5t99.5 31.5
t97.5 -31.5t34.5 -91.5v-7q0 -60 -34.5 -90.5t-97.5 -30.5t-99.5 30.5t-36.5 90.5z" />
    <glyph glyph-name="Uhungarumlaut" unicode="&#x170;" horiz-adv-x="821" 
d="M61 720h240q21 0 27 -10.5t6 -45.5t-6 -45.5t-27 -10.5h-58v-319q0 -98 43 -142.5t133 -44.5q88 0 130 43t42 135v328h-54q-20 0 -26.5 11t-6.5 45t6.5 45t26.5 11h225q21 0 27 -10.5t6 -45.5t-6 -45.5t-27 -10.5h-32v-319q0 -156 -81 -228.5t-240 -72.5
q-149 0 -231.5 70t-82.5 218v332h-32q-20 0 -27.5 11t-7.5 45t6.5 45t26.5 11zM189 808l76 106q20 30 90 30q71 0 67 -23q-1 -5 -6 -11l-91 -102q-23 -26 -83 -26q-72 0 -53 26zM435 808l80 106q11 15 29.5 22.5t60.5 7.5q72 0 67 -23q-1 -5 -6 -11l-95 -102
q-23 -26 -82 -26q-63 0 -57 20q0 3 3 6z" />
    <glyph glyph-name="uhungarumlaut" unicode="&#x171;" horiz-adv-x="681" 
d="M66 490h89q42 0 57 -12.5t15 -46.5v-200q0 -75 20.5 -103t72.5 -28q118 0 118 118v141q0 11 -4.5 15t-14.5 4h-19q-20 0 -27 10t-7 35q0 37 11.5 52t42.5 15h89q42 0 57 -12.5t15 -46.5v-299q0 -13 5 -18t19 -5h9q20 0 26.5 -10t6.5 -44t-6.5 -44.5t-26.5 -10.5h-42
q-49 0 -75 13.5t-37 46.5h-18q-32 -72 -154 -72q-204 0 -204 223v148q0 11 -4.5 15t-14.5 4h-19q-20 0 -27 10t-7 35q0 37 11.5 52t42.5 15zM122 568l65 116q8 16 26 23t66 7q74 0 58 -27q-1 -2 -2 -3l-82 -116q-11 -15 -26.5 -20.5t-51.5 -5.5q-56 0 -56 17q0 4 3 9z
M372 568l64 116q9 16 27 23t66 7q67 0 59 -23q-1 -3 -3 -7l-83 -116q-10 -15 -26 -20.5t-52 -5.5q-16 0 -26.5 1.5t-17 3.5t-9 5.5t-2.5 7t3 8.5z" />
    <glyph glyph-name="Uogonek" unicode="&#x172;" horiz-adv-x="821" 
d="M61 720h240q21 0 27 -10.5t6 -45.5t-6 -45.5t-27 -10.5h-58v-319q0 -98 43 -142.5t133 -44.5q88 0 130 43t42 135v328h-54q-20 0 -26.5 11t-6.5 45t6.5 45t26.5 11h225q21 0 27 -10.5t6 -45.5t-6 -45.5t-27 -10.5h-32v-319q0 -245 -208 -290q-73 -52 -73 -110
q0 -25 28 -25q15 0 41 6q8 2 14 -5t10 -27q9 -37 -7 -46q-19 -13 -75 -13q-114 0 -114 96v4q0 28 16 57.5t44 51.5q-148 1 -230 71t-81 217v332h-32q-20 0 -27.5 11t-7.5 45t6.5 45t26.5 11z" />
    <glyph glyph-name="uogonek" unicode="&#x173;" horiz-adv-x="680" 
d="M66 490h89q42 0 57 -12.5t15 -46.5v-200q0 -75 20.5 -103t72.5 -28q118 0 118 118v141q0 11 -4.5 15t-14.5 4h-19q-20 0 -27 10t-7 35q0 37 11.5 52t42.5 15h89q42 0 57 -12.5t15 -46.5v-299q0 -13 4.5 -18t18.5 -5h9q20 0 26.5 -10t6.5 -44q0 -30 -3.5 -39t-17.5 -16
q-31 -15 -54 -47.5t-23 -58.5q0 -30 28 -30q16 0 41 6q8 2 14 -5t10 -27q9 -37 -7 -46q-20 -13 -75 -13q-114 0 -114 96v4q0 33 22.5 68t60.5 57q-28 5 -43.5 18t-24.5 38h-18q-32 -72 -154 -72q-204 0 -204 223v148q0 11 -4.5 15t-14.5 4h-19q-20 0 -27 10t-7 35
q0 37 11.5 52t42.5 15z" />
    <glyph glyph-name="Wcircumflex" unicode="&#x174;" horiz-adv-x="1196" 
d="M41 720h254q21 0 27 -10.5t6 -45.5t-6 -45.5t-27 -10.5h-64l92 -350q20 -71 33 -161h19q8 78 27 161l79 340q7 33 24.5 44t57.5 11h85q40 0 58.5 -11t25.5 -44l76 -340q18 -79 28 -161h19q11 89 30 161l91 350h-71q-21 0 -27 10.5t-6 45.5t6 45.5t27 10.5h250
q20 0 26.5 -11t6.5 -45t-6.5 -45t-26.5 -11h-44l-143 -559q-8 -32 -26.5 -43.5t-56.5 -11.5h-94q-39 0 -57.5 11t-24.5 43l-71 352q-19 104 -24 148h-19q-11 -90 -24 -149l-77 -350q-7 -32 -25.5 -43.5t-56.5 -11.5h-101q-38 0 -55.5 11t-26.5 43l-147 560h-41
q-20 0 -26.5 11t-6.5 45t6.5 45t26.5 11zM371 811l127 104q29 25 87 25h28q35 0 53.5 -5.5t36.5 -19.5l131 -103q25 -20 -15 -27q-15 -3 -36 -3q-50 0 -74 5.5t-47 21.5l-65 46l-59 -45q-22 -17 -47 -22.5t-71 -5.5q-60 0 -57 18q1 5 8 11z" />
    <glyph glyph-name="wcircumflex" unicode="&#x175;" horiz-adv-x="939" 
d="M43 490h206q20 0 26.5 -11t6.5 -45t-6.5 -45t-26.5 -11h-39l57 -204q7 -26 15 -76h17q4 40 13 77l47 206q6 30 23.5 40.5t56.5 10.5h68q39 0 56 -10.5t24 -40.5l50 -208q8 -35 13 -75h17q5 43 14 75l58 205h-50q-20 0 -26.5 11t-6.5 45t6.5 45t26.5 11h207q20 0 26.5 -11
t6.5 -45t-6.5 -45t-26.5 -11h-31l-94 -334q-8 -29 -25.5 -39.5t-54.5 -10.5h-77q-39 0 -56.5 10t-23.5 40l-45 212q-9 41 -11 72h-17q-1 -30 -10 -72l-45 -211q-7 -30 -25 -40.5t-56 -10.5h-80q-37 0 -54 10.5t-26 39.5l-96 334h-26q-20 0 -26.5 11t-6.5 45t6.5 45t26.5 11z
M274 572l88 100q21 24 41 32t63 8h6q43 0 63 -8t41 -32l88 -100q23 -25 -28 -29q-9 -1 -21 -1q-75 0 -96 25l-50 61l-50 -61q-21 -25 -96 -25q-68 0 -54 24q2 3 5 6z" />
    <glyph glyph-name="Ycircumflex" unicode="&#x176;" horiz-adv-x="794" 
d="M45 720h263q21 0 27 -10.5t6 -45.5t-6 -45.5t-27 -10.5h-62l106 -163q31 -48 44 -93h19q16 51 43 93l111 163h-61q-21 0 -27 10.5t-6 45.5t6 45.5t27 10.5h239q20 0 26.5 -11t6.5 -45t-6.5 -45t-26.5 -11h-31l-248 -355v-141h78q21 0 27 -10.5t6 -45.5t-6 -45.5
t-27 -10.5h-304q-20 0 -26.5 11t-6.5 45t6.5 45t26.5 11h78v137l-241 359h-34q-20 0 -26.5 11t-6.5 45t6.5 45t26.5 11zM174 811l127 104q29 25 87 25h28q35 0 53.5 -5.5t36.5 -19.5l131 -103q25 -20 -15 -27q-15 -3 -36 -3q-50 0 -74 5.5t-47 21.5l-65 46l-59 -45
q-22 -17 -47 -22.5t-71 -5.5q-60 0 -57 18q1 5 8 11z" />
    <glyph glyph-name="ycircumflex" unicode="&#x177;" horiz-adv-x="636" 
d="M43 490h212q20 0 26.5 -11t6.5 -45t-6.5 -45t-26.5 -11h-43l92 -207q16 -36 20 -75h17q6 44 22 87l77 195h-45q-20 0 -26.5 11t-6.5 45t6.5 45t26.5 11h198q20 0 26.5 -11t6.5 -45t-6.5 -45t-26.5 -11h-21l-164 -438q-37 -100 -88 -138t-151 -38q-78 0 -135 22
q-17 7 -20 21t6 43q17 53 53 42q47 -15 96 -15q43 0 65.5 16.5t38.5 59.5l15 41q-35 0 -50.5 8t-27.5 35l-146 341h-21q-20 0 -26.5 11t-6.5 45t6.5 45t26.5 11zM123 572l88 100q21 24 41 32t63 8h6q43 0 63 -8t41 -32l88 -100q23 -25 -28 -29q-9 -1 -21 -1q-75 0 -96 25
l-50 61l-50 -61q-21 -25 -96 -25q-68 0 -54 24q2 3 5 6z" />
    <glyph glyph-name="Ydieresis" unicode="&#x178;" horiz-adv-x="794" 
d="M45 720h263q21 0 27 -10.5t6 -45.5t-6 -45.5t-27 -10.5h-62l106 -163q31 -48 44 -93h19q16 51 43 93l111 163h-61q-21 0 -27 10.5t-6 45.5t6 45.5t27 10.5h239q20 0 26.5 -11t6.5 -45t-6.5 -45t-26.5 -11h-31l-248 -355v-141h78q21 0 27 -10.5t6 -45.5t-6 -45.5
t-27 -10.5h-304q-20 0 -26.5 11t-6.5 45t6.5 45t26.5 11h78v137l-241 359h-34q-20 0 -26.5 11t-6.5 45t6.5 45t26.5 11zM253 958h21q33 0 49.5 -15.5t16.5 -56.5q0 -42 -11 -57t-41 -15h-49q-30 0 -41 15t-11 57q0 40 16.5 56t49.5 16zM539 958h21q33 0 49.5 -15.5
t16.5 -56.5q0 -42 -11 -57t-42 -15h-48q-30 0 -41.5 15t-11.5 57q0 40 17 56t50 16z" />
    <glyph glyph-name="Zacute" unicode="&#x179;" horiz-adv-x="700" 
d="M100 720h491q37 0 48.5 -8t11.5 -33v-45q0 -37 -36 -78l-308 -348q-47 -52 -100 -83v-15h325v62q0 23 14 30t54 7t54 -7t14 -30v-128q0 -26 -12 -35t-48 -9h-516q-37 0 -48.5 8t-11.5 33v43q0 23 7.5 38.5t28.5 39.5l323 356q41 45 101 79v13h-315v-50q0 -23 -14 -30
t-54 -7t-54 7t-14 30v116q0 26 11.5 35t47.5 9zM208 813l117 100q35 30 111 30q54 0 62 -20q4 -8 -6 -15l-134 -101q-36 -26 -97 -26q-54 0 -59 18q-3 7 6 14z" />
    <glyph glyph-name="zacute" unicode="&#x17a;" horiz-adv-x="599" 
d="M116 490h366q36 0 47.5 -8.5t11.5 -34.5v-46q0 -38 -34 -67l-213 -177q-38 -30 -80 -44v-15h205v36q0 26 12.5 34.5t53.5 8.5q40 0 53 -7t13 -24v-103q0 -26 -12 -34.5t-48 -8.5h-383q-36 0 -48 8.5t-12 33.5v41q0 23 7.5 37.5t28.5 31.5l220 176q41 31 85 49v15h-201
v-26q0 -26 -12.5 -34.5t-53.5 -8.5q-40 0 -53 7t-13 24v93q0 26 12 34.5t48 8.5zM176 568l104 116q26 30 107 30q67 0 63 -20q-1 -5 -6 -10l-122 -116q-28 -26 -92 -26q-63 0 -59 18q1 4 5 8z" />
    <glyph glyph-name="Zdotaccent" unicode="&#x17b;" horiz-adv-x="700" 
d="M100 720h491q37 0 48.5 -8t11.5 -33v-45q0 -37 -36 -78l-308 -348q-47 -52 -100 -83v-15h325v62q0 23 14 30t54 7t54 -7t14 -30v-128q0 -26 -12 -35t-48 -9h-516q-37 0 -48.5 8t-11.5 33v43q0 23 7.5 38.5t28.5 39.5l323 356q41 45 101 79v13h-315v-50q0 -23 -14 -30
t-54 -7t-54 7t-14 30v116q0 26 11.5 35t47.5 9zM339 966h22q35 0 53.5 -17.5t18.5 -61.5q0 -45 -12.5 -61.5t-44.5 -16.5h-52q-33 0 -45 16.5t-12 61.5q0 44 18 61.5t54 17.5z" />
    <glyph glyph-name="zdotaccent" unicode="&#x17c;" horiz-adv-x="599" 
d="M116 490h366q36 0 47.5 -8.5t11.5 -34.5v-46q0 -38 -34 -67l-213 -177q-38 -30 -80 -44v-15h205v36q0 26 12.5 34.5t53.5 8.5q40 0 53 -7t13 -24v-103q0 -26 -12 -34.5t-48 -8.5h-383q-36 0 -48 8.5t-12 33.5v41q0 23 7.5 37.5t28.5 31.5l220 176q41 31 85 49v15h-201
v-26q0 -26 -12.5 -34.5t-53.5 -8.5q-40 0 -53 7t-13 24v93q0 26 12 34.5t48 8.5zM294 729h20q35 0 53.5 -17t18.5 -61q0 -45 -12.5 -61.5t-44.5 -16.5h-50q-33 0 -45 16.5t-12 61.5q0 44 18 61t54 17z" />
    <glyph glyph-name="Zcaron" unicode="&#x17d;" horiz-adv-x="700" 
d="M100 720h491q37 0 48.5 -8t11.5 -33v-45q0 -37 -36 -78l-308 -348q-47 -52 -100 -83v-15h325v62q0 23 14 30t54 7t54 -7t14 -30v-128q0 -26 -12 -35t-48 -9h-516q-37 0 -48.5 8t-11.5 33v43q0 23 7.5 38.5t28.5 39.5l323 356q41 45 101 79v13h-315v-50q0 -23 -14 -30
t-54 -7t-54 7t-14 30v116q0 26 11.5 35t47.5 9zM279 918l69 -55l74 56q16 12 35 16t71 4q60 0 57 -18q-1 -5 -8 -11l-128 -104q-28 -24 -87 -25h-28q-57 0 -90 25l-132 103q-26 20 15 27q15 3 36 3q57 0 79 -4.5t37 -16.5z" />
    <glyph glyph-name="zcaron" unicode="&#x17e;" horiz-adv-x="599" 
d="M116 490h366q36 0 47.5 -8.5t11.5 -34.5v-46q0 -38 -34 -67l-213 -177q-38 -30 -80 -44v-15h205v36q0 26 12.5 34.5t53.5 8.5q40 0 53 -7t13 -24v-103q0 -26 -12 -34.5t-48 -8.5h-383q-36 0 -48 8.5t-12 33.5v41q0 23 7.5 37.5t28.5 31.5l220 176q41 31 85 49v15h-201
v-26q0 -26 -12.5 -34.5t-53.5 -8.5q-40 0 -53 7t-13 24v93q0 26 12 34.5t48 8.5zM250 691l51 -67l51 67q10 12 26 16.5t60 4.5q64 0 59 -21q-1 -4 -4 -8l-88 -104q-20 -23 -41 -30t-63 -7t-63 7t-41 30l-88 104q-18 23 27 28q12 1 28 1q42 0 59.5 -4.5t26.5 -16.5z" />
    <glyph glyph-name="longs" unicode="&#x17f;" horiz-adv-x="402" 
d="M53 490h60v32q0 108 51.5 159t168.5 51q78 0 131 -25q16 -8 18.5 -19.5t-5.5 -39.5q-11 -35 -20 -43.5t-32 -1.5q-45 15 -90 15q-42 0 -60.5 -19t-18.5 -67v-420h70q20 0 26.5 -11t6.5 -45t-6.5 -45t-26.5 -11h-262q-20 0 -26.5 11t-6.5 45t6.5 45t26.5 11h49v268h-60
q-22 0 -28.5 10t-6.5 45q0 34 6.5 44.5t28.5 10.5z" />
    <glyph glyph-name="florin" unicode="&#x192;" horiz-adv-x="706" 
d="M176 403h133l23 110q23 118 80.5 168.5t165.5 50.5q70 0 121 -28q15 -9 17 -19.5t-9 -41.5q-13 -34 -24.5 -41t-31.5 -1q-48 16 -84 16q-37 0 -58 -21t-32 -73l-24 -120h122q17 0 21.5 -9.5t4.5 -37.5q0 -26 -5 -36t-21 -10h-141l-58 -292q-23 -117 -78.5 -166.5
t-159.5 -49.5q-79 0 -131 26q-16 8 -18 20.5t11 42.5q15 33 25.5 40.5t30.5 -0.5q42 -15 84 -15q38 0 59 20.5t31 71.5l60 302h-114q-16 0 -22 10.5t-6 35.5q0 27 6 37t22 10z" />
    <glyph glyph-name="Aringacute" unicode="&#x1fa;" horiz-adv-x="894" 
d="M406 726h76q38 0 54 -13t33 -52l236 -549h34q20 0 26.5 -11t6.5 -45t-6.5 -45t-26.5 -11h-264q-21 0 -27 10.5t-6 45.5t6 45.5t27 10.5h64l-44 111h-311l-44 -111h67q21 0 27 -10.5t6 -45.5t-6 -45.5t-27 -10.5h-250q-20 0 -26.5 11t-6.5 45t6.5 45t26.5 11h30l232 549
q16 38 32 51.5t55 13.5zM449 621h-19q-16 -69 -55 -169l-47 -118h224l-68 179q-11 28 -35 108zM449 972q-28 0 -45 -17t-17 -48q0 -66 62 -66q27 0 43 16.5t16 49.5q0 31 -16 48t-43 17zM313 902v7q0 60 36.5 91.5t99.5 31.5t97.5 -31.5t34.5 -91.5v-7q0 -60 -34.5 -90.5
t-97.5 -30.5t-99.5 30.5t-36.5 90.5zM321 1097l117 100q34 30 111 30q54 0 62 -20q4 -8 -6 -15l-134 -101q-36 -26 -97 -26q-54 0 -59 18q-3 7 6 14z" />
    <glyph glyph-name="aringacute" unicode="&#x1fb;" horiz-adv-x="617" 
d="M34 141v13q0 71 53 113.5t155 42.5q88 0 129 -40h18v32q0 50 -27.5 69.5t-103.5 19.5q-74 0 -140 -22q-36 -12 -48 41q-8 28 -5 41.5t22 20.5q77 30 195 30q134 0 191.5 -47.5t57.5 -139.5v-183q0 -13 5 -18t19 -5h9q20 0 26.5 -10t6.5 -44t-6.5 -44.5t-26.5 -10.5h-46
q-78 0 -106 46h-18q-41 -58 -154 -58q-93 0 -149.5 42t-56.5 111zM175 153v-4q0 -62 104 -62q56 0 85 17t29 47q0 63 -114 63q-104 0 -104 -61zM310 738q-28 0 -45 -17t-17 -48q0 -66 62 -66q26 0 42.5 16.5t16.5 49.5q0 31 -16 48t-43 17zM174 668v7q0 60 36.5 91.5
t99.5 31.5t97.5 -31.5t34.5 -91.5v-7q0 -60 -34.5 -90.5t-97.5 -30.5t-99.5 30.5t-36.5 90.5zM175 859l104 116q26 30 107 30q67 0 63 -20q-1 -5 -6 -10l-122 -116q-28 -26 -92 -26q-63 0 -59 18q1 4 5 8z" />
    <glyph glyph-name="AEacute" unicode="&#x1fc;" horiz-adv-x="1215" 
d="M599 720h500q40 0 53.5 -11.5t13.5 -46.5v-109q0 -25 -13.5 -33t-52.5 -8q-41 0 -53.5 8t-12.5 33v55h-291v-188h160v19q0 25 12.5 32t51.5 7q40 0 52 -7t12 -32v-152q0 -24 -12.5 -31t-51.5 -7q-40 0 -52 7t-12 31v23h-160v-198h296v60q0 24 13.5 32t53.5 8t52.5 -7.5
t12.5 -32.5v-114q0 -35 -13 -46.5t-53 -11.5h-553q-20 0 -26.5 11.5t-6.5 44.5q0 34 6 45t27 11h43v107h-277l-75 -107h67q21 0 27 -11t6 -45q0 -23 -1.5 -34t-13 -16.5t-18 -5.5h-35.5h-230q-20 0 -26.5 11.5t-6.5 44.5q0 34 6 45t27 11h37l386 547q25 36 50.5 48.5
t80.5 12.5zM595 619h-18q-30 -74 -79 -143l-107 -151h204v294zM685 813l117 100q34 30 111 30q54 0 62 -20q4 -8 -6 -15l-134 -101q-36 -26 -97 -26q-54 0 -59 18q-3 7 6 14z" />
    <glyph glyph-name="aeacute" unicode="&#x1fd;" horiz-adv-x="932" 
d="M175 153v-4q0 -62 104 -62q56 0 85 17t29 47q0 63 -114 63q-104 0 -104 -61zM34 141v13q0 71 53 113.5t155 42.5q88 0 129 -40h18v32q0 50 -27.5 69.5t-103.5 19.5q-74 0 -140 -22q-36 -12 -48 41q-8 28 -5 41.5t22 20.5q77 30 195 30q126 0 188 -48h5q66 47 168 47
q126 0 184.5 -56.5t58.5 -170.5v-19q0 -30 -16.5 -41t-57.5 -11h-284q2 -55 38 -79.5t117 -24.5q67 0 129 15q23 6 33.5 -1t19.5 -39q9 -33 5 -44.5t-25 -18.5q-75 -23 -176 -23q-159 0 -228 69h-17q-62 -69 -184 -69q-93 0 -149.5 42t-56.5 111zM528 297h222q0 99 -107 99
q-115 0 -115 -99zM380 568l104 116q26 30 107 30q67 0 63 -20q-1 -5 -6 -10l-122 -116q-28 -26 -92 -26q-63 0 -59 18q1 4 5 8z" />
    <glyph glyph-name="Oslashacute" unicode="&#x1fe;" horiz-adv-x="816" 
d="M50 340v38q0 173 93.5 263.5t265.5 90.5q67 0 129 -16l41 81q6 14 51 14q22 0 38 -5.5t11 -16.5l-56 -110q143 -87 143 -301v-38q0 -173 -93.5 -262.5t-264.5 -89.5q-70 0 -127 15l-52 -103q-6 -14 -50 -14q-28 0 -43 5t-9 16l67 132q-144 85 -144 301zM203 370v-21
q0 -126 53 -188l227 446q-35 11 -75 11q-205 0 -205 -248zM561 556l-225 -445q32 -9 72 -9q205 0 205 247v21q0 124 -52 186zM277 813l117 100q34 30 111 30q54 0 62 -20q4 -8 -6 -15l-134 -101q-36 -26 -97 -26q-54 0 -59 18q-3 7 6 14z" />
    <glyph glyph-name="oslashacute" unicode="&#x1ff;" horiz-adv-x="616" 
d="M40 232v24q0 120 69.5 183t198.5 63q46 0 81 -7l36 71q8 14 45 14q21 0 34.5 -5.5t7.5 -16.5l-46 -91q110 -59 110 -211v-24q0 -120 -69.5 -182t-198.5 -62q-38 0 -80 7l-48 -95q-6 -14 -46 -14q-27 0 -38 5t-6 16l58 115q-108 60 -108 210zM406 349l-126 -250
q9 -2 28 -2q122 0 122 142v11q0 63 -24 99zM186 250v-11q0 -63 23 -98l127 250q-18 2 -28 2q-122 0 -122 -143zM174 568l104 116q26 30 107 30q67 0 63 -20q-1 -5 -6 -10l-122 -116q-28 -26 -92 -26q-63 0 -59 18q1 4 5 8z" />
    <glyph glyph-name="Scommaaccent" unicode="&#x218;" horiz-adv-x="742" 
d="M65 510v6q0 115 76 165.5t238 50.5q123 0 209 -31q40 -15 55.5 -34t15.5 -55v-55q0 -24 -13.5 -31t-57.5 -7q-43 0 -58 7t-15 30v46q-62 18 -144 18q-91 0 -125 -22t-34 -70q0 -27 9.5 -41t44 -26t102.5 -20l69 -8q131 -15 188 -66.5t57 -143.5v-8q0 -60 -15.5 -100.5
t-53 -70t-103 -43t-164.5 -13.5q-136 0 -217 27q-38 14 -53.5 37t-15.5 67v63q0 24 14 31.5t58 7.5t58 -8t14 -30v-65q81 -17 169 -17q89 0 124.5 24.5t35.5 74.5q0 47 -33 69.5t-134 34.5l-83 10q-218 27 -218 196zM354 -72h17q35 0 49 -17.5t14 -62.5q0 -88 -34 -169
q-6 -15 -15 -19t-28 -4h-26q-30 0 -20 27q19 54 27 106q-28 6 -39 19.5t-11 46.5q0 40 15.5 56.5t50.5 16.5z" />
    <glyph glyph-name="scommaaccent" unicode="&#x219;" horiz-adv-x="571" 
d="M54 346v4q0 152 239 152q91 0 163 -22q54 -15 54 -66v-26q0 -26 -12.5 -34.5t-53.5 -8.5q-40 0 -53 7t-13 24v21q-47 10 -91 10q-49 0 -69 -11t-20 -35q0 -21 21.5 -31.5t90.5 -19.5l22 -3q105 -14 152 -47t47 -113v-6q0 -153 -260 -153q-103 0 -174 19q-55 14 -55 66v41
q0 26 12.5 34.5t53.5 8.5q40 0 53 -7t13 -24v-28q58 -13 119 -13q55 0 76 11.5t21 35.5t-22.5 36.5t-97.5 23.5l-28 4q-104 15 -146 49t-42 101zM271 -72h17q35 0 49 -17.5t14 -62.5q0 -88 -34 -169q-6 -15 -15 -19t-28 -4h-26q-30 0 -20 27q19 54 27 106q-28 6 -39 19.5
t-11 46.5q0 40 15.5 56.5t50.5 16.5z" />
    <glyph glyph-name="uni021A" unicode="&#x21a;" horiz-adv-x="770" 
d="M89 720h593q40 0 53 -11.5t13 -46.5v-107q0 -24 -14.5 -32t-54.5 -8q-41 0 -55 8t-14 32v51h-151v-494h78q21 0 27 -10.5t6 -45.5t-6 -45.5t-27 -10.5h-303q-20 0 -26.5 11t-6.5 45t6.5 45t26.5 11h77v494h-151v-51q0 -24 -14 -32t-55 -8q-40 0 -54.5 8t-14.5 32v107
q0 35 13.5 46.5t53.5 11.5zM378 -72h17q35 0 49 -17.5t14 -62.5q0 -88 -34 -169q-6 -15 -15 -19t-28 -4h-26q-30 0 -20 27q19 54 27 106q-28 6 -39 19.5t-11 46.5q0 40 15.5 56.5t50.5 16.5z" />
    <glyph glyph-name="uni021B" unicode="&#x21b;" horiz-adv-x="469" 
d="M41 490h65v112q0 26 13.5 33.5t57.5 7.5t58 -7.5t14 -33.5v-112h137q22 0 28.5 -10t6.5 -45q0 -34 -6.5 -44.5t-28.5 -10.5h-137v-207q0 -41 13.5 -55t50.5 -14q43 0 80 10q18 5 28 -4.5t17 -40.5q7 -33 3 -43t-23 -17q-59 -21 -135 -21q-104 0 -140.5 38.5t-36.5 124.5
v229h-65q-22 0 -28.5 10.5t-6.5 44.5q0 35 6.5 45t28.5 10zM238 -72h17q35 0 49 -17.5t14 -62.5q0 -88 -34 -169q-6 -15 -15 -19t-28 -4h-26q-30 0 -20 27q19 54 27 106q-28 6 -39 19.5t-11 46.5q0 40 15.5 56.5t50.5 16.5z" />
    <glyph glyph-name="circumflex" unicode="&#x2c6;" 
d="M51 572l88 100q21 24 41 32t63 8h6q43 0 63 -8t41 -32l88 -100q23 -25 -28 -29q-9 -1 -21 -1q-75 0 -96 25l-50 61l-50 -61q-21 -25 -96 -25q-68 0 -54 24q2 3 5 6z" />
    <glyph glyph-name="caron" unicode="&#x2c7;" 
d="M201 691l51 -67l51 67q10 12 26 16.5t60 4.5q64 0 59 -21q-1 -4 -4 -8l-88 -104q-20 -23 -41 -30t-63 -7t-63 7t-41 30l-88 104q-18 23 27 28q12 1 28 1q42 0 59.5 -4.5t26.5 -16.5z" />
    <glyph glyph-name="breve" unicode="&#x2d8;" 
d="M89 684v7q0 13 11 18.5t42 5.5t39 -3t8 -13v-4q0 -40 62 -40q59 0 59 40v4q0 10 9 13t38 3q31 0 41.5 -5.5t10.5 -18.5v-7q0 -61 -44.5 -92t-116.5 -31q-74 0 -116.5 30.5t-42.5 92.5z" />
    <glyph glyph-name="dotaccent" unicode="&#x2d9;" 
d="M240 729h20q35 0 53.5 -17t18.5 -61q0 -45 -12.5 -61.5t-44.5 -16.5h-50q-33 0 -45 16.5t-12 61.5q0 44 18 61t54 17z" />
    <glyph glyph-name="ring" unicode="&#x2da;" 
d="M252 738q-28 0 -45 -17t-17 -48q0 -66 62 -66q26 0 42.5 16.5t16.5 49.5q0 31 -16 48t-43 17zM116 668v7q0 60 36.5 91.5t99.5 31.5t97.5 -31.5t34.5 -91.5v-7q0 -60 -34.5 -90.5t-97.5 -30.5t-99.5 30.5t-36.5 90.5z" />
    <glyph glyph-name="ogonek" unicode="&#x2db;" 
d="M153 -125v4q0 35 25.5 72t67.5 58q22 11 58 11q47 0 44 -8q0 -1 -2 -2q-42 -25 -66 -58.5t-24 -62.5q0 -25 28 -25q16 0 41 6q8 2 14 -5t10 -27q5 -24 3.5 -32.5t-10.5 -13.5q-24 -13 -75 -13q-114 0 -114 96z" />
    <glyph glyph-name="tilde" unicode="&#x2dc;" 
d="M47 643q37 86 134 86q38 0 81.5 -29t61.5 -29q15 0 24.5 6.5t23.5 25.5q13 18 52 -4q38 -21 29 -43q-36 -90 -127 -90q-35 0 -80.5 28.5t-64.5 28.5q-20 0 -31.5 -7.5t-24.5 -26.5q-13 -18 -54 12q-32 24 -24 42z" />
    <glyph glyph-name="hungarumlaut" unicode="&#x2dd;" 
d="M16 568l65 116q8 16 26 23t66 7q74 0 58 -27q-1 -2 -2 -3l-82 -116q-11 -15 -26.5 -20.5t-51.5 -5.5q-56 0 -56 17q0 4 3 9zM266 568l64 116q9 16 27 23t66 7q67 0 59 -23q-1 -3 -3 -7l-83 -116q-10 -15 -26 -20.5t-52 -5.5q-16 0 -26.5 1.5t-17 3.5t-9 5.5t-2.5 7t3 8.5
z" />
    <glyph glyph-name="commaaccent" unicode="&#x326;" 
d="M278 -72h17q35 0 49 -17.5t14 -62.5q0 -88 -34 -169q-6 -15 -15 -19t-28 -4h-26q-30 0 -20 27q19 54 27 106q-28 6 -39 19.5t-11 46.5q0 40 15.5 56.5t50.5 16.5z" />
    <glyph glyph-name="Delta" unicode="&#x394;" horiz-adv-x="762" 
d="M342 726h71q34 0 49.5 -11t27.5 -42l188 -484q30 -78 30 -113v-35q0 -25 -11 -33t-46 -8h-539q-36 0 -47 8t-11 33v37q0 38 30 113l182 481q11 32 26.5 43t49.5 11zM383 621h-17q-15 -69 -29 -110l-133 -393h343l-134 393q-21 64 -30 110z" />
    <glyph glyph-name="Delta" unicode="&#x2206;" horiz-adv-x="762" 
d="M342 726h71q34 0 49.5 -11t27.5 -42l188 -484q30 -78 30 -113v-35q0 -25 -11 -33t-46 -8h-539q-36 0 -47 8t-11 33v37q0 38 30 113l182 481q11 32 26.5 43t49.5 11zM383 621h-17q-15 -69 -29 -110l-133 -393h343l-134 393q-21 64 -30 110z" />
    <glyph glyph-name="Omega" unicode="&#x3a9;" horiz-adv-x="859" 
d="M87 382v21q0 150 92.5 239.5t251.5 89.5q161 0 251.5 -89t90.5 -240v-21q0 -182 -132 -254v-16h111q20 0 26.5 -11t6.5 -45q0 -33 -6.5 -44.5t-26.5 -11.5h-205q-36 0 -48 8t-12 33v34q0 23 6 34.5t24 23.5q57 38 80 93.5t23 140.5v15q0 120 -46 178t-143 58
q-99 0 -145 -58t-46 -178v-15q0 -164 104 -234q19 -12 24.5 -23.5t5.5 -34.5v-34q0 -25 -11.5 -33t-48.5 -8h-207q-21 0 -27 11t-6 45t6 45t27 11h108v16q-128 66 -128 254z" />
    <glyph glyph-name="Omega" unicode="&#x2126;" horiz-adv-x="859" 
d="M87 382v21q0 150 92.5 239.5t251.5 89.5q161 0 251.5 -89t90.5 -240v-21q0 -182 -132 -254v-16h111q20 0 26.5 -11t6.5 -45q0 -33 -6.5 -44.5t-26.5 -11.5h-205q-36 0 -48 8t-12 33v34q0 23 6 34.5t24 23.5q57 38 80 93.5t23 140.5v15q0 120 -46 178t-143 58
q-99 0 -145 -58t-46 -178v-15q0 -164 104 -234q19 -12 24.5 -23.5t5.5 -34.5v-34q0 -25 -11.5 -33t-48.5 -8h-207q-21 0 -27 11t-6 45t6 45t27 11h108v16q-128 66 -128 254z" />
    <glyph glyph-name="pi" unicode="&#x3c0;" horiz-adv-x="685" 
d="M47 490h565q21 0 27 -11t6 -45q0 -33 -6.5 -44.5t-26.5 -11.5h-71v-243q0 -18 6 -24t22 -6h9q21 0 27 -10.5t6 -44.5q0 -33 -6 -44t-27 -11h-47q-70 0 -101 30t-31 100v253h-156v-348q0 -23 -13.5 -29t-57.5 -6q-43 0 -57.5 6.5t-14.5 28.5v348h-53q-20 0 -26.5 11.5
t-6.5 44.5q0 34 6 45t27 11z" />
    <glyph glyph-name="Wgrave" unicode="&#x1e80;" horiz-adv-x="1196" 
d="M41 720h254q21 0 27 -10.5t6 -45.5t-6 -45.5t-27 -10.5h-64l92 -350q20 -71 33 -161h19q8 78 27 161l79 340q7 33 24.5 44t57.5 11h85q40 0 58.5 -11t25.5 -44l76 -340q18 -79 28 -161h19q11 89 30 161l91 350h-71q-21 0 -27 10.5t-6 45.5t6 45.5t27 10.5h250
q20 0 26.5 -11t6.5 -45t-6.5 -45t-26.5 -11h-44l-143 -559q-8 -32 -26.5 -43.5t-56.5 -11.5h-94q-39 0 -57.5 11t-24.5 43l-71 352q-19 104 -24 148h-19q-11 -90 -24 -149l-77 -350q-7 -32 -25.5 -43.5t-56.5 -11.5h-101q-38 0 -55.5 11t-26.5 43l-147 560h-41
q-20 0 -26.5 11t-6.5 45t6.5 45t26.5 11zM626 913l121 -97q19 -17 -11 -28q-18 -7 -45 -7q-64 0 -100 26l-142 101q-15 11 0 23q16 12 59 12q81 0 118 -30z" />
    <glyph glyph-name="wgrave" unicode="&#x1e81;" horiz-adv-x="939" 
d="M43 490h206q20 0 26.5 -11t6.5 -45t-6.5 -45t-26.5 -11h-39l57 -204q7 -26 15 -76h17q4 40 13 77l47 206q6 30 23.5 40.5t56.5 10.5h68q39 0 56 -10.5t24 -40.5l50 -208q8 -35 13 -75h17q5 43 14 75l58 205h-50q-20 0 -26.5 11t-6.5 45t6.5 45t26.5 11h207q20 0 26.5 -11
t6.5 -45t-6.5 -45t-26.5 -11h-31l-94 -334q-8 -29 -25.5 -39.5t-54.5 -10.5h-77q-39 0 -56.5 10t-23.5 40l-45 212q-9 41 -11 72h-17q-1 -30 -10 -72l-45 -211q-7 -30 -25 -40.5t-56 -10.5h-80q-37 0 -54 10.5t-26 39.5l-96 334h-26q-20 0 -26.5 11t-6.5 45t6.5 45t26.5 11z
M467 684l109 -116q14 -15 -15 -22q-15 -4 -39 -4q-65 0 -93 26l-127 116q-21 18 15 26q16 4 43 4q80 0 107 -30z" />
    <glyph glyph-name="Wacute" unicode="&#x1e82;" horiz-adv-x="1196" 
d="M41 720h254q21 0 27 -10.5t6 -45.5t-6 -45.5t-27 -10.5h-64l92 -350q20 -71 33 -161h19q8 78 27 161l79 340q7 33 24.5 44t57.5 11h85q40 0 58.5 -11t25.5 -44l76 -340q18 -79 28 -161h19q11 89 30 161l91 350h-71q-21 0 -27 10.5t-6 45.5t6 45.5t27 10.5h250
q20 0 26.5 -11t6.5 -45t-6.5 -45t-26.5 -11h-44l-143 -559q-8 -32 -26.5 -43.5t-56.5 -11.5h-94q-39 0 -57.5 11t-24.5 43l-71 352q-19 104 -24 148h-19q-11 -90 -24 -149l-77 -350q-7 -32 -25.5 -43.5t-56.5 -11.5h-101q-38 0 -55.5 11t-26.5 43l-147 560h-41
q-20 0 -26.5 11t-6.5 45t6.5 45t26.5 11zM456 813l117 100q35 30 111 30q54 0 62 -20q4 -8 -6 -15l-134 -101q-36 -26 -97 -26q-54 0 -59 18q-3 7 6 14z" />
    <glyph glyph-name="wacute" unicode="&#x1e83;" horiz-adv-x="939" 
d="M43 490h206q20 0 26.5 -11t6.5 -45t-6.5 -45t-26.5 -11h-39l57 -204q7 -26 15 -76h17q4 40 13 77l47 206q6 30 23.5 40.5t56.5 10.5h68q39 0 56 -10.5t24 -40.5l50 -208q8 -35 13 -75h17q5 43 14 75l58 205h-50q-20 0 -26.5 11t-6.5 45t6.5 45t26.5 11h207q20 0 26.5 -11
t6.5 -45t-6.5 -45t-26.5 -11h-31l-94 -334q-8 -29 -25.5 -39.5t-54.5 -10.5h-77q-39 0 -56.5 10t-23.5 40l-45 212q-9 41 -11 72h-17q-1 -30 -10 -72l-45 -211q-7 -30 -25 -40.5t-56 -10.5h-80q-37 0 -54 10.5t-26 39.5l-96 334h-26q-20 0 -26.5 11t-6.5 45t6.5 45t26.5 11z
M356 568l104 116q26 30 107 30q67 0 63 -20q-1 -5 -6 -10l-122 -116q-28 -26 -92 -26q-63 0 -59 18q1 4 5 8z" />
    <glyph glyph-name="Wdieresis" unicode="&#x1e84;" horiz-adv-x="1196" 
d="M41 720h254q21 0 27 -10.5t6 -45.5t-6 -45.5t-27 -10.5h-64l92 -350q20 -71 33 -161h19q8 78 27 161l79 340q7 33 24.5 44t57.5 11h85q40 0 58.5 -11t25.5 -44l76 -340q18 -79 28 -161h19q11 89 30 161l91 350h-71q-21 0 -27 10.5t-6 45.5t6 45.5t27 10.5h250
q20 0 26.5 -11t6.5 -45t-6.5 -45t-26.5 -11h-44l-143 -559q-8 -32 -26.5 -43.5t-56.5 -11.5h-94q-39 0 -57.5 11t-24.5 43l-71 352q-19 104 -24 148h-19q-11 -90 -24 -149l-77 -350q-7 -32 -25.5 -43.5t-56.5 -11.5h-101q-38 0 -55.5 11t-26.5 43l-147 560h-41
q-20 0 -26.5 11t-6.5 45t6.5 45t26.5 11zM444 958h21q33 0 49.5 -15.5t16.5 -56.5q0 -42 -11 -57t-41 -15h-49q-30 0 -41 15t-11 57q0 40 16.5 56t49.5 16zM730 958h21q33 0 49.5 -15.5t16.5 -56.5q0 -42 -11 -57t-42 -15h-48q-30 0 -41.5 15t-11.5 57q0 40 17 56t50 16z
" />
    <glyph glyph-name="wdieresis" unicode="&#x1e85;" horiz-adv-x="939" 
d="M43 490h206q20 0 26.5 -11t6.5 -45t-6.5 -45t-26.5 -11h-39l57 -204q7 -26 15 -76h17q4 40 13 77l47 206q6 30 23.5 40.5t56.5 10.5h68q39 0 56 -10.5t24 -40.5l50 -208q8 -35 13 -75h17q5 43 14 75l58 205h-50q-20 0 -26.5 11t-6.5 45t6.5 45t26.5 11h207q20 0 26.5 -11
t6.5 -45t-6.5 -45t-26.5 -11h-31l-94 -334q-8 -29 -25.5 -39.5t-54.5 -10.5h-77q-39 0 -56.5 10t-23.5 40l-45 212q-9 41 -11 72h-17q-1 -30 -10 -72l-45 -211q-7 -30 -25 -40.5t-56 -10.5h-80q-37 0 -54 10.5t-26 39.5l-96 334h-26q-20 0 -26.5 11t-6.5 45t6.5 45t26.5 11z
M325 722h20q32 0 48.5 -15.5t16.5 -56.5q0 -42 -11 -56.5t-41 -14.5h-46q-30 0 -41 14.5t-11 56.5q0 40 16.5 56t48.5 16zM594 722h19q33 0 49.5 -15.5t16.5 -56.5q0 -42 -11 -56.5t-41 -14.5h-47q-30 0 -41 14.5t-11 56.5q0 40 16.5 56t49.5 16z" />
    <glyph glyph-name="Ygrave" unicode="&#x1ef2;" horiz-adv-x="794" 
d="M45 720h263q21 0 27 -10.5t6 -45.5t-6 -45.5t-27 -10.5h-62l106 -163q31 -48 44 -93h19q16 51 43 93l111 163h-61q-21 0 -27 10.5t-6 45.5t6 45.5t27 10.5h239q20 0 26.5 -11t6.5 -45t-6.5 -45t-26.5 -11h-31l-248 -355v-141h78q21 0 27 -10.5t6 -45.5t-6 -45.5
t-27 -10.5h-304q-20 0 -26.5 11t-6.5 45t6.5 45t26.5 11h78v137l-241 359h-34q-20 0 -26.5 11t-6.5 45t6.5 45t26.5 11zM415 913l121 -97q19 -17 -11 -28q-18 -7 -45 -7q-64 0 -100 26l-142 101q-15 11 0 23q16 12 59 12q81 0 118 -30z" />
    <glyph glyph-name="ygrave" unicode="&#x1ef3;" horiz-adv-x="636" 
d="M43 490h212q20 0 26.5 -11t6.5 -45t-6.5 -45t-26.5 -11h-43l92 -207q16 -36 20 -75h17q6 44 22 87l77 195h-45q-20 0 -26.5 11t-6.5 45t6.5 45t26.5 11h198q20 0 26.5 -11t6.5 -45t-6.5 -45t-26.5 -11h-21l-164 -438q-37 -100 -88 -138t-151 -38q-78 0 -135 22
q-17 7 -20 21t6 43q17 53 53 42q47 -15 96 -15q43 0 65.5 16.5t38.5 59.5l15 41q-35 0 -50.5 8t-27.5 35l-146 341h-21q-20 0 -26.5 11t-6.5 45t6.5 45t26.5 11zM340 684l109 -116q14 -15 -15 -22q-15 -4 -39 -4q-65 0 -93 26l-127 116q-21 18 15 26q16 4 43 4q80 0 107 -30
z" />
    <glyph glyph-name="endash" unicode="&#x2013;" horiz-adv-x="448" 
d="M32 354h384q20 0 26 -9.5t6 -43.5q0 -33 -6 -43t-26 -10h-384q-19 0 -25.5 10.5t-6.5 42.5q0 33 6 43t26 10z" />
    <glyph glyph-name="emdash" unicode="&#x2014;" horiz-adv-x="948" 
d="M32 354h884q20 0 26 -9.5t6 -43.5q0 -33 -6 -43t-26 -10h-884q-19 0 -25.5 10.5t-6.5 42.5q0 33 6 43t26 10z" />
    <glyph glyph-name="quoteleft" unicode="&#x2018;" horiz-adv-x="291" 
d="M147 726h32q17 0 22.5 -6.5t-0.5 -25.5q-22 -59 -28 -128q29 -10 40.5 -26t11.5 -46q0 -44 -16 -61.5t-48 -17.5h-36q-65 0 -65 84q0 99 43 199q7 17 16.5 22.5t27.5 5.5z" />
    <glyph glyph-name="quoteright" unicode="&#x2019;" horiz-adv-x="291" 
d="M130 726h36q65 0 65 -84q0 -99 -43 -199q-7 -17 -16.5 -22.5t-27.5 -5.5h-32q-17 0 -22.5 6.5t0.5 25.5q22 59 28 128q-29 11 -40.5 26.5t-11.5 45.5q0 44 16 61.5t48 17.5z" />
    <glyph glyph-name="quotesinglbase" unicode="&#x201a;" horiz-adv-x="291" 
d="M130 154h36q65 0 65 -84q0 -99 -43 -199q-7 -17 -16.5 -22.5t-27.5 -5.5h-32q-17 0 -22.5 6.5t0.5 25.5q22 59 28 128q-29 11 -40.5 26.5t-11.5 45.5q0 44 16 61.5t48 17.5z" />
    <glyph glyph-name="quotedblleft" unicode="&#x201c;" horiz-adv-x="530" 
d="M147 726h32q17 0 22.5 -6.5t-0.5 -25.5q-22 -59 -28 -128q29 -10 40.5 -26t11.5 -46q0 -44 -16 -61.5t-48 -17.5h-36q-65 0 -65 84q0 108 43 199q7 17 16 22.5t28 5.5zM386 726h32q17 0 22.5 -6.5t-0.5 -25.5q-22 -59 -28 -128q29 -10 40.5 -26t11.5 -46q0 -44 -16 -61.5
t-48 -17.5h-36q-65 0 -65 84q0 99 43 199q7 17 16.5 22.5t27.5 5.5z" />
    <glyph glyph-name="quotedblright" unicode="&#x201d;" horiz-adv-x="531" 
d="M370 726h36q65 0 65 -84q0 -99 -43 -199q-7 -17 -16.5 -22.5t-27.5 -5.5h-32q-17 0 -22.5 6.5t0.5 25.5q22 59 28 128q-29 11 -40.5 26.5t-11.5 45.5q0 44 16 61.5t48 17.5zM130 726h36q65 0 65 -84q0 -99 -43 -199q-7 -17 -16.5 -22.5t-27.5 -5.5h-32q-17 0 -22.5 6.5
t0.5 25.5q22 59 28 128q-29 11 -40.5 26.5t-11.5 45.5q0 44 16 61.5t48 17.5z" />
    <glyph glyph-name="quotedblbase" unicode="&#x201e;" horiz-adv-x="531" 
d="M370 154h36q65 0 65 -84q0 -99 -43 -199q-7 -17 -16.5 -22.5t-27.5 -5.5h-32q-17 0 -22.5 6.5t0.5 25.5q22 59 28 128q-29 11 -40.5 26.5t-11.5 45.5q0 44 16 61.5t48 17.5zM130 154h36q65 0 65 -84q0 -99 -43 -199q-7 -17 -16.5 -22.5t-27.5 -5.5h-32q-17 0 -22.5 6.5
t0.5 25.5q22 59 28 128q-29 11 -40.5 26.5t-11.5 45.5q0 44 16 61.5t48 17.5z" />
    <glyph glyph-name="dagger" unicode="&#x2020;" horiz-adv-x="603" 
d="M78 503h154l-4 192q-1 22 13.5 28.5t59.5 6.5t59 -6.5t13 -28.5l-4 -192h154q21 0 26.5 -9t5.5 -42t-5.5 -42t-26.5 -9h-155l-6 -488q-1 -20 -12 -25.5t-49 -5.5q-39 0 -50.5 5.5t-11.5 25.5l-6 488h-155q-21 0 -26.5 9t-5.5 42t5.5 42t26.5 9z" />
    <glyph glyph-name="daggerdbl" unicode="&#x2021;" horiz-adv-x="603" 
d="M79 503h153l-3 192q-1 22 13 28.5t59 6.5t59 -6.5t13 -28.5l-3 -192h153q21 0 26.5 -9t5.5 -42t-5.5 -42t-26.5 -9h-155l-3 -201h158q21 0 26.5 -9t5.5 -42t-5.5 -42t-26.5 -9h-159l-3 -185q-1 -20 -11.5 -25.5t-48.5 -5.5t-48.5 5.5t-11.5 25.5l-3 185h-159
q-21 0 -26.5 9t-5.5 42t5.5 42t26.5 9h158l-3 201h-155q-21 0 -26.5 9t-5.5 42t5.5 42t26.5 9z" />
    <glyph glyph-name="bullet" unicode="&#x2022;" horiz-adv-x="436" 
d="M203 457h31q64 0 97 -29t33 -107q0 -80 -22.5 -108t-81.5 -28h-84q-59 0 -81.5 28t-22.5 108q0 77 33.5 106.5t97.5 29.5z" />
    <glyph glyph-name="ellipsis" unicode="&#x2026;" horiz-adv-x="871" 
d="M137 156h21q38 0 56.5 -17t18.5 -64t-12.5 -64t-46.5 -17h-52q-35 0 -47.5 17t-12.5 64q0 46 19 63.5t56 17.5zM425 156h21q37 0 56 -17.5t19 -63.5q0 -47 -12.5 -64t-46.5 -17h-52q-35 0 -47.5 17t-12.5 64q0 46 19 63.5t56 17.5zM713 156h21q37 0 56 -17.5t19 -63.5
q0 -47 -12.5 -64t-47.5 -17h-52q-34 0 -46.5 17t-12.5 64q0 46 19 63.5t56 17.5z" />
    <glyph glyph-name="perthousand" unicode="&#x2030;" horiz-adv-x="1425" 
d="M826 699l-528 -683q-17 -22 -79 -22q-35 0 -45 6t3 25l528 679q17 22 81 22q46 0 46 -15q-1 -5 -6 -12zM147 534v-9q0 -56 18 -83t58 -27t58 27t18 83v9q0 56 -18 82.5t-58 26.5t-58 -26.5t-18 -82.5zM36 519v19q0 89 50 138.5t137 49.5q88 0 137.5 -48.5t49.5 -139.5
v-19q0 -91 -49.5 -139t-137.5 -48q-89 0 -138 47t-49 140zM693 196v-9q0 -56 18 -83t58 -27t58 27t18 83v9q0 56 -18 82.5t-58 26.5t-58 -26.5t-18 -82.5zM582 181v19q0 89 50 138.5t137 49.5q88 0 137.5 -48.5t49.5 -139.5v-19q0 -91 -49.5 -139t-137.5 -48q-89 0 -138 47
t-49 140zM1126 196v-9q0 -56 18 -83t58 -27t58 27t18 83v9q0 56 -18 82.5t-58 26.5t-58 -26.5t-18 -82.5zM1015 181v19q0 89 50 138.5t137 49.5q88 0 137.5 -48.5t49.5 -139.5v-19q0 -91 -49.5 -139t-137.5 -48q-89 0 -138 47t-49 140z" />
    <glyph glyph-name="guilsinglleft" unicode="&#x2039;" horiz-adv-x="401" 
d="M102 340l89 108q14 18 33.5 24t60.5 6q39 0 48 -9t-7 -30l-143 -185l148 -187q18 -22 8 -32.5t-52 -10.5q-44 0 -64 6t-36 26l-85 104q-30 36 -30 72v36q0 36 30 72z" />
    <glyph glyph-name="guilsinglright" unicode="&#x203a;" horiz-adv-x="399" 
d="M216 442l81 -100q30 -39 30 -72v-36q0 -33 -30 -72l-92 -111q-14 -17 -34 -23.5t-60 -6.5t-49.5 9t7.5 30l147 188l-145 183q-18 22 -7.5 32.5t52.5 10.5q43 0 63.5 -6.5t36.5 -25.5z" />
    <glyph glyph-name="fraction" unicode="&#x2044;" horiz-adv-x="676" 
d="M664 699l-529 -683q-10 -13 -26 -17.5t-53 -4.5q-34 0 -44.5 6t2.5 25l529 679q16 22 80 22q47 0 46 -15q0 -5 -5 -12z" />
    <glyph glyph-name="Euro" unicode="&#x20ac;" horiz-adv-x="706" 
d="M58 470h49q24 126 108.5 194t223.5 68q42 0 92.5 -8t77.5 -18q38 -14 51.5 -32.5t13.5 -57.5v-57q0 -24 -14 -31t-59 -7q-44 0 -58.5 7t-14.5 30v41q-46 13 -102 13q-136 0 -166 -142h226q13 0 17.5 -8.5t4.5 -31.5q0 -22 -4.5 -31t-17.5 -9h-235q-2 -42 1 -79h218
q13 0 17.5 -8t4.5 -32q0 -21 -4.5 -30t-17.5 -9h-203q20 -63 69 -91t134 -28q70 0 134 18q22 6 33 -3.5t19 -44.5q8 -30 5 -45.5t-25 -22.5q-87 -27 -190 -27q-147 0 -230.5 59t-108.5 185h-65q-13 0 -17.5 9t-4.5 30q0 24 4.5 32t17.5 8h57q-3 36 -1 79h-40q-13 0 -17.5 9
t-4.5 31q0 23 4.5 31.5t17.5 8.5z" />
    <glyph glyph-name="litre" unicode="&#x2113;" horiz-adv-x="557" 
d="M83 333l44 12v189q0 103 48.5 150.5t144.5 47.5q185 0 185 -182v-8q0 -184 -230 -278v-62q0 -57 14.5 -75t57.5 -18q37 0 81 17q20 7 30 -2t21 -42q11 -31 8.5 -44t-21.5 -21q-69 -29 -151 -29q-100 0 -144 44t-44 146v40l-18 -5q-21 -6 -29.5 3t-18.5 49
q-9 35 -4.5 48.5t26.5 19.5zM273 550v-155q50 26 68 57.5t18 86.5v7q0 72 -45 72q-21 0 -31 -15t-10 -53z" />
    <glyph glyph-name="numero" unicode="&#x2116;" horiz-adv-x="1377" 
d="M950 101h333q19 0 24.5 -10t5.5 -40q0 -31 -5.5 -41t-24.5 -10h-333q-18 0 -24 10t-6 41q0 30 6 40t24 10zM80 720h209q35 0 53.5 -10.5t31.5 -36.5l206 -398q38 -74 65 -173h18v506h-49q-21 0 -27 10.5t-6 45.5t6 45.5t27 10.5h217q20 0 26.5 -11t6.5 -45t-6.5 -45
t-26.5 -11h-40v-572q0 -22 -13 -32t-45 -10h-107q-34 0 -54.5 11t-33.5 37l-214 411q-34 63 -58 163h-18v-504h52q21 0 27 -10.5t6 -45.5t-6 -45.5t-27 -10.5h-223q-20 0 -26.5 11t-6.5 45t6.5 45t26.5 11h43v496h-40q-20 0 -26.5 11t-6.5 45t6.5 45t26.5 11zM1031 360v-7
q0 -100 86 -100q45 0 65 25t20 75v7q0 101 -85 101q-86 0 -86 -101zM906 346v21q0 93 54.5 140t156.5 47t156 -47t54 -140v-21q0 -186 -210 -186q-102 0 -156.5 46.5t-54.5 139.5z" />
    <glyph glyph-name="trademark" unicode="&#x2122;" horiz-adv-x="1269" 
d="M582 720h153q44 0 59 -4.5t19 -23.5l51 -211q5 -20 5 -35h14q0 23 9 64l41 182q4 19 18.5 23.5t58.5 4.5h155q15 0 18.5 -7.5t3.5 -32.5q0 -26 -4 -34.5t-18 -8.5h-31l24 -216h42q15 0 19 -8t4 -34q0 -24 -4.5 -33t-18.5 -9h-181q-15 0 -19.5 8.5t-4.5 33.5q0 26 4.5 34
t19.5 8h22l-15 220h-14q-4 -39 -15 -83l-38 -149q-6 -22 -19.5 -27t-55.5 -5h-28q-31 0 -41.5 1t-20 8t-13.5 23l-41 152q-14 50 -14 80h-14l-18 -220h26q15 0 19 -8t4 -34q0 -24 -4.5 -33t-18.5 -9h-173q-15 0 -19.5 8.5t-4.5 33.5q0 26 4.5 34t19.5 8h41l24 216h-30
q-15 0 -19 8.5t-4 34.5q0 25 4 32.5t19 7.5zM88 720h368q27 0 38 -8t11 -31v-75q0 -18 -9.5 -23.5t-40.5 -5.5q-30 0 -40.5 5.5t-10.5 23.5v31h-78v-216h48q15 0 19 -8t4 -34q0 -25 -4 -33.5t-19 -8.5h-205q-14 0 -18.5 9t-4.5 33q0 26 4 34t19 8h49v216h-78v-31
q0 -18 -10 -23.5t-41 -5.5q-30 0 -40.5 5.5t-10.5 23.5v75q0 23 11.5 31t38.5 8z" />
    <glyph glyph-name="estimated" unicode="&#x212e;" horiz-adv-x="926" 
d="M202 346v-202q0 -11 10 -24q48 -51 114 -80.5t139 -29.5q78 0 147 33t118 90h60q-57 -67 -143 -106t-183 -39q-170 0 -292 109t-122 263q0 155 121.5 263.5t292.5 108.5t291.5 -108.5t120.5 -263.5v-9h-669q-5 0 -5 -5zM202 576v-199q0 -5 5 -5h513q5 0 5 5v204
q0 15 -11 24q-103 105 -249 105q-149 0 -252 -108q-11 -9 -11 -26z" />
    <glyph glyph-name="partialdiff" unicode="&#x2202;" horiz-adv-x="627" 
d="M42 206v16q0 108 65 170t173 62q84 0 132 -48h18q-6 119 -46.5 167t-131.5 48q-53 0 -109 -18q-19 -6 -28 1t-19 39q-10 34 -7 46.5t22 19.5q65 23 152 23q134 0 209 -61q53 -43 79 -121t26 -216v-19q0 -162 -67 -244.5t-221 -82.5q-122 0 -184.5 56.5t-62.5 161.5z
M188 225v-9q0 -64 29 -91t85 -27q68 0 98 44t30 154v13q-48 33 -120 33q-122 0 -122 -117z" />
    <glyph glyph-name="product" unicode="&#x220f;" horiz-adv-x="808" 
d="M70 720h668q21 0 27.5 -11t6.5 -45t-6.5 -45t-27.5 -11h-50v-654h42q21 0 27 -11t6 -45q0 -33 -6.5 -44.5t-26.5 -11.5h-225q-20 0 -26.5 11.5t-6.5 44.5q0 34 6 45t27 11h36v654h-274v-654h35q21 0 27 -11t6 -45q0 -33 -6.5 -44.5t-26.5 -11.5h-224q-21 0 -27.5 11.5
t-6.5 44.5q0 34 6.5 45t27.5 11h42v654h-50q-21 0 -27.5 11t-6.5 45t6.5 45t27.5 11z" />
    <glyph glyph-name="summation" unicode="&#x2211;" horiz-adv-x="658" 
d="M47 720h511q40 0 53.5 -11.5t13.5 -46.5v-115q0 -25 -14 -33t-53 -8q-41 0 -54 8t-13 33v59h-254l151 -211q33 -48 33 -82v-29q0 -34 -33 -86l-157 -242h266v66q0 25 13.5 33t53.5 8q41 0 53.5 -8t12.5 -33v-122q0 -35 -13.5 -46.5t-53.5 -11.5h-519q-21 0 -27.5 12
t-6.5 45q0 34 6.5 45.5t27.5 11.5h29l222 338l-227 312h-21q-21 0 -27.5 12t-6.5 46t6.5 45t27.5 11z" />
    <glyph glyph-name="minus" unicode="&#x2212;" horiz-adv-x="704" 
d="M111 413h482q21 0 27 -11t6 -45q0 -33 -6 -44t-27 -11h-482q-21 0 -27 11t-6 44q0 34 6 45t27 11z" />
    <glyph glyph-name="radical" unicode="&#x221a;" horiz-adv-x="727" 
d="M52 495h100q38 0 53.5 -9.5t23.5 -35.5l78 -241q16 -54 26 -113h16q8 53 26 110l158 486q7 21 24 27.5t61 6.5q43 0 57 -8t7 -30l-221 -643q-10 -31 -26.5 -41t-53.5 -10h-92q-37 0 -52.5 10t-25.5 40l-113 336h-46q-21 0 -27.5 11.5t-6.5 46.5q0 36 6 46.5t28 10.5z" />
    <glyph glyph-name="infinity" unicode="&#x221e;" horiz-adv-x="897" 
d="M185 362v-4q0 -51 23.5 -75t75.5 -24q51 0 75.5 22.5t24.5 78.5q0 55 -25.5 78t-75.5 23q-51 0 -74.5 -24.5t-23.5 -74.5zM50 355v10q0 212 218 212q132 0 173 -87h15q41 87 173 87q218 0 218 -212v-10q0 -112 -55.5 -162.5t-162.5 -50.5q-134 0 -173 89h-15
q-39 -89 -173 -89q-107 0 -162.5 50.5t-55.5 162.5zM513 362v-4q0 -51 23.5 -75t75.5 -24q51 0 75.5 22.5t24.5 78.5q0 55 -25.5 78t-75.5 23q-51 0 -74.5 -24.5t-23.5 -74.5z" />
    <glyph glyph-name="integral" unicode="&#x222b;" horiz-adv-x="600" 
d="M373 688v-637q0 -118 -44 -167.5t-153 -49.5q-65 0 -108 19q-29 13 -13 59q12 34 21 42.5t31 2.5q33 -10 61 -10q34 0 48.5 20t14.5 69v642q0 112 45 160.5t149 48.5q61 0 108 -19q16 -7 19 -18t-6 -40q-11 -35 -20.5 -43.5t-31.5 -1.5q-28 9 -59 9q-32 0 -47 -20.5
t-15 -65.5z" />
    <glyph glyph-name="approxequal" unicode="&#x2248;" horiz-adv-x="701" 
d="M85 494q55 76 171 76q48 0 107 -29t87 -29q51 0 84 36q11 13 24.5 12.5t36.5 -17.5q38 -27 23 -49q-61 -87 -176 -87q-44 0 -106 29t-93 29q-48 0 -83 -36q-11 -11 -23 -8.5t-33 19.5q-20 17 -24.5 28.5t5.5 25.5zM85 235q56 76 171 76q48 0 107 -29t87 -29q51 0 84 36
q11 13 24 12.5t37 -17.5q21 -16 26 -26.5t-3 -22.5q-61 -87 -176 -87q-44 0 -106 29t-93 29q-48 0 -83 -36q-10 -11 -22.5 -9t-33.5 20q-36 31 -19 54z" />
    <glyph glyph-name="notequal" unicode="&#x2260;" horiz-adv-x="704" 
d="M110 542h292l37 65q11 20 61 20q27 0 35.5 -6t0.5 -19l-33 -60h92q19 0 25 -11t6 -42t-6 -42.5t-25 -11.5h-150l-85 -154h235q19 0 25 -11t6 -42q0 -30 -6 -41.5t-25 -11.5h-294l-36 -67q-12 -21 -62 -21q-28 0 -37 6t-1 21l34 61h-89q-20 0 -26 11.5t-6 41.5
q0 32 6 42.5t26 10.5h148l86 154h-234q-20 0 -26 11.5t-6 42.5t6 42t26 11z" />
    <glyph glyph-name="lessequal" unicode="&#x2264;" horiz-adv-x="704" 
d="M110 107h484q20 0 26 -10.5t6 -43.5q0 -32 -6 -42.5t-26 -10.5h-484q-20 0 -26 10.5t-6 42.5q0 33 6 43.5t26 10.5zM130 543l416 189q19 8 28.5 1t24.5 -39q14 -30 12.5 -43t-20.5 -22l-393 -173v-13l396 -169q20 -9 22 -22t-12 -46q-14 -32 -25 -40.5t-31 0.5l-420 181
q-42 17 -42 65v56q0 54 44 75z" />
    <glyph glyph-name="greaterequal" unicode="&#x2265;" horiz-adv-x="704" 
d="M110 107h484q20 0 26 -10.5t6 -43.5q0 -32 -6 -42.5t-26 -10.5h-484q-20 0 -26 10.5t-6 42.5q0 33 6 43.5t26 10.5zM163 730l416 -179q42 -18 42 -65v-57q0 -53 -44 -74l-425 -194q-18 -8 -28 -0.5t-25 39.5q-14 30 -12.5 43t20.5 22l402 177v13l-391 167q-20 8 -22 21
t12 46q13 32 24 40.5t31 0.5z" />
    <glyph glyph-name="lozenge" unicode="&#x25ca;" horiz-adv-x="610" 
d="M274 726h65q32 0 47.5 -10.5t30.5 -38.5l137 -261q16 -29 16 -56q0 -24 -16 -56l-141 -261q-15 -29 -30 -39t-47 -10h-67q-33 0 -48.5 10t-30.5 39l-136 260q-14 28 -14 55t14 54l141 265q15 29 30.5 39t48.5 10zM312 627h-17q-13 -51 -39 -99l-87 -168l82 -162
q34 -68 45 -106h17q14 50 40 99l84 169l-87 169q-26 51 -38 98z" />
    <glyph glyph-name="s_t" unicode="&#xfb06;" horiz-adv-x="1024" 
d="M54 346v4q0 152 239 152q31 0 63 -3q-30 35 -30 78q0 69 64 112t152 43q125 0 193.5 -63t68.5 -165v-14h137q22 0 28.5 -10t6.5 -45q0 -34 -6.5 -44.5t-28.5 -10.5h-137v-207q0 -41 13.5 -55t50.5 -14q43 0 80 10q18 5 28 -4.5t17 -40.5q7 -33 3 -43t-23 -17
q-59 -21 -135 -21q-103 0 -140 38.5t-37 124.5v229h-47q-22 0 -28.5 10.5t-6.5 44.5q0 35 6.5 45t28.5 10h47v11q0 58 -29 90t-85 32q-45 0 -75 -22.5t-30 -60.5q0 -15 7 -28.5t13 -20t19 -19.5q18 -16 23.5 -27t5.5 -31v-26q0 -26 -12.5 -34.5t-53.5 -8.5q-40 0 -53 7
t-13 24v21q-47 10 -91 10q-49 0 -69 -11t-20 -35q0 -21 21.5 -31.5t90.5 -19.5l22 -3q106 -14 153.5 -47t47.5 -113v-6q0 -153 -262 -153q-103 0 -174 19q-55 14 -55 66v41q0 26 12.5 34.5t53.5 8.5q40 0 53 -7t13 -24v-28q58 -13 119 -13q55 0 76 11.5t21 35.5t-22.5 36.5
t-97.5 23.5l-28 4q-104 15 -146 49t-42 101z" />
    <glyph glyph-name="CR" horiz-adv-x="197" 
 />
    <glyph glyph-name="grave.cap" 
d="M276 913l121 -97q19 -17 -11 -28q-18 -7 -45 -7q-64 0 -100 26l-142 101q-15 11 0 23q16 12 59 12q81 0 118 -30z" />
    <glyph glyph-name="acute.cap" 
d="M132 813l117 100q35 30 111 30q54 0 62 -20q4 -8 -6 -15l-134 -101q-36 -26 -97 -26q-54 0 -59 18q-3 7 6 14z" />
    <glyph glyph-name="dieresis.cap" 
d="M96 958h21q33 0 49.5 -15.5t16.5 -56.5q0 -42 -11 -57t-41 -15h-49q-30 0 -41 15t-11 57q0 40 16.5 56t49.5 16zM382 958h21q33 0 49.5 -15.5t16.5 -56.5q0 -42 -11 -57t-42 -15h-48q-30 0 -41.5 15t-11.5 57q0 40 17 56t50 16z" />
    <glyph glyph-name="circumflex.cap" 
d="M18 811l127 104q29 25 87 25h28q35 0 53.5 -5.5t36.5 -19.5l131 -103q25 -20 -15 -27q-15 -3 -36 -3q-50 0 -74 5.5t-47 21.5l-65 46l-59 -45q-22 -17 -47 -22.5t-71 -5.5q-60 0 -57 18q1 5 8 11z" />
    <glyph glyph-name="tilde.cap" 
d="M26 887q39 86 146 86q40 0 92 -30t71 -30q34 0 56 32q12 17 54 -4q39 -22 31 -45q-33 -90 -140 -90q-37 0 -90.5 29t-74.5 29q-39 0 -63 -33q-14 -20 -56 13q-34 24 -26 43z" />
    <glyph glyph-name="macron.cap" 
d="M95 944h312q20 0 26 -10.5t6 -43.5q0 -32 -6 -42.5t-26 -10.5h-312q-20 0 -26.5 10.5t-6.5 42.5q0 33 6 43.5t27 10.5z" />
    </font>
</defs>
</svg>
